<svg width="64" height="76" viewBox="0 0 64 76" fill="none" xmlns="http://www.w3.org/2000/svg">
<path fill-rule="evenodd" clip-rule="evenodd" d="M5 38H25L5 16V38Z" fill="#BE333A"/>
<path fill-rule="evenodd" clip-rule="evenodd" d="M29 76C36.5 71.3 42.4 66.2 47 61H11C15.6 66.2 21.5 71.3 29 76Z" fill="#223E77"/>
<path fill-rule="evenodd" clip-rule="evenodd" d="M23.7999 0.199997C16.7999 0.199997 9.9999 0.199997 4.3999 0.199997L23.7999 20.7V0.199997Z" fill="#BE333A"/>
<path fill-rule="evenodd" clip-rule="evenodd" d="M4.3 53.5H53.4C55.1 51 56.5 48.4 57.7 45.8H0C1.2 48.4 2.6 51 4.3 53.5Z" fill="#223E77"/>
<path fill-rule="evenodd" clip-rule="evenodd" d="M46.9 14.7V6.8H64C64 4.5 64 2.3 64 0C61.4 0 48.9 0 35 0V38H60.3C61.1 35.4 61.7 32.8 62.2 30.2H46.9V22.4H63.3C63.6 19.8 63.7 17.3 63.8 14.7H46.9Z" fill="#223E77"/>
</svg>
