<svg width="18" height="18" viewBox="0 0 18 18" fill="none" xmlns="http://www.w3.org/2000/svg">
<path fill-rule="evenodd" clip-rule="evenodd" d="M10.5 18H7.5C6.67157 18 6 17.3284 6 16.5V10.8075L0.4425 5.25C0.160809 4.96999 0.00167459 4.58968 0 4.1925V1.5C0 0.671573 0.671573 0 1.5 0H16.5C17.3284 0 18 0.671573 18 1.5V4.1925C17.9983 4.58968 17.8392 4.96999 17.5575 5.25L12 10.8075V16.5C12 17.3284 11.3284 18 10.5 18ZM1.5 1.5V4.1925L7.5 10.1925V16.5H10.5V10.1925L16.5 4.1925V1.5H1.5Z" fill="#233746"/>
</svg>
