<svg width="145" height="64" viewBox="0 0 145 64" fill="none" xmlns="http://www.w3.org/2000/svg">
<path d="M74.1898 60.625L74.2851 60.1793C74.3871 59.6996 74.3667 59.4785 74.2442 59.4785C73.9187 59.6047 73.6331 59.8163 73.4175 60.0909L73.4617 60.1589C73.5857 60.0381 73.7326 59.9432 73.8938 59.8799C73.938 59.8799 73.9448 59.9241 73.9142 60.0909C73.8121 60.7033 73.6148 61.6151 73.4481 62.3091L73.4855 62.3466C73.6174 62.2988 73.7528 62.2613 73.8904 62.2343C73.938 61.9723 74.0231 61.53 74.1388 61.0231C74.2684 60.7408 74.4197 60.4689 74.5913 60.2099C74.7444 59.9888 74.8464 59.9105 74.9315 59.9105C74.9719 59.9138 75.0111 59.9259 75.0463 59.9459C75.0816 59.9659 75.112 59.9933 75.1356 60.0262C75.1527 60.0422 75.1752 60.0512 75.1986 60.0512C75.222 60.0512 75.2445 60.0422 75.2615 60.0262C75.3246 59.9765 75.3777 59.9153 75.418 59.8459C75.4389 59.8128 75.4499 59.7745 75.4499 59.7353C75.4499 59.6962 75.4389 59.6579 75.418 59.6248C75.3927 59.5799 75.3569 59.5419 75.3136 59.514C75.2704 59.4862 75.2209 59.4693 75.1697 59.4648C74.9587 59.4648 74.564 59.8799 74.2068 60.6114L74.1898 60.625Z" fill="white"/>
<path d="M77.9119 61.6593C77.3947 62.2207 76.966 62.3398 76.6598 62.3398C76.3536 62.3398 76.0168 62.1731 76.0168 61.4076C76.0181 61.1023 76.0861 60.8011 76.216 60.5249C76.3458 60.2487 76.5345 60.0042 76.7687 59.8085C77.0089 59.621 77.2961 59.5033 77.5988 59.4683C77.6579 59.4655 77.7168 59.4748 77.7721 59.4957C77.8273 59.5166 77.8777 59.5486 77.9202 59.5897C77.9626 59.6308 77.9961 59.6802 78.0186 59.7348C78.0412 59.7894 78.0523 59.8481 78.0513 59.9072C78.0513 60.4685 77.0817 60.8394 76.4863 61.0129C76.4824 61.0911 76.4824 61.1694 76.4863 61.2477C76.4863 61.5879 76.5748 62.0302 76.9762 62.0302C77.3177 61.9998 77.6338 61.8375 77.8574 61.5777L77.9119 61.6593ZM77.3471 59.6826C77.2606 59.6795 77.1749 59.6994 77.0987 59.7404C76.949 59.8221 76.6156 60.1419 76.5067 60.9006C77.3743 60.6386 77.6363 60.3392 77.6431 60.0398C77.6483 59.9973 77.6448 59.9541 77.633 59.9129C77.6212 59.8717 77.6012 59.8333 77.5742 59.7999C77.5472 59.7666 77.5138 59.739 77.476 59.7189C77.4381 59.6987 77.3966 59.6864 77.3539 59.6826H77.3471Z" fill="white"/>
<path d="M83.0459 61.6967C82.9375 61.8068 82.8079 61.8936 82.6648 61.9519C82.624 61.9519 82.607 61.8941 82.6648 61.7103L82.9574 60.4107C83.1547 59.5567 82.9846 59.4785 82.869 59.4785C82.7458 59.4839 82.6271 59.5266 82.5287 59.6009C82.0467 59.9038 81.634 60.3049 81.3175 60.7781L81.3788 60.4855C81.5795 59.6179 81.4298 59.4648 81.2971 59.4648C81.1748 59.4691 81.0565 59.5094 80.9569 59.5805C80.469 59.8845 80.0552 60.2937 79.7457 60.7781L79.8614 60.2984C80.0009 59.6996 80.0009 59.4648 79.8614 59.4648C79.538 59.5747 79.2525 59.7741 79.038 60.0398L79.0822 60.1011C79.2011 59.9894 79.3427 59.9046 79.4973 59.8527C79.5416 59.8527 79.5416 59.9105 79.4973 60.1385C79.3408 60.8496 79.1571 61.5879 78.9768 62.3091L79.0142 62.333C79.1488 62.2835 79.2878 62.2471 79.4293 62.2241C79.5109 61.843 79.6062 61.4348 79.6844 61.1456C79.8886 60.7271 80.6711 59.7847 80.9603 59.7847C81.0794 59.7847 81.0998 59.965 80.9909 60.4651C80.8718 61.0469 80.7051 61.6831 80.552 62.3091L80.5894 62.333C80.7239 62.2833 80.863 62.2468 81.0045 62.2241C81.076 61.8566 81.1678 61.462 81.2393 61.166C81.457 60.7135 82.26 59.8051 82.5355 59.8051C82.624 59.8051 82.675 59.8833 82.5866 60.278L82.2463 61.6695C82.1307 62.1662 82.1715 62.35 82.3178 62.35C82.6272 62.2352 82.8975 62.0345 83.0969 61.7716L83.0459 61.6967Z" fill="white"/>
<path d="M86.0773 61.6593C85.5601 62.2207 85.1349 62.3398 84.8287 62.3398C84.5225 62.3398 84.1822 62.1731 84.1822 61.4076C84.1835 61.102 84.2518 60.8004 84.3823 60.5242C84.5128 60.2479 84.7023 60.0036 84.9375 59.8085C85.1768 59.6216 85.4628 59.5039 85.7643 59.4683C85.8233 59.4655 85.8823 59.4748 85.9375 59.4957C85.9928 59.5166 86.0432 59.5486 86.0856 59.5897C86.128 59.6308 86.1615 59.6802 86.1841 59.7348C86.2067 59.7894 86.2178 59.8481 86.2168 59.9072C86.2168 60.4685 85.2471 60.8394 84.6551 61.0129C84.6499 61.0911 84.6499 61.1695 84.6551 61.2477C84.6551 61.5879 84.747 62.0302 85.1485 62.0302C85.4891 62.0004 85.8044 61.8378 86.0263 61.5777L86.0773 61.6593ZM85.5159 59.6826C85.4295 59.6795 85.3437 59.6994 85.2675 59.7404C85.1144 59.8221 84.7844 60.1419 84.6756 60.9006C85.5431 60.6386 85.8051 60.3392 85.8119 60.0398C85.8171 59.9973 85.8137 59.9541 85.8018 59.9129C85.79 59.8717 85.77 59.8333 85.743 59.7999C85.716 59.7666 85.6826 59.739 85.6448 59.7189C85.6069 59.6987 85.5654 59.6864 85.5227 59.6826H85.5159Z" fill="white"/>
<path d="M91.2725 61.775C91.0745 62.0393 90.8038 62.2403 90.4934 62.3534C90.3471 62.3534 90.3097 62.1697 90.4254 61.6729L90.7656 60.2814C90.8575 59.8867 90.803 59.8085 90.7146 59.8085C90.4356 59.8085 89.636 60.7271 89.4217 61.1694C89.3502 61.4654 89.255 61.8498 89.1835 62.2275C89.0431 62.2502 88.9052 62.2867 88.7719 62.3364L88.731 62.3126C88.8841 61.6865 89.0509 61.0503 89.1733 60.4685C89.2822 59.9786 89.2618 59.7881 89.1393 59.7881C88.8535 59.7881 88.0676 60.7203 87.8635 61.149C87.7886 61.4382 87.6933 61.8464 87.6083 62.2275C87.4678 62.25 87.3299 62.2865 87.1966 62.3364L87.1558 62.3126C87.3497 61.5913 87.5198 60.853 87.6797 60.1419C87.7308 59.914 87.7308 59.8561 87.6797 59.8561C87.5247 59.9073 87.383 59.9921 87.2647 60.1045L87.2204 60.0432C87.4349 59.7775 87.7204 59.5781 88.0438 59.4683C88.1765 59.4683 88.1765 59.703 88.0438 60.3018L87.9281 60.7815C88.2376 60.2971 88.6514 59.8879 89.1393 59.5839C89.2389 59.5128 89.3572 59.4725 89.4795 59.4683C89.6122 59.4683 89.7585 59.6078 89.5612 60.4889L89.4965 60.7815C89.813 60.3084 90.2257 59.9072 90.7078 59.6044C90.8064 59.5306 90.9249 59.4879 91.048 59.4819C91.1603 59.4819 91.3338 59.5601 91.1364 60.4141L90.8439 61.7138C90.7962 61.8975 90.8166 61.9553 90.8439 61.9553C90.9881 61.8974 91.119 61.8106 91.2283 61.7001L91.2725 61.775Z" fill="white"/>
<path d="M92.7151 57.8962C93.018 57.8417 93.3178 57.7713 93.6133 57.6853C93.6711 57.6853 93.6779 57.7295 93.6439 57.8588C93.4024 58.8421 93.2356 59.6008 93.0383 60.5296C93.6235 59.7641 94.2053 59.4783 94.4537 59.4783C94.702 59.4783 94.8245 59.713 94.8245 60.1145C94.8158 60.482 94.7241 60.8428 94.5562 61.1698C94.3882 61.4968 94.1485 61.7816 93.8549 62.0028C93.5853 62.2024 93.2641 62.3205 92.9294 62.343C92.8433 62.3372 92.7596 62.3118 92.6847 62.2687C92.6098 62.2257 92.5458 62.1661 92.4974 62.0946C92.4393 61.9778 92.4049 61.8506 92.3961 61.7204C92.3873 61.5902 92.4044 61.4595 92.4463 61.3359C92.63 60.4309 92.841 59.4817 93.0825 58.3147C93.1472 58.0017 93.1268 57.9745 92.9294 57.9575H92.7015L92.7151 57.8962ZM94.1679 59.7709C93.9059 59.7709 93.3581 60.2676 93.0009 60.7916C92.9513 60.9613 92.9126 61.134 92.8852 61.3087C92.7729 61.9892 93.0587 62.1253 93.2731 62.1253C93.3925 62.1211 93.5091 62.0884 93.6133 62.03C93.8633 61.8104 94.0607 61.5373 94.1908 61.2311C94.321 60.9248 94.3806 60.5932 94.3652 60.2608C94.3652 59.9206 94.2835 59.7709 94.1815 59.7709H94.1679Z" fill="white"/>
<path d="M97.7198 61.6593C97.2027 62.2207 96.774 62.3398 96.4712 62.3398C96.1684 62.3398 95.8248 62.1731 95.8248 61.4076C95.8261 61.1023 95.8941 60.8011 96.024 60.5249C96.1538 60.2487 96.3425 60.0042 96.5767 59.8085C96.818 59.6228 97.1046 59.5053 97.4068 59.4683C97.4658 59.4655 97.5248 59.4748 97.5801 59.4957C97.6353 59.5166 97.6857 59.5486 97.7281 59.5897C97.7705 59.6308 97.8041 59.6802 97.8266 59.7348C97.8492 59.7894 97.8603 59.8481 97.8593 59.9072C97.8593 60.4685 96.8897 60.8394 96.2977 61.0129C96.2925 61.0911 96.2925 61.1695 96.2977 61.2477C96.2977 61.5879 96.3861 62.0302 96.7876 62.0302C97.1205 61.9961 97.4275 61.8353 97.645 61.5811L97.7198 61.6593ZM97.1585 59.6826C97.072 59.6795 96.9863 59.6994 96.9101 59.7404C96.757 59.8221 96.427 60.1419 96.3181 60.9006C97.1857 60.6386 97.4442 60.3392 97.4511 60.0398C97.4511 59.8289 97.3252 59.6826 97.1653 59.6826H97.1585Z" fill="white"/>
<path d="M99.5945 60.6251C99.9347 59.8936 100.346 59.4785 100.557 59.4785C100.609 59.483 100.658 59.4998 100.701 59.5277C100.745 59.5556 100.78 59.5936 100.806 59.6384C100.826 59.6718 100.836 59.71 100.836 59.749C100.836 59.788 100.826 59.8262 100.806 59.8596C100.768 59.9295 100.715 59.9909 100.653 60.0399C100.636 60.0559 100.613 60.0648 100.59 60.0648C100.566 60.0648 100.544 60.0559 100.527 60.0399C100.503 60.0071 100.472 59.9798 100.437 59.9598C100.402 59.9399 100.363 59.9277 100.323 59.9242C100.238 59.9242 100.139 60.0025 99.9823 60.2236C99.8097 60.4825 99.6572 60.7544 99.5264 61.0367C99.4142 61.5437 99.3291 61.986 99.2781 62.248C99.1417 62.2754 99.0075 62.313 98.8766 62.3602L98.8392 62.3228C99.0059 61.6424 99.2032 60.7169 99.3053 60.1045C99.3359 59.9378 99.3291 59.8936 99.2849 59.8936C99.1237 59.9569 98.9768 60.0517 98.8528 60.1726L98.8086 60.1045C99.0235 59.8292 99.3093 59.6175 99.6353 59.4921C99.7578 59.4921 99.7748 59.7133 99.6727 60.193L99.5775 60.6387L99.5945 60.6251Z" fill="white"/>
<path d="M101.214 62.3533C101.254 62.353 101.293 62.3444 101.329 62.3282C101.366 62.312 101.398 62.2885 101.425 62.2591C101.452 62.2298 101.472 62.1952 101.485 62.1575C101.498 62.1199 101.503 62.08 101.5 62.0403C101.503 62.0076 101.499 61.9748 101.488 61.9437C101.478 61.9126 101.461 61.8841 101.439 61.8598C101.417 61.8355 101.39 61.8161 101.36 61.8026C101.33 61.7892 101.298 61.7821 101.265 61.7817C101.226 61.7821 101.187 61.7905 101.15 61.8065C101.114 61.8225 101.082 61.8458 101.055 61.8748C101.028 61.9038 101.008 61.9379 100.995 61.9752C100.982 62.0124 100.976 62.052 100.979 62.0913C100.976 62.1236 100.98 62.1561 100.99 62.1869C101 62.2177 101.016 62.2462 101.038 62.2707C101.059 62.2951 101.085 62.315 101.114 62.3292C101.143 62.3434 101.175 62.3516 101.207 62.3533H101.214Z" fill="white"/>
<path d="M105.691 60.6251C106.049 59.8936 106.443 59.4785 106.654 59.4785C106.705 59.483 106.755 59.4998 106.798 59.5277C106.841 59.5556 106.877 59.5936 106.903 59.6384C106.923 59.6718 106.933 59.71 106.933 59.749C106.933 59.788 106.923 59.8262 106.903 59.8596C106.864 59.9295 106.812 59.9909 106.749 60.0399C106.732 60.0559 106.71 60.0648 106.687 60.0648C106.663 60.0648 106.641 60.0559 106.624 60.0399C106.6 60.0071 106.569 59.9798 106.534 59.9598C106.499 59.9399 106.46 59.9277 106.419 59.9242C106.334 59.9242 106.232 60.0025 106.079 60.2236C105.909 60.4834 105.758 60.7551 105.627 61.0367C105.514 61.5437 105.429 61.986 105.378 62.248C105.242 62.275 105.108 62.3125 104.977 62.3602L104.939 62.3228C105.103 61.6424 105.303 60.7169 105.406 60.1045C105.436 59.9378 105.429 59.8936 105.385 59.8936C105.224 59.956 105.076 60.051 104.953 60.1726L104.905 60.1045C105.122 59.8296 105.409 59.618 105.736 59.4921C105.858 59.4921 105.875 59.7133 105.773 60.193L105.678 60.6387L105.691 60.6251Z" fill="white"/>
<path d="M109.383 61.6593C108.866 62.2207 108.44 62.3398 108.134 62.3398C107.828 62.3398 107.488 62.1731 107.488 61.4076C107.489 61.102 107.557 60.8004 107.688 60.5242C107.818 60.2479 108.008 60.0036 108.243 59.8085C108.482 59.6216 108.768 59.5039 109.07 59.4683C109.129 59.4655 109.188 59.4748 109.243 59.4957C109.298 59.5166 109.349 59.5486 109.391 59.5897C109.433 59.6308 109.467 59.6802 109.49 59.7348C109.512 59.7894 109.523 59.8481 109.522 59.9072C109.522 60.4685 108.556 60.8394 107.961 61.0129C107.955 61.0911 107.955 61.1695 107.961 61.2477C107.961 61.5879 108.053 62.0302 108.454 62.0302C108.795 62.0004 109.11 61.8378 109.332 61.5777L109.383 61.6593ZM108.821 59.6826C108.735 59.6795 108.649 59.6994 108.573 59.7404C108.42 59.8221 108.09 60.1419 107.981 60.9006C108.849 60.6386 109.111 60.3392 109.114 60.0398C109.114 59.8289 108.988 59.6826 108.828 59.6826H108.821Z" fill="white"/>
<path d="M111.036 59.594C111.098 59.0895 111.29 58.6098 111.594 58.2024C111.816 57.9229 112.136 57.7381 112.489 57.6853C112.68 57.6853 112.829 57.8384 112.812 57.9337C112.799 58.0282 112.748 58.1136 112.673 58.1718C112.663 58.1801 112.652 58.1862 112.64 58.1897C112.627 58.1932 112.614 58.194 112.602 58.1921C112.589 58.1902 112.577 58.1855 112.566 58.1785C112.556 58.1715 112.547 58.1622 112.54 58.1514C112.497 58.0868 112.44 58.0329 112.372 57.9939C112.305 57.955 112.23 57.9321 112.152 57.9269C111.883 57.9269 111.686 58.3045 111.472 59.594H112.152L112.033 59.713L111.421 59.7777C111.298 60.4922 111.227 60.914 111.057 61.7408C110.846 62.8057 110.679 63.1902 110.271 63.6222C110.101 63.8314 109.857 63.9667 109.59 63.9999C109.417 63.9999 109.213 63.9046 109.213 63.7617C109.222 63.714 109.242 63.6686 109.269 63.6283C109.297 63.588 109.332 63.5535 109.373 63.527C109.417 63.4964 109.444 63.5032 109.468 63.527C109.589 63.6266 109.74 63.685 109.897 63.6937C109.952 63.6917 110.007 63.6782 110.057 63.6542C110.108 63.6302 110.152 63.5962 110.189 63.5542C110.281 63.4521 110.414 63.1766 110.628 61.9245C110.802 60.9379 110.89 60.4105 111.006 59.7641H110.495V59.7267L110.669 59.594H111.036Z" fill="white"/>
<path d="M113.949 61.6831C113.712 61.9909 113.394 62.2265 113.03 62.3635C112.921 62.3635 112.846 62.2172 112.962 61.6491C113.197 60.5467 113.425 59.4478 113.642 58.3523C113.707 58.0461 113.68 58.012 113.387 58.012H113.2V57.9372C113.507 57.8838 113.809 57.8087 114.105 57.7126C114.163 57.7126 114.156 57.7773 114.139 57.8657C113.87 59.1552 113.602 60.4617 113.323 61.7886C113.299 61.9349 113.323 61.9791 113.353 61.9791C113.549 61.9069 113.726 61.7905 113.87 61.6389L113.949 61.6831Z" fill="white"/>
<path d="M116.8 61.6593C116.283 62.2207 115.854 62.3398 115.548 62.3398C115.242 62.3398 114.905 62.1731 114.905 61.4076C114.906 61.1023 114.974 60.8011 115.104 60.5249C115.234 60.2487 115.422 60.0042 115.657 59.8085C115.898 59.6228 116.185 59.5053 116.487 59.4683C116.546 59.4655 116.605 59.4748 116.66 59.4957C116.715 59.5166 116.766 59.5486 116.808 59.5897C116.85 59.6308 116.884 59.6802 116.907 59.7348C116.929 59.7894 116.94 59.8481 116.939 59.9072C116.939 60.4685 115.97 60.8394 115.378 61.0129C115.372 61.0911 115.372 61.1695 115.378 61.2477C115.378 61.5879 115.466 62.0302 115.868 62.0302C116.209 61.9998 116.525 61.8375 116.749 61.5777L116.8 61.6593ZM116.238 59.6826C116.152 59.6791 116.066 59.6991 115.99 59.7404C115.837 59.8221 115.503 60.1419 115.395 60.9006C116.262 60.6386 116.524 60.3392 116.531 60.0398C116.531 59.8289 116.405 59.6826 116.245 59.6826H116.238Z" fill="white"/>
<path d="M119.61 61.639C119.474 61.8343 119.298 61.9989 119.094 62.1219C118.89 62.245 118.662 62.3239 118.426 62.3534C118.062 62.3534 117.786 62.0404 117.786 61.4416C117.791 60.8799 118.016 60.3425 118.412 59.9446C118.676 59.6956 119.01 59.533 119.368 59.4785C119.63 59.4785 119.811 59.6316 119.811 59.7711C119.811 59.8596 119.756 59.9548 119.617 60.0263C119.579 60.0467 119.549 60.0263 119.522 59.9889C119.477 59.903 119.411 59.8308 119.328 59.7799C119.246 59.7289 119.152 59.7012 119.055 59.6997C118.879 59.6997 118.674 59.8494 118.521 60.159C118.35 60.5182 118.261 60.911 118.259 61.3089C118.259 61.7478 118.426 62.037 118.719 62.037C119.043 61.9909 119.341 61.829 119.556 61.5811L119.61 61.639Z" fill="white"/>
<path d="M122.264 59.7506H121.658L121.287 61.53C121.212 61.8702 121.25 61.9519 121.321 61.9519C121.526 61.8919 121.714 61.7847 121.869 61.6389L121.92 61.6967C121.723 61.9077 121.24 62.3398 120.95 62.3398C120.848 62.3398 120.726 62.173 120.869 61.5436L121.25 59.7506H120.797V59.7064L120.937 59.5805H121.294L121.43 59.0055L121.876 58.6177L121.927 58.6415L121.709 59.5805H122.437L122.264 59.7506Z" fill="white"/>
<path d="M123.247 62.3533C123.214 62.3521 123.182 62.3442 123.153 62.3302C123.123 62.3162 123.097 62.2963 123.075 62.2718C123.054 62.2473 123.037 62.2187 123.027 62.1877C123.017 62.1567 123.013 62.1239 123.016 62.0913C123.013 62.0518 123.019 62.0122 123.033 61.9749C123.046 61.9377 123.067 61.9035 123.094 61.8746C123.121 61.8456 123.154 61.8225 123.19 61.8065C123.226 61.7906 123.265 61.7821 123.305 61.7817C123.338 61.7821 123.37 61.7892 123.4 61.8026C123.43 61.8161 123.457 61.8355 123.479 61.8598C123.501 61.8841 123.518 61.9126 123.528 61.9437C123.539 61.9748 123.542 62.0076 123.54 62.0403C123.543 62.08 123.538 62.1199 123.525 62.1575C123.512 62.1952 123.492 62.2298 123.465 62.2591C123.438 62.2885 123.406 62.312 123.369 62.3282C123.333 62.3444 123.294 62.353 123.254 62.3533H123.247Z" fill="white"/>
<path d="M127.711 60.625L127.806 60.1793C127.908 59.6996 127.888 59.4785 127.769 59.4785C127.441 59.6034 127.154 59.8151 126.939 60.0909L126.983 60.1589C127.108 60.0378 127.256 59.9429 127.418 59.8799C127.462 59.8799 127.469 59.9241 127.435 60.0909C127.333 60.7033 127.136 61.6151 126.969 62.3091L127.01 62.3466C127.141 62.2984 127.275 62.2609 127.411 62.2343C127.462 61.9723 127.544 61.53 127.66 61.0231C127.791 60.7415 127.942 60.4697 128.112 60.2099C128.265 59.9888 128.367 59.9105 128.453 59.9105C128.493 59.9138 128.532 59.9259 128.567 59.9459C128.603 59.9659 128.633 59.9933 128.657 60.0262C128.675 60.0418 128.698 60.0503 128.721 60.0503C128.745 60.0503 128.768 60.0418 128.786 60.0262C128.848 59.9763 128.9 59.9151 128.939 59.8459C128.96 59.8128 128.971 59.7745 128.971 59.7353C128.971 59.6962 128.96 59.6579 128.939 59.6248C128.914 59.5793 128.879 59.5408 128.835 59.5129C128.792 59.4849 128.742 59.4684 128.691 59.4648C128.48 59.4648 128.085 59.8799 127.728 60.6114L127.711 60.625Z" fill="white"/>
<path d="M131.419 61.6593C130.906 62.2207 130.477 62.3398 130.171 62.3398C129.864 62.3398 129.528 62.1731 129.528 61.4076C129.529 61.1023 129.597 60.8011 129.727 60.5249C129.857 60.2487 130.045 60.0042 130.28 59.8085C130.52 59.621 130.807 59.5033 131.11 59.4683C131.169 59.4655 131.228 59.4748 131.283 59.4957C131.338 59.5166 131.389 59.5486 131.431 59.5897C131.473 59.6308 131.507 59.6802 131.529 59.7348C131.552 59.7894 131.563 59.8481 131.562 59.9072C131.562 60.4685 130.593 60.8394 130.001 61.0129C129.995 61.0911 129.995 61.1695 130.001 61.2477C130.001 61.5879 130.089 62.0302 130.49 62.0302C130.832 61.9998 131.148 61.8375 131.372 61.5777L131.419 61.6593ZM130.861 59.6826C130.775 59.6791 130.689 59.6991 130.613 59.7404C130.46 59.8221 130.126 60.1419 130.018 60.9006C130.885 60.6386 131.147 60.3392 131.154 60.0398C131.159 59.9973 131.156 59.9541 131.144 59.9129C131.132 59.8717 131.112 59.8333 131.085 59.7999C131.058 59.7666 131.025 59.739 130.987 59.7189C130.949 59.6987 130.907 59.6864 130.865 59.6826H130.861Z" fill="white"/>
<path d="M135.087 61.7614C134.879 62.0321 134.598 62.2376 134.277 62.3534C134.144 62.3534 134.114 62.1833 134.226 61.6729C134.338 61.1626 134.444 60.7509 134.546 60.2916C134.634 59.8935 134.577 59.8051 134.495 59.8051C134.226 59.8051 133.474 60.6522 133.161 61.2136C133.1 61.496 133.015 61.8601 132.937 62.2343C132.798 62.2546 132.662 62.2912 132.532 62.3432L132.491 62.3058C132.671 61.5845 132.831 60.8632 132.998 60.1385C133.049 59.9072 133.029 59.8629 132.998 59.8629C132.854 59.9184 132.725 60.0057 132.62 60.1181L132.569 60.0535C132.777 59.7818 133.062 59.5782 133.386 59.4683C133.501 59.4683 133.508 59.6894 133.42 60.0739L133.233 60.853C133.561 60.352 133.988 59.9236 134.488 59.5941C134.588 59.5222 134.706 59.4787 134.828 59.4683C134.971 59.4683 135.124 59.5703 134.927 60.4107C134.835 60.8462 134.733 61.2851 134.631 61.724C134.6 61.8839 134.594 61.9485 134.631 61.9485C134.781 61.8855 134.917 61.7942 135.032 61.6797L135.087 61.7614Z" fill="white"/>
<path d="M138.054 61.6593C137.537 62.2207 137.111 62.3398 136.802 62.3398C136.492 62.3398 136.159 62.1731 136.159 61.4076C136.16 61.1023 136.228 60.8011 136.358 60.5249C136.488 60.2487 136.676 60.0042 136.911 59.8085C137.152 59.6228 137.438 59.5053 137.741 59.4683C137.8 59.4655 137.859 59.4748 137.914 59.4957C137.969 59.5166 138.02 59.5486 138.062 59.5897C138.104 59.6308 138.138 59.6802 138.16 59.7348C138.183 59.7894 138.194 59.8481 138.193 59.9072C138.193 60.4685 137.224 60.8394 136.632 61.0129C136.626 61.0911 136.626 61.1695 136.632 61.2477C136.632 61.5879 136.723 62.0302 137.125 62.0302C137.465 62.0004 137.781 61.8378 138.003 61.5777L138.054 61.6593ZM137.492 59.6826C137.406 59.6795 137.32 59.6994 137.244 59.7404C137.091 59.8221 136.757 60.1419 136.649 60.9006C137.52 60.6386 137.778 60.3392 137.785 60.0398C137.785 59.8289 137.659 59.6826 137.499 59.6826H137.492Z" fill="white"/>
<path d="M141.663 61.741C141.942 61.3702 142.575 60.4788 142.579 60.0603C142.585 59.952 142.559 59.8443 142.504 59.7507C142.49 59.7302 142.482 59.7059 142.482 59.6809C142.482 59.656 142.49 59.6317 142.504 59.6112C142.522 59.5737 142.55 59.5417 142.585 59.5185C142.619 59.4952 142.66 59.4814 142.701 59.4785C142.844 59.4785 142.956 59.6112 142.95 59.8187C142.926 60.0378 142.845 60.2468 142.715 60.4243C142.443 60.8632 141.745 61.8397 141.374 62.35H141.293C141.235 61.7206 141.16 60.9891 141.075 60.3087C140.646 61.0061 140.194 61.8091 139.867 62.35H139.779C139.779 61.6696 139.734 60.8462 139.711 60.4107C139.711 60.0705 139.683 59.8834 139.602 59.8834C139.52 59.8834 139.435 59.9786 139.231 60.1828L139.173 60.1181C139.421 59.8051 139.734 59.4751 139.939 59.4751C140.041 59.4751 140.098 59.652 140.115 60.0807C140.132 60.5094 140.149 61.1762 140.156 61.5981C140.517 60.9857 140.932 60.2542 141.323 59.5568H141.412C141.487 60.2134 141.565 60.9653 141.653 61.724L141.663 61.741Z" fill="white"/>
<path d="M143.576 62.3533C143.616 62.3534 143.655 62.3453 143.692 62.3293C143.729 62.3133 143.762 62.2898 143.789 62.2604C143.816 62.2309 143.837 62.1962 143.85 62.1583C143.863 62.1204 143.868 62.0802 143.865 62.0403C143.867 62.0075 143.863 61.9745 143.852 61.9434C143.841 61.9124 143.824 61.8838 143.801 61.8596C143.779 61.8354 143.752 61.816 143.722 61.8026C143.692 61.7892 143.659 61.7821 143.627 61.7817C143.587 61.7826 143.549 61.7914 143.513 61.8075C143.477 61.8237 143.445 61.8469 143.418 61.8758C143.391 61.9047 143.371 61.9387 143.357 61.9757C143.344 62.0128 143.338 62.0521 143.341 62.0913C143.338 62.1239 143.342 62.1567 143.352 62.1877C143.362 62.2187 143.379 62.2473 143.4 62.2718C143.422 62.2963 143.448 62.3162 143.478 62.3302C143.507 62.3442 143.539 62.3521 143.572 62.3533H143.576Z" fill="white"/>
<path d="M74.1898 60.625L74.2851 60.1793C74.3871 59.6996 74.3667 59.4785 74.2442 59.4785C73.9187 59.6047 73.6331 59.8163 73.4175 60.0909L73.4617 60.1589C73.5857 60.0381 73.7326 59.9432 73.8938 59.8799C73.938 59.8799 73.9448 59.9241 73.9142 60.0909C73.8121 60.7033 73.6148 61.6151 73.4481 62.3091L73.4855 62.3466C73.6174 62.2988 73.7528 62.2613 73.8904 62.2343C73.938 61.9723 74.0231 61.53 74.1388 61.0231C74.2684 60.7408 74.4197 60.4689 74.5913 60.2099C74.7444 59.9888 74.8464 59.9105 74.9315 59.9105C74.9719 59.9138 75.0111 59.9259 75.0463 59.9459C75.0816 59.9659 75.112 59.9933 75.1356 60.0262C75.1527 60.0422 75.1752 60.0512 75.1986 60.0512C75.222 60.0512 75.2445 60.0422 75.2615 60.0262C75.3246 59.9765 75.3777 59.9153 75.418 59.8459C75.4389 59.8128 75.4499 59.7745 75.4499 59.7353C75.4499 59.6962 75.4389 59.6579 75.418 59.6248C75.3927 59.5799 75.3569 59.5419 75.3136 59.514C75.2704 59.4862 75.2209 59.4693 75.1697 59.4648C74.9587 59.4648 74.564 59.8799 74.2068 60.6114L74.1898 60.625Z" fill="white"/>
<path d="M77.9119 61.6593C77.3947 62.2207 76.966 62.3398 76.6598 62.3398C76.3536 62.3398 76.0168 62.1731 76.0168 61.4076C76.0181 61.1023 76.0861 60.8011 76.216 60.5249C76.3458 60.2487 76.5345 60.0042 76.7687 59.8085C77.0089 59.621 77.2961 59.5033 77.5988 59.4683C77.6579 59.4655 77.7168 59.4748 77.7721 59.4957C77.8273 59.5166 77.8777 59.5486 77.9202 59.5897C77.9626 59.6308 77.9961 59.6802 78.0186 59.7348C78.0412 59.7894 78.0523 59.8481 78.0513 59.9072C78.0513 60.4685 77.0817 60.8394 76.4863 61.0129C76.4824 61.0911 76.4824 61.1694 76.4863 61.2477C76.4863 61.5879 76.5748 62.0302 76.9762 62.0302C77.3177 61.9998 77.6338 61.8375 77.8574 61.5777L77.9119 61.6593ZM77.3471 59.6826C77.2606 59.6795 77.1749 59.6994 77.0987 59.7404C76.949 59.8221 76.6156 60.1419 76.5067 60.9006C77.3743 60.6386 77.6363 60.3392 77.6431 60.0398C77.6483 59.9973 77.6448 59.9541 77.633 59.9129C77.6212 59.8717 77.6012 59.8333 77.5742 59.7999C77.5472 59.7666 77.5138 59.739 77.476 59.7189C77.4381 59.6987 77.3966 59.6864 77.3539 59.6826H77.3471Z" fill="white"/>
<path d="M83.0459 61.6967C82.9375 61.8068 82.8079 61.8936 82.6648 61.9519C82.624 61.9519 82.607 61.8941 82.6648 61.7103L82.9574 60.4107C83.1547 59.5567 82.9846 59.4785 82.869 59.4785C82.7458 59.4839 82.6271 59.5266 82.5287 59.6009C82.0467 59.9038 81.634 60.3049 81.3175 60.7781L81.3788 60.4855C81.5795 59.6179 81.4298 59.4648 81.2971 59.4648C81.1748 59.4691 81.0565 59.5094 80.9569 59.5805C80.469 59.8845 80.0552 60.2937 79.7457 60.7781L79.8614 60.2984C80.0009 59.6996 80.0009 59.4648 79.8614 59.4648C79.538 59.5747 79.2525 59.7741 79.038 60.0398L79.0822 60.1011C79.2011 59.9894 79.3427 59.9046 79.4973 59.8527C79.5416 59.8527 79.5416 59.9105 79.4973 60.1385C79.3408 60.8496 79.1571 61.5879 78.9768 62.3091L79.0142 62.333C79.1488 62.2835 79.2878 62.2471 79.4293 62.2241C79.5109 61.843 79.6062 61.4348 79.6844 61.1456C79.8886 60.7271 80.6711 59.7847 80.9603 59.7847C81.0794 59.7847 81.0998 59.965 80.9909 60.4651C80.8718 61.0469 80.7051 61.6831 80.552 62.3091L80.5894 62.333C80.7239 62.2833 80.863 62.2468 81.0045 62.2241C81.076 61.8566 81.1678 61.462 81.2393 61.166C81.457 60.7135 82.26 59.8051 82.5355 59.8051C82.624 59.8051 82.675 59.8833 82.5866 60.278L82.2463 61.6695C82.1307 62.1662 82.1715 62.35 82.3178 62.35C82.6272 62.2352 82.8975 62.0345 83.0969 61.7716L83.0459 61.6967Z" fill="white"/>
<path d="M86.0773 61.6593C85.5601 62.2207 85.1349 62.3398 84.8287 62.3398C84.5225 62.3398 84.1822 62.1731 84.1822 61.4076C84.1835 61.102 84.2518 60.8004 84.3823 60.5242C84.5128 60.2479 84.7023 60.0036 84.9375 59.8085C85.1768 59.6216 85.4628 59.5039 85.7643 59.4683C85.8233 59.4655 85.8823 59.4748 85.9375 59.4957C85.9928 59.5166 86.0432 59.5486 86.0856 59.5897C86.128 59.6308 86.1615 59.6802 86.1841 59.7348C86.2067 59.7894 86.2178 59.8481 86.2168 59.9072C86.2168 60.4685 85.2471 60.8394 84.6551 61.0129C84.6499 61.0911 84.6499 61.1695 84.6551 61.2477C84.6551 61.5879 84.747 62.0302 85.1485 62.0302C85.4891 62.0004 85.8044 61.8378 86.0263 61.5777L86.0773 61.6593ZM85.5159 59.6826C85.4295 59.6795 85.3437 59.6994 85.2675 59.7404C85.1144 59.8221 84.7844 60.1419 84.6756 60.9006C85.5431 60.6386 85.8051 60.3392 85.8119 60.0398C85.8171 59.9973 85.8137 59.9541 85.8018 59.9129C85.79 59.8717 85.77 59.8333 85.743 59.7999C85.716 59.7666 85.6826 59.739 85.6448 59.7189C85.6069 59.6987 85.5654 59.6864 85.5227 59.6826H85.5159Z" fill="white"/>
<path d="M91.2725 61.775C91.0745 62.0393 90.8038 62.2403 90.4934 62.3534C90.3471 62.3534 90.3097 62.1697 90.4254 61.6729L90.7656 60.2814C90.8575 59.8867 90.803 59.8085 90.7146 59.8085C90.4356 59.8085 89.636 60.7271 89.4217 61.1694C89.3502 61.4654 89.255 61.8498 89.1835 62.2275C89.0431 62.2502 88.9052 62.2867 88.7719 62.3364L88.731 62.3126C88.8841 61.6865 89.0509 61.0503 89.1733 60.4685C89.2822 59.9786 89.2618 59.7881 89.1393 59.7881C88.8535 59.7881 88.0676 60.7203 87.8635 61.149C87.7886 61.4382 87.6933 61.8464 87.6083 62.2275C87.4678 62.25 87.3299 62.2865 87.1966 62.3364L87.1558 62.3126C87.3497 61.5913 87.5198 60.853 87.6797 60.1419C87.7308 59.914 87.7308 59.8561 87.6797 59.8561C87.5247 59.9073 87.383 59.9921 87.2647 60.1045L87.2204 60.0432C87.4349 59.7775 87.7204 59.5781 88.0438 59.4683C88.1765 59.4683 88.1765 59.703 88.0438 60.3018L87.9281 60.7815C88.2376 60.2971 88.6514 59.8879 89.1393 59.5839C89.2389 59.5128 89.3572 59.4725 89.4795 59.4683C89.6122 59.4683 89.7585 59.6078 89.5612 60.4889L89.4965 60.7815C89.813 60.3084 90.2257 59.9072 90.7078 59.6044C90.8064 59.5306 90.9249 59.4879 91.048 59.4819C91.1603 59.4819 91.3338 59.5601 91.1364 60.4141L90.8439 61.7138C90.7962 61.8975 90.8166 61.9553 90.8439 61.9553C90.9881 61.8974 91.119 61.8106 91.2283 61.7001L91.2725 61.775Z" fill="white"/>
<path d="M92.7151 57.8962C93.018 57.8417 93.3178 57.7713 93.6133 57.6853C93.6711 57.6853 93.6779 57.7295 93.6439 57.8588C93.4024 58.8421 93.2356 59.6008 93.0383 60.5296C93.6235 59.7641 94.2053 59.4783 94.4537 59.4783C94.702 59.4783 94.8245 59.713 94.8245 60.1145C94.8158 60.482 94.7241 60.8428 94.5562 61.1698C94.3882 61.4968 94.1485 61.7816 93.8549 62.0028C93.5853 62.2024 93.2641 62.3205 92.9294 62.343C92.8433 62.3372 92.7596 62.3118 92.6847 62.2687C92.6098 62.2257 92.5458 62.1661 92.4974 62.0946C92.4393 61.9778 92.4049 61.8506 92.3961 61.7204C92.3873 61.5902 92.4044 61.4595 92.4463 61.3359C92.63 60.4309 92.841 59.4817 93.0825 58.3147C93.1472 58.0017 93.1268 57.9745 92.9294 57.9575H92.7015L92.7151 57.8962ZM94.1679 59.7709C93.9059 59.7709 93.3581 60.2676 93.0009 60.7916C92.9513 60.9613 92.9126 61.134 92.8852 61.3087C92.7729 61.9892 93.0587 62.1253 93.2731 62.1253C93.3925 62.1211 93.5091 62.0884 93.6133 62.03C93.8633 61.8104 94.0607 61.5373 94.1908 61.2311C94.321 60.9248 94.3806 60.5932 94.3652 60.2608C94.3652 59.9206 94.2835 59.7709 94.1815 59.7709H94.1679Z" fill="white"/>
<path d="M97.7198 61.6593C97.2027 62.2207 96.774 62.3398 96.4712 62.3398C96.1684 62.3398 95.8248 62.1731 95.8248 61.4076C95.8261 61.1023 95.8941 60.8011 96.024 60.5249C96.1538 60.2487 96.3425 60.0042 96.5767 59.8085C96.818 59.6228 97.1046 59.5053 97.4068 59.4683C97.4658 59.4655 97.5248 59.4748 97.5801 59.4957C97.6353 59.5166 97.6857 59.5486 97.7281 59.5897C97.7705 59.6308 97.8041 59.6802 97.8266 59.7348C97.8492 59.7894 97.8603 59.8481 97.8593 59.9072C97.8593 60.4685 96.8897 60.8394 96.2977 61.0129C96.2925 61.0911 96.2925 61.1695 96.2977 61.2477C96.2977 61.5879 96.3861 62.0302 96.7876 62.0302C97.1205 61.9961 97.4275 61.8353 97.645 61.5811L97.7198 61.6593ZM97.1585 59.6826C97.072 59.6795 96.9863 59.6994 96.9101 59.7404C96.757 59.8221 96.427 60.1419 96.3181 60.9006C97.1857 60.6386 97.4442 60.3392 97.4511 60.0398C97.4511 59.8289 97.3252 59.6826 97.1653 59.6826H97.1585Z" fill="white"/>
<path d="M99.5945 60.6251C99.9347 59.8936 100.346 59.4785 100.557 59.4785C100.609 59.483 100.658 59.4998 100.701 59.5277C100.745 59.5556 100.78 59.5936 100.806 59.6384C100.826 59.6718 100.836 59.71 100.836 59.749C100.836 59.788 100.826 59.8262 100.806 59.8596C100.768 59.9295 100.715 59.9909 100.653 60.0399C100.636 60.0559 100.613 60.0648 100.59 60.0648C100.566 60.0648 100.544 60.0559 100.527 60.0399C100.503 60.0071 100.472 59.9798 100.437 59.9598C100.402 59.9399 100.363 59.9277 100.323 59.9242C100.238 59.9242 100.139 60.0025 99.9823 60.2236C99.8097 60.4825 99.6572 60.7544 99.5264 61.0367C99.4142 61.5437 99.3291 61.986 99.2781 62.248C99.1417 62.2754 99.0075 62.313 98.8766 62.3602L98.8392 62.3228C99.0059 61.6424 99.2032 60.7169 99.3053 60.1045C99.3359 59.9378 99.3291 59.8936 99.2849 59.8936C99.1237 59.9569 98.9768 60.0517 98.8528 60.1726L98.8086 60.1045C99.0235 59.8292 99.3093 59.6175 99.6353 59.4921C99.7578 59.4921 99.7748 59.7133 99.6727 60.193L99.5775 60.6387L99.5945 60.6251Z" fill="white"/>
<path d="M101.214 62.3533C101.254 62.353 101.293 62.3444 101.329 62.3282C101.366 62.312 101.398 62.2885 101.425 62.2591C101.452 62.2298 101.472 62.1952 101.485 62.1575C101.498 62.1199 101.503 62.08 101.5 62.0403C101.503 62.0076 101.499 61.9748 101.488 61.9437C101.478 61.9126 101.461 61.8841 101.439 61.8598C101.417 61.8355 101.39 61.8161 101.36 61.8026C101.33 61.7892 101.298 61.7821 101.265 61.7817C101.226 61.7821 101.187 61.7905 101.15 61.8065C101.114 61.8225 101.082 61.8458 101.055 61.8748C101.028 61.9038 101.008 61.9379 100.995 61.9752C100.982 62.0124 100.976 62.052 100.979 62.0913C100.976 62.1236 100.98 62.1561 100.99 62.1869C101 62.2177 101.016 62.2462 101.038 62.2707C101.059 62.2951 101.085 62.315 101.114 62.3292C101.143 62.3434 101.175 62.3516 101.207 62.3533H101.214Z" fill="white"/>
<path d="M105.691 60.6251C106.049 59.8936 106.443 59.4785 106.654 59.4785C106.705 59.483 106.755 59.4998 106.798 59.5277C106.841 59.5556 106.877 59.5936 106.903 59.6384C106.923 59.6718 106.933 59.71 106.933 59.749C106.933 59.788 106.923 59.8262 106.903 59.8596C106.864 59.9295 106.812 59.9909 106.749 60.0399C106.732 60.0559 106.71 60.0648 106.687 60.0648C106.663 60.0648 106.641 60.0559 106.624 60.0399C106.6 60.0071 106.569 59.9798 106.534 59.9598C106.499 59.9399 106.46 59.9277 106.419 59.9242C106.334 59.9242 106.232 60.0025 106.079 60.2236C105.909 60.4834 105.758 60.7551 105.627 61.0367C105.514 61.5437 105.429 61.986 105.378 62.248C105.242 62.275 105.108 62.3125 104.977 62.3602L104.939 62.3228C105.103 61.6424 105.303 60.7169 105.406 60.1045C105.436 59.9378 105.429 59.8936 105.385 59.8936C105.224 59.956 105.076 60.051 104.953 60.1726L104.905 60.1045C105.122 59.8296 105.409 59.618 105.736 59.4921C105.858 59.4921 105.875 59.7133 105.773 60.193L105.678 60.6387L105.691 60.6251Z" fill="white"/>
<path d="M109.383 61.6593C108.866 62.2207 108.44 62.3398 108.134 62.3398C107.828 62.3398 107.488 62.1731 107.488 61.4076C107.489 61.102 107.557 60.8004 107.688 60.5242C107.818 60.2479 108.008 60.0036 108.243 59.8085C108.482 59.6216 108.768 59.5039 109.07 59.4683C109.129 59.4655 109.188 59.4748 109.243 59.4957C109.298 59.5166 109.349 59.5486 109.391 59.5897C109.433 59.6308 109.467 59.6802 109.49 59.7348C109.512 59.7894 109.523 59.8481 109.522 59.9072C109.522 60.4685 108.556 60.8394 107.961 61.0129C107.955 61.0911 107.955 61.1695 107.961 61.2477C107.961 61.5879 108.053 62.0302 108.454 62.0302C108.795 62.0004 109.11 61.8378 109.332 61.5777L109.383 61.6593ZM108.821 59.6826C108.735 59.6795 108.649 59.6994 108.573 59.7404C108.42 59.8221 108.09 60.1419 107.981 60.9006C108.849 60.6386 109.111 60.3392 109.114 60.0398C109.114 59.8289 108.988 59.6826 108.828 59.6826H108.821Z" fill="white"/>
<path d="M111.036 59.594C111.098 59.0895 111.29 58.6098 111.594 58.2024C111.816 57.9229 112.136 57.7381 112.489 57.6853C112.68 57.6853 112.829 57.8384 112.812 57.9337C112.799 58.0282 112.748 58.1136 112.673 58.1718C112.663 58.1801 112.652 58.1862 112.64 58.1897C112.627 58.1932 112.614 58.194 112.602 58.1921C112.589 58.1902 112.577 58.1855 112.566 58.1785C112.556 58.1715 112.547 58.1622 112.54 58.1514C112.497 58.0868 112.44 58.0329 112.372 57.9939C112.305 57.955 112.23 57.9321 112.152 57.9269C111.883 57.9269 111.686 58.3045 111.472 59.594H112.152L112.033 59.713L111.421 59.7777C111.298 60.4922 111.227 60.914 111.057 61.7408C110.846 62.8057 110.679 63.1902 110.271 63.6222C110.101 63.8314 109.857 63.9667 109.59 63.9999C109.417 63.9999 109.213 63.9046 109.213 63.7617C109.222 63.714 109.242 63.6686 109.269 63.6283C109.297 63.588 109.332 63.5535 109.373 63.527C109.417 63.4964 109.444 63.5032 109.468 63.527C109.589 63.6266 109.74 63.685 109.897 63.6937C109.952 63.6917 110.007 63.6782 110.057 63.6542C110.108 63.6302 110.152 63.5962 110.189 63.5542C110.281 63.4521 110.414 63.1766 110.628 61.9245C110.802 60.9379 110.89 60.4105 111.006 59.7641H110.495V59.7267L110.669 59.594H111.036Z" fill="white"/>
<path d="M113.949 61.6831C113.712 61.9909 113.394 62.2265 113.03 62.3635C112.921 62.3635 112.846 62.2172 112.962 61.6491C113.197 60.5467 113.425 59.4478 113.642 58.3523C113.707 58.0461 113.68 58.012 113.387 58.012H113.2V57.9372C113.507 57.8838 113.809 57.8087 114.105 57.7126C114.163 57.7126 114.156 57.7773 114.139 57.8657C113.87 59.1552 113.602 60.4617 113.323 61.7886C113.299 61.9349 113.323 61.9791 113.353 61.9791C113.549 61.9069 113.726 61.7905 113.87 61.6389L113.949 61.6831Z" fill="white"/>
<path d="M116.8 61.6593C116.283 62.2207 115.854 62.3398 115.548 62.3398C115.242 62.3398 114.905 62.1731 114.905 61.4076C114.906 61.1023 114.974 60.8011 115.104 60.5249C115.234 60.2487 115.422 60.0042 115.657 59.8085C115.898 59.6228 116.185 59.5053 116.487 59.4683C116.546 59.4655 116.605 59.4748 116.66 59.4957C116.715 59.5166 116.766 59.5486 116.808 59.5897C116.85 59.6308 116.884 59.6802 116.907 59.7348C116.929 59.7894 116.94 59.8481 116.939 59.9072C116.939 60.4685 115.97 60.8394 115.378 61.0129C115.372 61.0911 115.372 61.1695 115.378 61.2477C115.378 61.5879 115.466 62.0302 115.868 62.0302C116.209 61.9998 116.525 61.8375 116.749 61.5777L116.8 61.6593ZM116.238 59.6826C116.152 59.6791 116.066 59.6991 115.99 59.7404C115.837 59.8221 115.503 60.1419 115.395 60.9006C116.262 60.6386 116.524 60.3392 116.531 60.0398C116.531 59.8289 116.405 59.6826 116.245 59.6826H116.238Z" fill="white"/>
<path d="M119.61 61.639C119.474 61.8343 119.298 61.9989 119.094 62.1219C118.89 62.245 118.662 62.3239 118.426 62.3534C118.062 62.3534 117.786 62.0404 117.786 61.4416C117.791 60.8799 118.016 60.3425 118.412 59.9446C118.676 59.6956 119.01 59.533 119.368 59.4785C119.63 59.4785 119.811 59.6316 119.811 59.7711C119.811 59.8596 119.756 59.9548 119.617 60.0263C119.579 60.0467 119.549 60.0263 119.522 59.9889C119.477 59.903 119.411 59.8308 119.328 59.7799C119.246 59.7289 119.152 59.7012 119.055 59.6997C118.879 59.6997 118.674 59.8494 118.521 60.159C118.35 60.5182 118.261 60.911 118.259 61.3089C118.259 61.7478 118.426 62.037 118.719 62.037C119.043 61.9909 119.341 61.829 119.556 61.5811L119.61 61.639Z" fill="white"/>
<path d="M122.264 59.7506H121.658L121.287 61.53C121.212 61.8702 121.25 61.9519 121.321 61.9519C121.526 61.8919 121.714 61.7847 121.869 61.6389L121.92 61.6967C121.723 61.9077 121.24 62.3398 120.95 62.3398C120.848 62.3398 120.726 62.173 120.869 61.5436L121.25 59.7506H120.797V59.7064L120.937 59.5805H121.294L121.43 59.0055L121.876 58.6177L121.927 58.6415L121.709 59.5805H122.437L122.264 59.7506Z" fill="white"/>
<path d="M123.247 62.3533C123.214 62.3521 123.182 62.3442 123.153 62.3302C123.123 62.3162 123.097 62.2963 123.075 62.2718C123.054 62.2473 123.037 62.2187 123.027 62.1877C123.017 62.1567 123.013 62.1239 123.016 62.0913C123.013 62.0518 123.019 62.0122 123.033 61.9749C123.046 61.9377 123.067 61.9035 123.094 61.8746C123.121 61.8456 123.154 61.8225 123.19 61.8065C123.226 61.7906 123.265 61.7821 123.305 61.7817C123.338 61.7821 123.37 61.7892 123.4 61.8026C123.43 61.8161 123.457 61.8355 123.479 61.8598C123.501 61.8841 123.518 61.9126 123.528 61.9437C123.539 61.9748 123.542 62.0076 123.54 62.0403C123.543 62.08 123.538 62.1199 123.525 62.1575C123.512 62.1952 123.492 62.2298 123.465 62.2591C123.438 62.2885 123.406 62.312 123.369 62.3282C123.333 62.3444 123.294 62.353 123.254 62.3533H123.247Z" fill="white"/>
<path d="M127.711 60.625L127.806 60.1793C127.908 59.6996 127.888 59.4785 127.769 59.4785C127.441 59.6034 127.154 59.8151 126.939 60.0909L126.983 60.1589C127.108 60.0378 127.256 59.9429 127.418 59.8799C127.462 59.8799 127.469 59.9241 127.435 60.0909C127.333 60.7033 127.136 61.6151 126.969 62.3091L127.01 62.3466C127.141 62.2984 127.275 62.2609 127.411 62.2343C127.462 61.9723 127.544 61.53 127.66 61.0231C127.791 60.7415 127.942 60.4697 128.112 60.2099C128.265 59.9888 128.367 59.9105 128.453 59.9105C128.493 59.9138 128.532 59.9259 128.567 59.9459C128.603 59.9659 128.633 59.9933 128.657 60.0262C128.675 60.0418 128.698 60.0503 128.721 60.0503C128.745 60.0503 128.768 60.0418 128.786 60.0262C128.848 59.9763 128.9 59.9151 128.939 59.8459C128.96 59.8128 128.971 59.7745 128.971 59.7353C128.971 59.6962 128.96 59.6579 128.939 59.6248C128.914 59.5793 128.879 59.5408 128.835 59.5129C128.792 59.4849 128.742 59.4684 128.691 59.4648C128.48 59.4648 128.085 59.8799 127.728 60.6114L127.711 60.625Z" fill="white"/>
<path d="M131.419 61.6593C130.906 62.2207 130.477 62.3398 130.171 62.3398C129.864 62.3398 129.528 62.1731 129.528 61.4076C129.529 61.1023 129.597 60.8011 129.727 60.5249C129.857 60.2487 130.045 60.0042 130.28 59.8085C130.52 59.621 130.807 59.5033 131.11 59.4683C131.169 59.4655 131.228 59.4748 131.283 59.4957C131.338 59.5166 131.389 59.5486 131.431 59.5897C131.473 59.6308 131.507 59.6802 131.529 59.7348C131.552 59.7894 131.563 59.8481 131.562 59.9072C131.562 60.4685 130.593 60.8394 130.001 61.0129C129.995 61.0911 129.995 61.1695 130.001 61.2477C130.001 61.5879 130.089 62.0302 130.49 62.0302C130.832 61.9998 131.148 61.8375 131.372 61.5777L131.419 61.6593ZM130.861 59.6826C130.775 59.6791 130.689 59.6991 130.613 59.7404C130.46 59.8221 130.126 60.1419 130.018 60.9006C130.885 60.6386 131.147 60.3392 131.154 60.0398C131.159 59.9973 131.156 59.9541 131.144 59.9129C131.132 59.8717 131.112 59.8333 131.085 59.7999C131.058 59.7666 131.025 59.739 130.987 59.7189C130.949 59.6987 130.907 59.6864 130.865 59.6826H130.861Z" fill="white"/>
<path d="M135.087 61.7614C134.879 62.0321 134.598 62.2376 134.277 62.3534C134.144 62.3534 134.114 62.1833 134.226 61.6729C134.338 61.1626 134.444 60.7509 134.546 60.2916C134.634 59.8935 134.577 59.8051 134.495 59.8051C134.226 59.8051 133.474 60.6522 133.161 61.2136C133.1 61.496 133.015 61.8601 132.937 62.2343C132.798 62.2546 132.662 62.2912 132.532 62.3432L132.491 62.3058C132.671 61.5845 132.831 60.8632 132.998 60.1385C133.049 59.9072 133.029 59.8629 132.998 59.8629C132.854 59.9184 132.725 60.0057 132.62 60.1181L132.569 60.0535C132.777 59.7818 133.062 59.5782 133.386 59.4683C133.501 59.4683 133.508 59.6894 133.42 60.0739L133.233 60.853C133.561 60.352 133.988 59.9236 134.488 59.5941C134.588 59.5222 134.706 59.4787 134.828 59.4683C134.971 59.4683 135.124 59.5703 134.927 60.4107C134.835 60.8462 134.733 61.2851 134.631 61.724C134.6 61.8839 134.594 61.9485 134.631 61.9485C134.781 61.8855 134.917 61.7942 135.032 61.6797L135.087 61.7614Z" fill="white"/>
<path d="M138.054 61.6593C137.537 62.2207 137.111 62.3398 136.802 62.3398C136.492 62.3398 136.159 62.1731 136.159 61.4076C136.16 61.1023 136.228 60.8011 136.358 60.5249C136.488 60.2487 136.676 60.0042 136.911 59.8085C137.152 59.6228 137.438 59.5053 137.741 59.4683C137.8 59.4655 137.859 59.4748 137.914 59.4957C137.969 59.5166 138.02 59.5486 138.062 59.5897C138.104 59.6308 138.138 59.6802 138.16 59.7348C138.183 59.7894 138.194 59.8481 138.193 59.9072C138.193 60.4685 137.224 60.8394 136.632 61.0129C136.626 61.0911 136.626 61.1695 136.632 61.2477C136.632 61.5879 136.723 62.0302 137.125 62.0302C137.465 62.0004 137.781 61.8378 138.003 61.5777L138.054 61.6593ZM137.492 59.6826C137.406 59.6795 137.32 59.6994 137.244 59.7404C137.091 59.8221 136.757 60.1419 136.649 60.9006C137.52 60.6386 137.778 60.3392 137.785 60.0398C137.785 59.8289 137.659 59.6826 137.499 59.6826H137.492Z" fill="white"/>
<path d="M141.663 61.741C141.942 61.3702 142.575 60.4788 142.579 60.0603C142.585 59.952 142.559 59.8443 142.504 59.7507C142.49 59.7302 142.482 59.7059 142.482 59.6809C142.482 59.656 142.49 59.6317 142.504 59.6112C142.522 59.5737 142.55 59.5417 142.585 59.5185C142.619 59.4952 142.66 59.4814 142.701 59.4785C142.844 59.4785 142.956 59.6112 142.95 59.8187C142.926 60.0378 142.845 60.2468 142.715 60.4243C142.443 60.8632 141.745 61.8397 141.374 62.35H141.293C141.235 61.7206 141.16 60.9891 141.075 60.3087C140.646 61.0061 140.194 61.8091 139.867 62.35H139.779C139.779 61.6696 139.734 60.8462 139.711 60.4107C139.711 60.0705 139.683 59.8834 139.602 59.8834C139.52 59.8834 139.435 59.9786 139.231 60.1828L139.173 60.1181C139.421 59.8051 139.734 59.4751 139.939 59.4751C140.041 59.4751 140.098 59.652 140.115 60.0807C140.132 60.5094 140.149 61.1762 140.156 61.5981C140.517 60.9857 140.932 60.2542 141.323 59.5568H141.412C141.487 60.2134 141.565 60.9653 141.653 61.724L141.663 61.741Z" fill="white"/>
<path d="M143.576 62.3533C143.616 62.3534 143.655 62.3453 143.692 62.3293C143.729 62.3133 143.762 62.2898 143.789 62.2604C143.816 62.2309 143.837 62.1962 143.85 62.1583C143.863 62.1204 143.868 62.0802 143.865 62.0403C143.867 62.0075 143.863 61.9745 143.852 61.9434C143.841 61.9124 143.824 61.8838 143.801 61.8596C143.779 61.8354 143.752 61.816 143.722 61.8026C143.692 61.7892 143.659 61.7821 143.627 61.7817C143.587 61.7826 143.549 61.7914 143.513 61.8075C143.477 61.8237 143.445 61.8469 143.418 61.8758C143.391 61.9047 143.371 61.9387 143.357 61.9757C143.344 62.0128 143.338 62.0521 143.341 62.0913C143.338 62.1239 143.342 62.1567 143.352 62.1877C143.362 62.2187 143.379 62.2473 143.4 62.2718C143.422 62.2963 143.448 62.3162 143.478 62.3302C143.507 62.3442 143.539 62.3521 143.572 62.3533H143.576Z" fill="white"/>
<path d="M0.7519 48.4245C1.40687 48.0939 2.13103 47.9237 2.86471 47.9278C4.87204 47.9278 6.34182 49.3568 6.34182 51.3097C6.34196 51.7664 6.25069 52.2185 6.07339 52.6394C5.89609 53.0603 5.63635 53.4415 5.30946 53.7604C4.98257 54.0794 4.59515 54.3297 4.17002 54.4966C3.7449 54.6635 3.29067 54.7437 2.83409 54.7323C2.11106 54.7325 1.39801 54.5635 0.7519 54.239V57.9543H0V48.0571H0.7519V48.4245ZM0.7519 53.5552C1.34541 53.8861 2.0151 54.0561 2.69459 54.0485C4.39573 54.0485 5.51167 52.97 5.51167 51.3675C5.51167 49.765 4.29026 48.6117 2.59933 48.6117C1.95281 48.6124 1.3171 48.7775 0.7519 49.0914V53.5552Z" fill="white"/>
<path d="M8.74042 51.0884C8.51928 52.7658 9.94482 54.0484 11.5405 54.0484C12.4998 54.0415 13.4261 53.697 14.1568 53.0754V53.8613C13.3714 54.446 12.4141 54.7535 11.435 54.7357C10.9716 54.7546 10.5093 54.6778 10.0769 54.51C9.64457 54.3421 9.25149 54.0869 8.92227 53.7602C8.59304 53.4336 8.33475 53.0425 8.16355 52.6115C7.99235 52.1804 7.91192 51.7187 7.92728 51.2552C7.92728 49.3295 9.28819 47.9312 11.1526 47.9312C12.6564 47.9312 14.2691 48.9076 14.2691 51.0918L8.74042 51.0884ZM13.3913 50.5203C13.1225 49.2376 12.3706 48.6116 11.1662 48.6116C10.6154 48.6008 10.0789 48.7872 9.65339 49.1372C9.22792 49.4872 8.94153 49.9777 8.84589 50.5203H13.3913Z" fill="white"/>
<path d="M16.8514 49.1968H16.882C17.5387 48.2782 18.1817 47.9277 19.199 47.9277C20.7028 47.9277 21.8153 48.8463 21.8153 50.6087V54.603H21.0634V50.8605C21.0634 49.3907 20.383 48.6014 19.1513 48.6014C18.1307 48.6014 17.4774 49.0539 16.8514 49.9997V54.5928H16.0995V48.057H16.8514V49.1968Z" fill="white"/>
<path d="M25.4625 48.0569H27.4359V48.6251H25.4625V52.5172C25.4625 53.64 25.4625 54.0483 26.5138 54.0483C26.9607 54.0448 27.4003 53.9352 27.7965 53.7285V54.4089C27.5904 54.5009 27.3763 54.5738 27.1569 54.6266C26.8892 54.6923 26.6157 54.731 26.3403 54.7423C25.5578 54.7423 24.7106 54.3341 24.7106 53.344V48.6251H22.819V48.0569H24.7106V46.4986L25.2278 45.8862H25.4625V48.0569Z" fill="white"/>
<path d="M34.7507 54.0483L34.6248 54.1367C33.9206 54.6301 33.6246 54.7321 33.3252 54.7321C33.0258 54.7321 32.8863 54.5722 32.825 53.919C32.2013 54.4281 31.4253 54.7143 30.6204 54.7321C29.5555 54.7321 28.7253 53.9905 28.7253 53.0718C28.7253 51.3707 30.7667 50.7685 32.8284 50.6903V49.8601C32.8284 48.9857 32.3113 48.5196 31.26 48.5196C30.5115 48.5196 29.9467 48.768 29.1166 49.3498V48.6353C29.7943 48.2003 30.5806 47.9645 31.3859 47.9548C32.2637 47.9548 33.5803 48.2951 33.5803 49.656V53.7387C33.5803 54.0007 33.628 54.0789 33.7505 54.0789C34.1238 53.9499 34.4699 53.7526 34.7711 53.4971L34.7507 54.0483ZM32.825 51.2652C30.9912 51.1904 29.4738 51.9457 29.4738 53.0718C29.4738 53.6842 30.0692 54.1504 30.8653 54.1504C31.5458 54.1504 32.0868 53.919 32.825 53.3032V51.2652Z" fill="white"/>
<path d="M41.6879 48.6251H40.0923C40.7727 49.2103 41.0619 49.707 41.0619 50.3602C41.0619 53.2896 37.0677 52.3301 37.0677 53.5958C37.0677 55.0247 41.6709 53.276 41.6709 56.0454C41.6709 57.2396 40.4971 57.9541 38.5238 57.9541C36.3634 57.9541 35.438 57.1375 35.438 56.2053C35.438 55.3752 36.1763 54.807 37.4793 54.6165V54.5892C36.7308 54.4293 36.3362 54.1061 36.3362 53.6536C36.3362 53.0718 36.918 52.8235 37.7481 52.5921V52.5615C36.3362 52.1838 35.8667 51.1768 35.8667 50.3908C35.8667 49.2953 36.6049 48.0569 38.8572 48.0569H41.6777L41.6879 48.6251ZM38.7109 54.9533C37.8366 54.9533 36.1593 55.069 36.1593 56.1611C36.1593 56.9334 37.02 57.3723 38.5715 57.3723C40.014 57.3723 40.953 56.8756 40.953 56.1032C40.953 55.1846 39.98 54.9533 38.7109 54.9533ZM38.4456 48.6523C38.212 48.6404 37.9785 48.6752 37.7586 48.7547C37.5386 48.8341 37.3368 48.9566 37.1647 49.115C36.9927 49.2734 36.854 49.4645 36.7567 49.6772C36.6594 49.8898 36.6055 50.1197 36.5981 50.3534C36.5624 50.7317 36.6422 51.1119 36.827 51.4438C37.0118 51.7758 37.293 52.0438 37.6334 52.2127C37.9737 52.3815 38.3573 52.4431 38.7334 52.3894C39.1095 52.3357 39.4605 52.1691 39.74 51.9118C40.0195 51.6544 40.2144 51.3183 40.2989 50.9479C40.3834 50.5775 40.3535 50.1901 40.2133 49.837C40.0731 49.4839 39.829 49.1816 39.5134 48.9701C39.1978 48.7586 38.8255 48.6478 38.4456 48.6523Z" fill="white"/>
<path d="M46.0871 54.7323C44.0457 54.7323 42.5011 53.2761 42.5011 51.33C42.5011 49.3839 44.0355 47.9277 46.0871 47.9277C48.1387 47.9277 49.6595 49.3839 49.6595 51.33C49.6595 53.2761 48.1387 54.7323 46.0871 54.7323ZM46.0871 48.6082C45.5511 48.6182 45.0299 48.7864 44.5891 49.0915C44.1483 49.3966 43.8073 49.8251 43.6091 50.3233C43.4109 50.8214 43.3643 51.367 43.475 51.8916C43.5857 52.4162 43.8489 52.8964 44.2315 53.2719C44.6141 53.6475 45.0991 53.9017 45.6256 54.0026C46.1522 54.1036 46.6968 54.0468 47.1912 53.8394C47.6855 53.632 48.1076 53.2831 48.4045 52.8367C48.7014 52.3903 48.8598 51.8661 48.8599 51.33C48.8652 50.9669 48.7967 50.6066 48.6585 50.2708C48.5203 49.935 48.3154 49.6308 48.0561 49.3766C47.7968 49.1224 47.4886 48.9235 47.1501 48.792C46.8116 48.6605 46.45 48.5991 46.0871 48.6116V48.6082Z" fill="white"/>
<path d="M52.0547 49.1968H52.0853C52.7453 48.2782 53.3849 47.9277 54.4056 47.9277C55.9094 47.9277 57.0186 48.8463 57.0186 50.6087V54.603H56.2667V50.8605C56.2667 49.3907 55.5862 48.6014 54.358 48.6014C53.3373 48.6014 52.6807 49.0539 52.0547 49.9997V54.5928H51.3027V48.057H52.0547V49.1968Z" fill="white"/>
<path d="M59.6961 49.2104H59.7301C60.3562 48.2918 61.0128 47.9277 61.9688 47.9277C63.0644 47.9277 63.7856 48.4381 64.2381 49.4996C64.9424 48.4075 65.6637 47.9277 66.681 47.9277C68.1542 47.9277 69.1238 48.9756 69.1238 50.5815V54.603H68.3855V50.8843C68.3855 49.5744 67.7901 48.6116 66.5517 48.6116C65.6909 48.6116 65.1261 49.0505 64.4219 50.1426V54.603H63.67V50.8605C63.67 49.2444 62.8092 48.6014 61.8225 48.6014C60.9618 48.6014 60.3664 48.996 59.7063 49.9997V54.5928H58.9544V48.057H59.7063L59.6961 49.2104Z" fill="white"/>
<path d="M71.5054 51.0885C71.2876 52.7658 72.7098 54.0484 74.3089 54.0484C75.2682 54.0415 76.1945 53.6971 76.9252 53.0754V53.8613C76.1397 54.446 75.1824 54.7536 74.2034 54.7357C73.7401 54.7541 73.278 54.677 72.8459 54.5089C72.4137 54.3409 72.0209 54.0857 71.6918 53.7591C71.3626 53.4325 71.1043 53.0417 70.9329 52.6109C70.7616 52.1801 70.6808 51.7186 70.6956 51.2552C70.6956 49.3295 72.0566 47.9312 73.9244 47.9312C75.4282 47.9312 77.0409 48.9076 77.0409 51.0919L71.5054 51.0885ZM76.1563 50.5203C75.8909 49.2376 75.1356 48.6116 73.9346 48.6116C73.3815 48.5975 72.8416 48.7824 72.4133 49.1327C71.985 49.483 71.6966 49.9754 71.6006 50.5203H76.1563Z" fill="white"/>
<path d="M79.5858 49.2104H79.613C80.239 48.2918 80.899 47.9277 81.8551 47.9277C82.9506 47.9277 83.6719 48.4381 84.1244 49.4996C84.8287 48.4075 85.5499 47.9277 86.5672 47.9277C88.0404 47.9277 89.01 48.9756 89.01 50.5815V54.603H88.2581V50.8843C88.2581 49.5744 87.6627 48.6116 86.4277 48.6116C85.5669 48.6116 85.0022 49.0505 84.2979 50.1426V54.603H83.546V50.8605C83.546 49.2444 82.6852 48.6014 81.6986 48.6014C80.8344 48.6014 80.239 48.996 79.5824 49.9997V54.5928H78.8305V48.057H79.5824L79.5858 49.2104Z" fill="white"/>
<path d="M94.2121 54.7323C92.1708 54.7323 90.6261 53.2761 90.6261 51.33C90.6261 49.3839 92.1606 47.9277 94.2121 47.9277C96.2637 47.9277 97.7845 49.3839 97.7845 51.33C97.7845 53.2761 96.2637 54.7323 94.2121 54.7323ZM94.2121 48.6082C93.6761 48.6182 93.155 48.7864 92.7141 49.0915C92.2733 49.3966 91.9324 49.8251 91.7342 50.3233C91.536 50.8214 91.4893 51.367 91.6 51.8916C91.7107 52.4162 91.9739 52.8964 92.3565 53.2719C92.7391 53.6475 93.2241 53.9017 93.7506 54.0026C94.2772 54.1036 94.8218 54.0468 95.3162 53.8394C95.8106 53.632 96.2327 53.2831 96.5296 52.8367C96.8264 52.3903 96.9849 51.8661 96.985 51.33C96.9902 50.9669 96.9217 50.6066 96.7835 50.2708C96.6454 49.935 96.4404 49.6308 96.1811 49.3766C95.9218 49.1224 95.6136 48.9235 95.2751 48.792C94.9367 48.6605 94.575 48.5991 94.2121 48.6116V48.6082Z" fill="white"/>
<path d="M103.861 49.3567C103.18 48.7851 102.84 48.6116 102.449 48.6116C101.769 48.6116 100.962 49.292 100.197 50.493V54.603H99.4448V48.057H100.197V49.7786H100.227C101.057 48.5538 101.901 47.9277 102.687 47.9277C103.17 47.9277 103.609 48.1319 104.3 48.7L103.861 49.3567Z" fill="white"/>
<path d="M106.225 45.8592H105.47V44.6616H106.222L106.225 45.8592ZM106.225 54.603H105.47V48.0571H106.222L106.225 54.603Z" fill="white"/>
<path d="M113.915 54.0483L113.789 54.1367C113.084 54.6301 112.788 54.7321 112.489 54.7321C112.19 54.7321 112.05 54.5722 111.989 53.919C111.364 54.4288 110.587 54.7151 109.781 54.7321C108.716 54.7321 107.886 53.9905 107.886 53.0718C107.886 51.3707 109.927 50.7685 111.989 50.6903V49.8601C111.989 48.9857 111.472 48.5196 110.42 48.5196C109.672 48.5196 109.107 48.768 108.277 49.3498V48.6353C108.955 48.2003 109.741 47.9645 110.546 47.9548C111.424 47.9548 112.741 48.2951 112.741 49.656V53.7387C112.741 54.0007 112.788 54.0789 112.911 54.0789C113.279 53.9488 113.619 53.7515 113.915 53.4971V54.0483ZM111.989 51.2652C110.155 51.1904 108.638 51.9457 108.638 53.0718C108.638 53.6842 109.233 54.1504 110.029 54.1504C110.71 54.1504 111.251 53.919 111.989 53.3032V51.2652Z" fill="white"/>
<path d="M116.17 54.603H115.418V44.6616H116.17V54.603Z" fill="white"/>
<path d="M122.778 45.4645C122.372 45.3087 121.943 45.2247 121.508 45.2161C120.335 45.2161 119.807 45.8592 119.807 47.2405V48.057H121.168V48.6252H119.807V54.603H119.059V48.6252H117.752V48.057H119.052V46.9785C119.037 46.6535 119.089 46.3287 119.206 46.0251C119.324 45.7216 119.503 45.4458 119.733 45.2155C119.963 44.9853 120.238 44.8055 120.542 44.6879C120.845 44.5702 121.17 44.5172 121.495 44.5323C121.937 44.5378 122.373 44.6315 122.778 44.8079V45.4645Z" fill="white"/>
<path d="M127.585 53.5243H127.554C126.911 54.3681 126.333 54.7321 125.237 54.7321C124.03 54.7321 122.621 54.0517 122.621 52.109V48.0569H123.373V52.0954C123.352 52.3547 123.388 52.6155 123.477 52.8599C123.566 53.1043 123.707 53.3267 123.889 53.512C124.072 53.6972 124.292 53.841 124.536 53.9335C124.779 54.0261 125.039 54.0652 125.299 54.0483C126.411 54.0483 126.976 53.5379 127.585 52.6499V48.0569H128.337V54.6028H127.585V53.5243Z" fill="white"/>
<path d="M131.048 49.1968H131.079C131.736 48.2782 132.375 47.9277 133.396 47.9277C134.9 47.9277 136.012 48.8463 136.012 50.6087V54.603H135.26V50.8605C135.26 49.3907 134.58 48.6014 133.348 48.6014C132.328 48.6014 131.671 49.0539 131.048 49.9997V54.5928H130.307V48.057H131.062L131.048 49.1968Z" fill="white"/>
<path d="M144.028 54.603H143.276V54.0961C142.75 54.4604 142.135 54.6776 141.497 54.7251C140.859 54.7727 140.219 54.6489 139.644 54.3666C139.07 54.0843 138.581 53.6537 138.228 53.1193C137.876 52.5849 137.672 51.966 137.639 51.3267C137.639 49.3738 139.142 47.9244 141.194 47.9244C141.92 47.9262 142.635 48.1061 143.276 48.4483V44.6616H144.028V54.603ZM143.276 49.2241C142.672 48.8218 141.961 48.6086 141.235 48.6117C139.609 48.6117 138.448 49.7208 138.448 51.279C138.448 52.8373 139.7 54.0485 141.391 54.0485C142.071 54.059 142.736 53.8489 143.286 53.4497L143.276 49.2241Z" fill="white"/>
<path d="M92.6539 12.4455C98.0363 11.1084 100.071 4.78018 98.2778 1.11934L95.6445 0L95.5492 0.265377C98.584 3.37164 98.6316 9.7577 92.6539 12.4455Z" fill="white"/>
<path d="M65.0887 23.7172V23.6355L64.9764 23.7206C65.0136 23.7155 65.0513 23.7144 65.0887 23.7172Z" fill="white"/>
<path d="M65.0887 23.7172V23.6355L64.9764 23.7206C65.0136 23.7155 65.0513 23.7144 65.0887 23.7172Z" fill="white"/>
<path d="M113.7 25.146L112.731 23.5095C112.469 23.0638 112.2 23.3564 111.989 24.0573L111.853 24.4928C111.496 25.3626 110.875 26.0982 110.077 26.5954L102.541 31.0966C101.779 31.5525 101.86 31.6307 102.708 31.2735L112.829 27.0139C113.687 26.6532 114.078 25.8129 113.7 25.146Z" fill="white"/>
<path d="M48.8973 9.67956L54.2117 8.42753C55.3656 8.17156 56.5334 7.98298 57.7092 7.86275L62.9079 7.39324C63.8911 7.30478 63.8911 7.16188 62.9079 7.07683L56.8008 6.53587C55.6744 6.47399 54.5482 6.66342 53.504 7.09044L48.6932 9.36655C47.8631 9.76122 47.9719 9.90071 48.8973 9.67956Z" fill="white"/>
<path d="M34.8052 16.9874L27.031 20.9034C26.2621 21.3151 26.3505 21.9241 27.2045 22.2405L32.5154 24.2138C33.3796 24.5541 33.6382 24.3533 33.087 23.809L31.5084 22.2405C31.3772 22.1108 31.2731 21.9563 31.202 21.7861C31.131 21.6159 31.0944 21.4332 31.0944 21.2488C31.0944 21.0643 31.131 20.8816 31.202 20.7114C31.2731 20.5412 31.3772 20.3867 31.5084 20.257L35.1896 17.2256C35.751 16.671 35.5741 16.5757 34.8052 16.9874Z" fill="white"/>
<path d="M79.8375 8.20281L90.16 11.2274C91.0752 11.4996 92.1708 11.2274 91.7285 10.9348C89.8402 9.7032 92.4089 10.5334 92.9805 10.7035C92.9805 10.7035 93.5759 10.8089 93.746 10.8634L100.551 13.1259C101.452 13.4253 101.731 13.1837 101.177 12.5883L99.3904 10.6763C98.6066 9.98103 97.6278 9.5439 96.5869 9.42422L79.9532 7.87279C78.9734 7.78092 78.9325 7.93062 79.8375 8.20281Z" fill="white"/>
<path d="M65.0887 23.7172V23.6355L64.9764 23.7206C65.0136 23.7155 65.0513 23.7144 65.0887 23.7172Z" fill="white"/>
<path d="M64.9594 23.707L65.0717 23.6219C65.0512 23.5247 65.0015 23.436 64.9291 23.3679C64.8567 23.2998 64.7652 23.2554 64.6669 23.2409L57.8623 22.54C57.8188 22.538 57.7764 22.5252 57.7389 22.5029C57.7014 22.4806 57.67 22.4494 57.6475 22.4121C57.625 22.3747 57.612 22.3324 57.6097 22.2889C57.6074 22.2453 57.6159 22.2019 57.6344 22.1624L58.4679 19.8965C58.5025 19.8055 58.5009 19.7048 58.4636 19.615C58.4263 19.5252 58.356 19.453 58.2672 19.4133C58.2672 19.4133 52.9495 17.9095 49.2036 16.188C46.873 16.6677 45.2501 17.5489 44.9984 18.6376C44.9804 18.7182 44.969 18.8001 44.9644 18.8826C44.9689 19.1189 45.0227 19.3517 45.1223 19.5661C45.2219 19.7805 45.3651 19.9718 45.5427 20.1278C46.9547 21.8289 50.9523 23.3259 56.4708 24.3806H56.5082L57.3248 24.5303C59.8833 25.0849 59.4478 25.9559 57.7569 26.092L56.6137 26.0682C52.6671 25.7722 45.9884 24.7073 42.4399 23.4076C39.2554 22.261 48.0706 28.6777 65.9155 29.6473L65.0921 23.7036C65.0479 23.6992 65.0034 23.7004 64.9594 23.707Z" fill="white"/>
<path d="M89.8674 15.6199L92.232 18.8316C92.2551 18.8725 92.2696 18.9178 92.2744 18.9646C92.2791 19.0113 92.2742 19.0586 92.2598 19.1033C92.2454 19.1481 92.2219 19.1894 92.1908 19.2246C92.1596 19.2598 92.1215 19.2882 92.0789 19.3079L89.7211 20.4307C89.6328 20.4748 89.5634 20.5494 89.5259 20.6408C89.4883 20.7321 89.4852 20.8339 89.517 20.9274L90.7758 24.4726C90.797 24.5107 90.8069 24.5541 90.8045 24.5976C90.8021 24.6412 90.7874 24.6832 90.7621 24.7187C90.7369 24.7543 90.7021 24.782 90.6618 24.7987C90.6214 24.8153 90.5772 24.8202 90.5343 24.8128L88.0336 24.7311C87.8052 24.7365 87.586 24.822 87.4144 24.9727L83.4609 28.8139C96.2296 27.8306 105.307 24.9013 105.334 21.2506C105.334 20.2708 104.694 19.3011 103.497 18.3995C103.442 18.3587 103.279 18.2226 103.191 18.26C103.102 18.2975 103.191 18.3723 103.191 18.3995C103.664 18.9065 104.004 19.4202 103.919 19.9544C103.63 21.6555 96.3828 21.9175 95.6172 21.4616C97.3184 20.7811 98.3765 20.019 98.6453 19.1821C98.7703 18.9897 98.843 18.7681 98.8562 18.539C98.9174 16.7835 94.9674 15.2422 90.0307 15.0925H89.8504C89.818 15.1771 89.8028 15.2674 89.8057 15.3579C89.8086 15.4485 89.8296 15.5375 89.8674 15.6199Z" fill="white"/>
<path d="M79.3919 32.284L77.9119 29.9773C77.8524 29.8934 77.7688 29.8296 77.6721 29.7944C77.5755 29.7591 77.4705 29.7541 77.3709 29.78L66.7354 33.0563C66.6926 33.0709 66.6471 33.0756 66.6022 33.0701C66.5573 33.0646 66.5143 33.0489 66.4763 33.0244C66.4383 32.9998 66.4064 32.967 66.3829 32.9283C66.3594 32.8897 66.345 32.8462 66.3408 32.8012L66.0992 31.0728L59.5533 30.6748C58.57 30.5523 58.4339 30.8177 59.247 31.2566L61.3633 32.4065C62.1832 32.8522 62.0437 33.1482 61.0536 33.087L52.8202 32.4405C51.8335 32.3657 51.7995 32.4882 52.7521 32.7195L67.9841 36.7104C68.9367 36.9417 68.9061 37.1255 67.9126 37.1255L62.2308 37.0846C61.2408 37.0846 61.1829 37.3228 62.1015 37.6188L69.066 40.5379C70.1829 40.8505 71.3491 40.9475 72.5023 40.8237L79.4123 39.4628C80.1642 39.3369 80.137 39.1566 79.3748 39.1226H72.2301C71.2434 39.0716 71.2094 38.8708 72.1654 38.6803L86.9483 35.7237C87.9009 35.5332 87.8703 35.3189 86.8802 35.2508L80.1676 34.7779C79.1809 34.7064 79.1469 34.4717 80.0825 34.2505L94.7123 30.8245C95.6479 30.6033 95.6139 30.4842 94.6306 30.5523C94.6306 30.5523 86.1011 31.1273 81.144 31.0898L79.8444 32.3555C79.8125 32.3865 79.7739 32.4098 79.7315 32.4233C79.6891 32.4368 79.6441 32.4402 79.6002 32.4332C79.5562 32.4263 79.5145 32.4092 79.4784 32.3833C79.4422 32.3574 79.4126 32.3234 79.3919 32.284Z" fill="white"/>
<path d="M47.7304 14.8134C47.533 14.7658 47.5058 14.7522 47.6964 14.7352C47.6964 14.7352 55.8618 15.5926 60.2847 13.7519C60.5807 13.6294 60.5841 13.575 60.5263 13.3913L60.2575 12.5339C60.1997 12.3502 60.3256 12.2243 60.5365 12.2549L63.8741 12.721C63.9602 12.7407 64.0506 12.7262 64.1261 12.6805C64.2017 12.6348 64.2565 12.5615 64.279 12.4761L64.7077 10.2748C64.7294 10.1888 64.784 10.1147 64.8596 10.0683C64.9352 10.0219 65.026 10.0069 65.1125 10.0264L76.2107 11.5166C76.3009 11.5371 76.3954 11.5255 76.4779 11.484C76.5605 11.4424 76.626 11.3733 76.6632 11.2887L76.8776 10.3939C76.915 10.2374 77.1225 10.1557 77.3403 10.2102L85.7949 12.34C86.0195 12.3961 86.2553 12.3879 86.4754 12.3162L87.9281 11.6799C88.0265 11.6557 88.1299 11.6619 88.2247 11.6978C88.3195 11.7336 88.4012 11.7974 88.4589 11.8807L89.0475 12.6462C89.2026 12.8348 89.4243 12.9566 89.6667 12.9864L91.2351 13.0681C91.4359 13.0681 91.4359 13.0681 91.276 13.1463C84.3762 16.637 67.967 19.597 47.7304 14.8134Z" fill="white"/>
<path d="M88.7685 16.2561C88.6844 16.0877 88.6259 15.9076 88.595 15.7219C85.9752 16.6235 81.195 17.9096 74.3054 18.3723C80.7697 19.216 86.1283 20.8049 88.8229 22.7136C88.3908 21.499 88.35 21.3799 88.35 21.3799C88.2846 21.1964 88.2513 21.0031 88.2513 20.8083C88.2507 20.4777 88.3432 20.1536 88.5183 19.8732C88.6934 19.5928 88.944 19.3674 89.2414 19.2229L90.5002 18.6241L88.8161 16.3309L88.7685 16.2561Z" fill="white"/>
</svg>
