<svg width="144" height="16" viewBox="0 0 144 16" fill="none" xmlns="http://www.w3.org/2000/svg">
<path d="M0.780719 4.432H2.02872L3.81672 11.476L5.67672 4.468H6.86472L8.71272 11.476L10.4887 4.432H11.6647L9.28872 13H8.12472L6.21672 5.836L4.34472 13H3.21672L0.780719 4.432ZM17.4922 11.26C17.3882 11.86 17.1202 12.332 16.6882 12.676C16.2642 13.02 15.6522 13.192 14.8522 13.192C13.9082 13.192 13.1842 12.908 12.6802 12.34C12.1762 11.764 11.9242 10.964 11.9242 9.94C11.9242 9.404 11.9962 8.928 12.1402 8.512C12.2842 8.096 12.4842 7.748 12.7402 7.468C13.0042 7.188 13.3162 6.976 13.6762 6.832C14.0362 6.68 14.4282 6.604 14.8522 6.604C15.3322 6.604 15.7442 6.68 16.0882 6.832C16.4322 6.984 16.7122 7.196 16.9282 7.468C17.1522 7.732 17.3162 8.048 17.4202 8.416C17.5322 8.784 17.5882 9.188 17.5882 9.628V10.156H12.9802C12.9802 10.468 13.0202 10.76 13.1002 11.032C13.1882 11.296 13.3082 11.528 13.4602 11.728C13.6202 11.92 13.8162 12.072 14.0482 12.184C14.2802 12.296 14.5482 12.352 14.8522 12.352C15.3722 12.352 15.7522 12.256 15.9922 12.064C16.2322 11.864 16.3962 11.596 16.4842 11.26H17.4922ZM16.5442 9.376C16.5442 9.08 16.5122 8.812 16.4482 8.572C16.3842 8.332 16.2842 8.128 16.1482 7.96C16.0122 7.784 15.8362 7.648 15.6202 7.552C15.4042 7.456 15.1442 7.408 14.8402 7.408C14.2882 7.408 13.8562 7.576 13.5442 7.912C13.2402 8.248 13.0602 8.736 13.0042 9.376H16.5442ZM18.972 4.432H20.016V7.66C20.272 7.324 20.568 7.064 20.904 6.88C21.24 6.696 21.636 6.604 22.092 6.604C22.532 6.604 22.916 6.684 23.244 6.844C23.58 7.004 23.856 7.228 24.072 7.516C24.296 7.804 24.46 8.148 24.564 8.548C24.676 8.94 24.732 9.376 24.732 9.856C24.732 10.368 24.668 10.832 24.54 11.248C24.412 11.656 24.228 12.004 23.988 12.292C23.748 12.58 23.456 12.804 23.112 12.964C22.776 13.116 22.396 13.192 21.972 13.192C21.612 13.192 21.26 13.12 20.916 12.976C20.58 12.824 20.276 12.568 20.004 12.208V13H18.972V4.432ZM20.004 10.072C20.004 10.472 20.048 10.816 20.136 11.104C20.232 11.384 20.36 11.616 20.52 11.8C20.68 11.984 20.872 12.12 21.096 12.208C21.32 12.288 21.564 12.328 21.828 12.328C22.084 12.328 22.32 12.284 22.536 12.196C22.76 12.108 22.952 11.968 23.112 11.776C23.272 11.576 23.396 11.32 23.484 11.008C23.58 10.696 23.628 10.316 23.628 9.868C23.628 9.412 23.576 9.032 23.472 8.728C23.376 8.416 23.248 8.168 23.088 7.984C22.928 7.8 22.744 7.668 22.536 7.588C22.336 7.508 22.128 7.468 21.912 7.468C21.64 7.468 21.388 7.516 21.156 7.612C20.924 7.7 20.72 7.836 20.544 8.02C20.376 8.196 20.244 8.424 20.148 8.704C20.052 8.976 20.004 9.292 20.004 9.652V10.072ZM26.8041 11.188C26.8761 11.62 27.0561 11.924 27.3441 12.1C27.6401 12.268 28.0401 12.352 28.5441 12.352C29.0721 12.352 29.4441 12.264 29.6601 12.088C29.8841 11.904 29.9961 11.664 29.9961 11.368C29.9961 11.248 29.9801 11.136 29.9481 11.032C29.9241 10.92 29.8721 10.824 29.7921 10.744C29.7121 10.656 29.6001 10.58 29.4561 10.516C29.3121 10.452 29.1241 10.4 28.8921 10.36L28.1001 10.24C27.7481 10.184 27.4401 10.112 27.1761 10.024C26.9121 9.936 26.6881 9.824 26.5041 9.688C26.3201 9.544 26.1801 9.372 26.0841 9.172C25.9961 8.964 25.9521 8.716 25.9521 8.428C25.9521 8.14 26.0121 7.884 26.1321 7.66C26.2601 7.436 26.4321 7.248 26.6481 7.096C26.8721 6.936 27.1321 6.816 27.4281 6.736C27.7321 6.648 28.0601 6.604 28.4121 6.604C28.8601 6.604 29.2321 6.648 29.5281 6.736C29.8321 6.824 30.0801 6.944 30.2721 7.096C30.4641 7.248 30.6121 7.428 30.7161 7.636C30.8201 7.844 30.9001 8.064 30.9561 8.296L30.0081 8.452C29.9521 8.284 29.8881 8.136 29.8161 8.008C29.7441 7.88 29.6481 7.776 29.5281 7.696C29.4081 7.608 29.2601 7.544 29.0841 7.504C28.9161 7.456 28.7041 7.432 28.4481 7.432C28.1601 7.432 27.9201 7.46 27.7281 7.516C27.5361 7.564 27.3801 7.632 27.2601 7.72C27.1481 7.808 27.0681 7.908 27.0201 8.02C26.9721 8.124 26.9481 8.236 26.9481 8.356C26.9481 8.484 26.9641 8.6 26.9961 8.704C27.0281 8.8 27.0881 8.888 27.1761 8.968C27.2641 9.04 27.3841 9.104 27.5361 9.16C27.6881 9.216 27.8841 9.264 28.1241 9.304L29.0241 9.448C29.7521 9.568 30.2721 9.776 30.5841 10.072C30.9041 10.368 31.0641 10.8 31.0641 11.368C31.0641 11.632 31.0121 11.876 30.9081 12.1C30.8041 12.316 30.6481 12.508 30.4401 12.676C30.2321 12.836 29.9721 12.96 29.6601 13.048C29.3481 13.144 28.9841 13.192 28.5681 13.192C28.1921 13.192 27.8401 13.156 27.5121 13.084C27.1921 13.012 26.9081 12.9 26.6601 12.748C26.4121 12.588 26.2121 12.38 26.0601 12.124C25.9081 11.868 25.8201 11.556 25.7961 11.188H26.8041ZM32.4257 6.796H33.4697V13H32.4257V6.796ZM32.3897 4.432H33.5057V5.644H32.3897V4.432ZM35.457 7.624H34.497V6.796H35.457V5.104H36.501V6.796H38.145V7.624H36.501V11.26C36.501 11.564 36.569 11.808 36.705 11.992C36.841 12.176 37.049 12.268 37.329 12.268C37.505 12.268 37.657 12.256 37.785 12.232C37.921 12.208 38.045 12.176 38.157 12.136L38.337 12.94C38.177 12.996 38.001 13.04 37.809 13.072C37.625 13.112 37.405 13.132 37.149 13.132C36.797 13.132 36.513 13.08 36.297 12.976C36.081 12.872 35.909 12.724 35.781 12.532C35.653 12.34 35.565 12.112 35.517 11.848C35.477 11.584 35.457 11.296 35.457 10.984V7.624ZM44.4453 11.26C44.3413 11.86 44.0733 12.332 43.6413 12.676C43.2173 13.02 42.6053 13.192 41.8053 13.192C40.8613 13.192 40.1373 12.908 39.6333 12.34C39.1293 11.764 38.8773 10.964 38.8773 9.94C38.8773 9.404 38.9493 8.928 39.0933 8.512C39.2373 8.096 39.4373 7.748 39.6933 7.468C39.9573 7.188 40.2693 6.976 40.6293 6.832C40.9893 6.68 41.3813 6.604 41.8053 6.604C42.2853 6.604 42.6973 6.68 43.0413 6.832C43.3853 6.984 43.6653 7.196 43.8813 7.468C44.1053 7.732 44.2693 8.048 44.3733 8.416C44.4853 8.784 44.5413 9.188 44.5413 9.628V10.156H39.9333C39.9333 10.468 39.9733 10.76 40.0533 11.032C40.1413 11.296 40.2613 11.528 40.4133 11.728C40.5733 11.92 40.7693 12.072 41.0013 12.184C41.2333 12.296 41.5013 12.352 41.8053 12.352C42.3253 12.352 42.7053 12.256 42.9453 12.064C43.1853 11.864 43.3493 11.596 43.4373 11.26H44.4453ZM43.4973 9.376C43.4973 9.08 43.4653 8.812 43.4013 8.572C43.3373 8.332 43.2373 8.128 43.1013 7.96C42.9653 7.784 42.7893 7.648 42.5733 7.552C42.3573 7.456 42.0973 7.408 41.7933 7.408C41.2413 7.408 40.8093 7.576 40.4973 7.912C40.1933 8.248 40.0133 8.736 39.9573 9.376H43.4973ZM48.597 4.432H49.641V7.66C49.897 7.324 50.193 7.064 50.529 6.88C50.865 6.696 51.261 6.604 51.717 6.604C52.157 6.604 52.541 6.684 52.869 6.844C53.205 7.004 53.481 7.228 53.697 7.516C53.921 7.804 54.085 8.148 54.189 8.548C54.301 8.94 54.357 9.376 54.357 9.856C54.357 10.368 54.293 10.832 54.165 11.248C54.037 11.656 53.853 12.004 53.613 12.292C53.373 12.58 53.081 12.804 52.737 12.964C52.401 13.116 52.021 13.192 51.597 13.192C51.237 13.192 50.885 13.12 50.541 12.976C50.205 12.824 49.901 12.568 49.629 12.208V13H48.597V4.432ZM49.629 10.072C49.629 10.472 49.673 10.816 49.761 11.104C49.857 11.384 49.985 11.616 50.145 11.8C50.305 11.984 50.497 12.12 50.721 12.208C50.945 12.288 51.189 12.328 51.453 12.328C51.709 12.328 51.945 12.284 52.161 12.196C52.385 12.108 52.577 11.968 52.737 11.776C52.897 11.576 53.021 11.32 53.109 11.008C53.205 10.696 53.253 10.316 53.253 9.868C53.253 9.412 53.201 9.032 53.097 8.728C53.001 8.416 52.873 8.168 52.713 7.984C52.553 7.8 52.369 7.668 52.161 7.588C51.961 7.508 51.753 7.468 51.537 7.468C51.265 7.468 51.013 7.516 50.781 7.612C50.549 7.7 50.345 7.836 50.169 8.02C50.001 8.196 49.869 8.424 49.773 8.704C49.677 8.976 49.629 9.292 49.629 9.652V10.072ZM55.4988 14.32C55.7228 14.4 55.9468 14.44 56.1708 14.44C56.4268 14.44 56.6228 14.372 56.7588 14.236C56.9028 14.108 57.0428 13.864 57.1788 13.504L57.4308 12.844L54.8028 6.796H56.0148L57.9708 11.668L59.7588 6.796H60.9108L58.1988 13.588C58.0868 13.868 57.9748 14.112 57.8628 14.32C57.7508 14.536 57.6268 14.72 57.4908 14.872C57.3548 15.024 57.1908 15.136 56.9988 15.208C56.8148 15.288 56.5868 15.328 56.3148 15.328C56.1228 15.328 55.9508 15.316 55.7988 15.292C55.6468 15.268 55.4788 15.224 55.2948 15.16L55.4988 14.32Z" fill="#9FADAC"/>
<g clip-path="url(#clip0)">
<path d="M71.9763 7.75599C71.8339 7.24751 71.5492 6.77972 71.1831 6.39327C70.4915 5.72209 69.5559 5.37633 68.6 5.417C67.6644 5.45768 66.8915 5.9865 66.7492 6.2509V2.32548H65V9.68819C64.9797 10.3187 65.061 10.9695 65.2237 11.5797C65.3661 12.0882 65.6509 12.5763 66.017 12.9628C66.322 13.2679 66.7085 13.5119 67.1153 13.6746C67.5831 13.8577 68.0915 13.939 68.5797 13.939C69.0881 13.939 69.5966 13.8577 70.0644 13.6746C70.4712 13.5119 70.8576 13.2679 71.1627 12.9628C71.5492 12.5763 71.8136 12.1085 71.9559 11.6001C72.1186 10.9695 72.1797 10.339 72.1797 9.68819C72.2203 9.017 72.139 8.36616 71.9763 7.75599ZM70.3492 11.0509C70.2881 11.3967 70.1254 11.7017 69.861 11.9458C69.5153 12.2712 69.0678 12.4543 68.5797 12.434C68.1119 12.4543 67.6441 12.2712 67.3186 11.9458C67.0746 11.7017 66.9119 11.3763 66.8305 11.0509C66.7492 10.6034 66.7085 10.156 66.7085 9.68819V9.56616C66.7085 9.13904 66.7492 8.71192 66.8305 8.30514C66.8915 7.95938 67.0542 7.65429 67.3186 7.41022C67.6441 7.0848 68.1119 6.92209 68.5797 6.92209C69.0475 6.90175 69.5153 7.0848 69.861 7.41022C70.1051 7.65429 70.2678 7.97972 70.3492 8.30514C70.4305 8.7526 70.4712 9.22039 70.4712 9.68819C70.4712 10.1356 70.4305 10.5831 70.3492 11.0509ZM94.0441 9.54582C94.0237 10.1967 94.1051 10.8272 94.2678 11.4577C94.4102 11.9662 94.6949 12.434 95.061 12.8204C95.3864 13.1255 95.7525 13.3695 96.1593 13.5323C97.1153 13.8984 98.1729 13.8984 99.1085 13.5323C99.5153 13.3695 99.8814 13.1255 100.207 12.8204C100.593 12.434 100.858 11.9662 101 11.4577C101.163 10.8272 101.224 10.1967 101.224 9.56616V2.18311H99.4949V6.10853C99.3525 5.84412 98.5797 5.31531 97.6441 5.27463C96.6678 5.23395 95.7322 5.60005 95.061 6.2509C94.6746 6.63734 94.4102 7.10514 94.2678 7.61361C94.1051 8.24412 94.0441 8.89497 94.0441 9.54582ZM95.7932 9.54582C95.7932 9.07802 95.8339 8.63056 95.9153 8.16277C95.9763 7.817 96.139 7.51192 96.4034 7.26785C97.1153 6.63734 98.2339 6.63734 98.9458 7.26785C99.1898 7.51192 99.3525 7.83734 99.4339 8.16277C99.5153 8.58988 99.5559 8.99666 99.5559 9.42378V9.54582C99.5559 9.99327 99.5153 10.4611 99.4339 10.9085C99.3729 11.2543 99.2102 11.5594 98.9458 11.8238C98.6203 12.1492 98.1525 12.3323 97.6847 12.3119C97.1966 12.3323 96.7492 12.1492 96.4034 11.8238C96.1593 11.5797 95.9966 11.2543 95.9153 10.9289C95.8136 10.4611 95.7729 9.99327 95.7932 9.54582ZM124.919 7.73565C124.776 7.22717 124.492 6.75938 124.125 6.37294C123.8 6.06785 123.434 5.82378 123.007 5.66107C122.539 5.45768 122.031 5.37633 121.522 5.39666C120.586 5.43734 119.814 5.96616 119.671 6.23056V2.32548H117.942V9.68819C117.922 10.3187 118.003 10.9695 118.166 11.5797C118.431 12.5153 119.122 13.3085 120.058 13.6746C121.014 14.0407 122.071 14.0407 123.007 13.6746C123.414 13.5119 123.8 13.2679 124.105 12.9628C124.492 12.5763 124.756 12.1085 124.898 11.6001C125.061 10.9695 125.122 10.339 125.122 9.68819C125.142 9.017 125.081 8.3865 124.919 7.73565ZM123.292 11.0306C123.231 11.3763 123.068 11.6814 122.803 11.9255C122.458 12.2509 122.01 12.434 121.522 12.4136C121.054 12.434 120.586 12.2509 120.261 11.9255C120.017 11.6814 119.854 11.356 119.773 11.0306C119.692 10.5831 119.651 10.1356 119.651 9.66785V9.54582C119.651 9.1187 119.692 8.69158 119.773 8.2848C119.834 7.93904 119.997 7.63395 120.261 7.38988C120.586 7.06446 121.054 6.90175 121.522 6.90175C121.99 6.88141 122.458 7.06446 122.803 7.38988C123.047 7.63395 123.21 7.95938 123.292 8.2848C123.373 8.73226 123.414 9.20005 123.414 9.66785C123.414 10.1356 123.373 10.5831 123.292 11.0306ZM78.5458 9.99327C78.5458 10.7255 78.7492 11.295 79.1153 11.7221C79.522 12.1492 80.1322 12.3933 80.722 12.3526C81.1085 12.3729 81.5153 12.2916 81.8814 12.1492C82.2271 11.9865 82.5525 11.7628 82.817 11.4984L83.9153 12.495C83.5085 12.9017 83.0203 13.2475 82.4915 13.4916C81.922 13.7153 81.3119 13.817 80.6814 13.7967C80.1525 13.7967 79.6237 13.7153 79.1153 13.5526C78.6475 13.4102 78.2407 13.1458 77.8949 12.8204C77.5288 12.434 77.2441 11.9865 77.0814 11.478C76.8576 10.8475 76.7559 10.156 76.7763 9.4848C76.7763 8.14243 77.1017 7.0848 77.7729 6.33226C78.4441 5.57972 79.4203 5.17294 80.4373 5.19327C81.5763 5.19327 82.4915 5.55938 83.122 6.29158C83.7525 7.02378 84.0983 8.00005 84.0983 9.20005V9.93226H78.5458V9.99327ZM82.3492 8.20344C82.3085 8.02039 82.2475 7.83734 82.1661 7.67463C82.0237 7.36955 81.8 7.0848 81.5153 6.90175C81.2102 6.69836 80.8441 6.59666 80.478 6.617C80.1119 6.617 79.7458 6.7187 79.4203 6.90175C79.1356 7.0848 78.8915 7.34921 78.7695 7.67463C78.6881 7.83734 78.6475 8.00005 78.6068 8.16277C78.5661 8.36616 78.5458 8.58988 78.5458 8.79327H82.4102C82.4102 8.61022 82.3898 8.40683 82.3492 8.20344ZM90.8509 13.6543V8.56955C90.8509 7.93904 90.6881 7.47124 90.3831 7.16616C90.0576 6.84073 89.5898 6.67802 89.1424 6.69836C88.6746 6.67802 88.2068 6.86107 87.8814 7.16616C87.5559 7.47124 87.3932 7.93904 87.3932 8.54921V13.634H85.6644V5.29497H87.3525V6.14921C87.9424 5.5187 88.7559 5.19327 89.6305 5.21361C90.4034 5.17294 91.1559 5.45768 91.7458 5.96616C92.0509 6.2509 92.2746 6.59666 92.417 6.98311C92.5593 7.41022 92.6203 7.85768 92.6203 8.30514V13.634H90.8509V13.6543ZM104.336 9.99327C104.336 10.7255 104.519 11.295 104.905 11.7221C105.312 12.1492 105.922 12.3933 106.532 12.3526C106.919 12.3729 107.325 12.2916 107.692 12.1492C108.037 11.9865 108.363 11.7628 108.627 11.4984L109.725 12.495C109.319 12.9017 108.831 13.2475 108.302 13.4916C107.732 13.7153 107.102 13.817 106.492 13.7967C105.963 13.7967 105.434 13.7153 104.946 13.5729C104.478 13.4306 104.071 13.1662 103.725 12.8407C103.359 12.4543 103.075 12.0068 102.892 11.4984C102.688 10.8475 102.586 10.1763 102.607 9.50514C102.607 8.16277 102.932 7.10514 103.603 6.3526C104.275 5.60005 105.251 5.17294 106.268 5.21361C107.407 5.21361 108.322 5.57972 108.953 6.31192C109.583 7.04412 109.929 8.02039 109.929 9.22039V9.9526H104.336V9.99327ZM108.139 8.20344C108.098 8.02039 108.037 7.83734 107.956 7.67463C107.814 7.36955 107.59 7.0848 107.305 6.90175C107 6.69836 106.634 6.617 106.268 6.617C105.902 6.617 105.536 6.7187 105.231 6.90175C104.946 7.0848 104.702 7.34921 104.58 7.67463C104.498 7.83734 104.458 8.00005 104.417 8.16277C104.376 8.36616 104.356 8.58988 104.356 8.79327H108.22C108.2 8.61022 108.18 8.40683 108.139 8.20344ZM116.071 7.26785C115.908 7.10514 115.705 6.96277 115.481 6.84073C115.258 6.73904 115.014 6.69836 114.769 6.69836C114.302 6.69836 113.854 6.88141 113.549 7.20683C113.203 7.57294 113.02 8.06107 113.041 8.56955V13.634H111.292V5.29497H113V6.21022C113.264 5.8848 113.59 5.64073 113.976 5.47802C114.403 5.29497 114.851 5.19327 115.319 5.19327C115.705 5.19327 116.092 5.25429 116.458 5.37633C116.824 5.5187 117.129 5.72209 117.393 5.9865L116.071 7.26785ZM133.319 11.4373C133.176 11.9458 132.892 12.434 132.525 12.8204C132.2 13.1255 131.834 13.3695 131.427 13.5323C130.471 13.8984 129.434 13.8984 128.478 13.5323C127.542 13.1662 126.831 12.3729 126.586 11.4373C126.424 10.8068 126.363 10.156 126.363 9.50514C126.342 8.85429 126.424 8.20344 126.586 7.57294C126.851 6.63734 127.563 5.86446 128.478 5.47802C128.946 5.29497 129.454 5.21361 129.942 5.21361C130.451 5.21361 130.959 5.29497 131.427 5.47802C131.854 5.64073 132.22 5.90514 132.525 6.21022C132.912 6.59666 133.176 7.06446 133.319 7.57294C133.481 8.20344 133.542 8.85429 133.542 9.50514C133.563 10.156 133.481 10.8068 133.319 11.4373ZM131.692 8.12209C131.631 7.77633 131.468 7.47124 131.203 7.20683C130.492 6.55599 129.393 6.55599 128.661 7.20683C128.417 7.4509 128.254 7.77633 128.193 8.12209C128.112 8.58989 128.071 9.03734 128.071 9.50514C128.071 9.97294 128.112 10.4407 128.193 10.8882C128.254 11.234 128.417 11.539 128.661 11.7831C129.373 12.434 130.492 12.434 131.203 11.7831C131.447 11.539 131.631 11.2136 131.692 10.8679C131.773 10.4001 131.814 9.9526 131.814 9.4848C131.814 9.03734 131.793 8.58989 131.692 8.12209ZM139.298 13.6543L137.488 10.8272L135.658 13.6543H133.542L136.532 9.40344L133.664 5.33565H135.78L137.488 8.04073L139.176 5.33565H141.292L138.444 9.40344L141.414 13.6543H139.298ZM73.6848 2.18311H75.4542V13.6543H73.6848V2.18311ZM141.353 3.26107H143.447V5.29497H141.353V3.26107Z" fill="white"/>
</g>
<defs>
<clipPath id="clip0">
<rect width="78.5085" height="12" fill="white" transform="translate(65 2)"/>
</clipPath>
</defs>
</svg>
