<svg width="18" height="22" viewBox="0 0 18 22" fill="none" xmlns="http://www.w3.org/2000/svg">
<path fill-rule="evenodd" clip-rule="evenodd" d="M9.00002 12.4763C6.92895 12.4763 5.25002 10.7974 5.25002 8.72632C5.25002 6.65525 6.92895 4.97632 9.00002 4.97632C11.0711 4.97632 12.75 6.65525 12.75 8.72632C12.7477 10.7964 11.0701 12.474 9.00002 12.4763ZM9.00002 6.47632C7.75738 6.47632 6.75002 7.48368 6.75002 8.72632C6.75002 9.96896 7.75738 10.9763 9.00002 10.9763C10.2427 10.9763 11.25 9.96896 11.25 8.72632C11.2487 7.48424 10.2421 6.47768 9.00002 6.47632ZM9.00002 21.4763L2.67339 14.0148C2.63747 13.972 2.41224 13.6762 2.41224 13.6762C1.33142 12.2526 0.747483 10.5137 0.750008 8.72632C0.750008 4.16997 4.44367 0.476318 9.00002 0.476318C13.5564 0.476318 17.25 4.16997 17.25 8.72632C17.2527 10.513 16.6692 12.2512 15.5889 13.6743L15.5878 13.6762C15.5878 13.6762 15.3628 13.972 15.3293 14.0117L9.00002 21.4763ZM3.60939 12.7726C3.61014 12.7731 3.78444 13.0037 3.82434 13.0534L9.00002 19.1572L14.1825 13.0447C14.2154 13.0033 14.3912 12.7711 14.3916 12.7705C15.2746 11.6073 15.7517 10.1867 15.75 8.72632C15.75 4.9984 12.7279 1.97632 9.00002 1.97632C5.27209 1.97632 2.25001 4.9984 2.25001 8.72632C2.24836 10.1875 2.72588 11.6088 3.60939 12.7726Z" fill="#233746"/>
</svg>
