<svg width="24" height="24" viewBox="0 0 24 24" fill="none" xmlns="http://www.w3.org/2000/svg">
<path d="M8.9333 2C8.82824 1.99998 8.7242 2.02067 8.62714 2.06086C8.53007 2.10106 8.44187 2.15999 8.36758 2.23428C8.29329 2.30857 8.23436 2.39677 8.19416 2.49383C8.15397 2.5909 8.13328 2.69494 8.1333 2.8V21.2C8.1333 21.4122 8.21759 21.6157 8.36762 21.7657C8.51765 21.9157 8.72113 22 8.9333 22C9.14548 22 9.34896 21.9157 9.49899 21.7657C9.64902 21.6157 9.73331 21.4122 9.73331 21.2V2.8C9.73332 2.69494 9.71264 2.5909 9.67244 2.49383C9.63224 2.39677 9.57332 2.30857 9.49903 2.23428C9.42474 2.15999 9.33654 2.10106 9.23947 2.06086C9.1424 2.02066 9.03837 1.99998 8.9333 2Z" fill="#233746"/>
<path d="M5.86641 5.57776C5.76135 5.57774 5.65731 5.59842 5.56024 5.63862C5.46317 5.67882 5.37497 5.73775 5.30068 5.81204C5.22639 5.88633 5.16747 5.97452 5.12727 6.07159C5.08707 6.16866 5.06639 6.2727 5.06641 6.37776V17.6223C5.06641 17.8345 5.15069 18.0379 5.30072 18.188C5.45075 18.338 5.65423 18.4223 5.86641 18.4223C6.07858 18.4223 6.28207 18.338 6.43209 18.188C6.58212 18.0379 6.66641 17.8345 6.66641 17.6223V6.37776C6.66643 6.2727 6.64575 6.16866 6.60555 6.07159C6.56535 5.97452 6.50642 5.88633 6.43213 5.81204C6.35784 5.73775 6.26964 5.67882 6.17258 5.63862C6.07551 5.59842 5.97147 5.57774 5.86641 5.57776Z" fill="#233746"/>
<path d="M12 5.57776C11.8949 5.57774 11.7909 5.59842 11.6938 5.63862C11.5967 5.67882 11.5085 5.73775 11.4342 5.81204C11.3599 5.88633 11.301 5.97452 11.2608 6.07159C11.2206 6.16866 11.1999 6.2727 11.2 6.37776V17.6223C11.2 17.8345 11.2842 18.0379 11.4343 18.188C11.5843 18.338 11.7878 18.4223 12 18.4223C12.2121 18.4223 12.4156 18.338 12.5656 18.188C12.7157 18.0379 12.8 17.8345 12.8 17.6223V6.37776C12.8 6.2727 12.7793 6.16866 12.7391 6.07159C12.6989 5.97452 12.64 5.88633 12.5657 5.81204C12.4914 5.73775 12.4032 5.67882 12.3061 5.63862C12.2091 5.59842 12.105 5.57774 12 5.57776Z" fill="#233746"/>
<path d="M18.1333 5.57776C18.0282 5.57774 17.9242 5.59842 17.8271 5.63862C17.73 5.67882 17.6418 5.73775 17.5675 5.81204C17.4932 5.88633 17.4343 5.97452 17.3941 6.07159C17.3539 6.16866 17.3332 6.2727 17.3333 6.37776V17.6223C17.3333 17.8345 17.4175 18.0379 17.5676 18.188C17.7176 18.338 17.9211 18.4223 18.1333 18.4223C18.3454 18.4223 18.5489 18.338 18.6989 18.188C18.849 18.0379 18.9333 17.8345 18.9333 17.6223V6.37776C18.9333 6.2727 18.9126 6.16866 18.8724 6.07159C18.8322 5.97452 18.7733 5.88633 18.699 5.81204C18.6247 5.73775 18.5365 5.67882 18.4394 5.63862C18.3424 5.59842 18.2383 5.57774 18.1333 5.57776Z" fill="#233746"/>
<path d="M15.0664 8.64417C14.9613 8.64415 14.8573 8.66483 14.7602 8.70503C14.6631 8.74522 14.5749 8.80415 14.5006 8.87844C14.4263 8.95273 14.3674 9.04093 14.3272 9.138C14.287 9.23507 14.2663 9.3391 14.2664 9.44416V14.5554C14.2664 14.7675 14.3506 14.971 14.5007 15.1211C14.6507 15.2711 14.8542 15.3554 15.0664 15.3554C15.2785 15.3554 15.482 15.2711 15.632 15.1211C15.7821 14.971 15.8664 14.7675 15.8664 14.5554V9.44416C15.8664 9.3391 15.8457 9.23507 15.8055 9.138C15.7653 9.04093 15.7064 8.95273 15.6321 8.87844C15.5578 8.80415 15.4696 8.74523 15.3725 8.70503C15.2755 8.66483 15.1714 8.64415 15.0664 8.64417Z" fill="#233746"/>
<path d="M21.1999 8.64417C21.0948 8.64415 20.9908 8.66483 20.8937 8.70503C20.7967 8.74523 20.7085 8.80415 20.6342 8.87844C20.5599 8.95273 20.501 9.04093 20.4608 9.138C20.4206 9.23507 20.3999 9.3391 20.3999 9.44416V14.5554C20.3999 14.7675 20.4842 14.971 20.6342 15.1211C20.7842 15.2711 20.9877 15.3554 21.1999 15.3554C21.4121 15.3554 21.6156 15.2711 21.7656 15.1211C21.9156 14.971 21.9999 14.7675 21.9999 14.5554V9.44416C21.9999 9.3391 21.9792 9.23507 21.939 9.138C21.8988 9.04093 21.8399 8.95273 21.7656 8.87844C21.6913 8.80415 21.6031 8.74523 21.5061 8.70503C21.409 8.66483 21.305 8.64415 21.1999 8.64417Z" fill="#233746"/>
<path d="M2.8 8.64417C2.69494 8.64415 2.5909 8.66483 2.49383 8.70503C2.39677 8.74523 2.30857 8.80415 2.23428 8.87844C2.15999 8.95273 2.10106 9.04093 2.06086 9.138C2.02066 9.23507 1.99998 9.3391 2 9.44416V14.5554C2 14.6604 2.02069 14.7645 2.0609 14.8615C2.1011 14.9586 2.16003 15.0468 2.23432 15.1211C2.3086 15.1953 2.39679 15.2543 2.49385 15.2945C2.59091 15.3347 2.69494 15.3554 2.8 15.3554C2.90506 15.3554 3.00909 15.3347 3.10615 15.2945C3.20321 15.2543 3.2914 15.1953 3.36569 15.1211C3.43997 15.0468 3.4989 14.9586 3.5391 14.8615C3.57931 14.7645 3.6 14.6604 3.6 14.5554V9.44416C3.60002 9.3391 3.57934 9.23507 3.53914 9.138C3.49894 9.04093 3.44001 8.95273 3.36572 8.87844C3.29143 8.80415 3.20323 8.74523 3.10617 8.70503C3.0091 8.66483 2.90506 8.64415 2.8 8.64417Z" fill="#233746"/>
</svg>
