<svg width="18" height="14" viewBox="0 0 18 14" fill="none" xmlns="http://www.w3.org/2000/svg">
<path fill-rule="evenodd" clip-rule="evenodd" d="M5.94 13.705C8.49893 13.7211 10.9577 12.7117 12.7672 10.9022C14.5767 9.0927 15.5861 6.63391 15.57 4.07498V3.63248C16.2267 3.15135 16.7951 2.56011 17.25 1.88498C16.6316 2.15543 15.9773 2.33479 15.3075 2.41748C16.0177 1.99431 16.5506 1.32823 16.8075 0.542479C16.1456 0.93956 15.4199 1.21871 14.6625 1.36748C13.6139 0.250147 11.9461 -0.0248318 10.5943 0.696719C9.24249 1.41827 8.54278 2.95693 8.8875 4.44998C6.16635 4.31641 3.63036 3.03206 1.9125 0.917479C1.02372 2.46006 1.4828 4.42754 2.9625 5.41748C2.43646 5.39719 1.92259 5.25331 1.4625 4.99748V5.03498C1.45287 6.63581 2.56204 8.02618 4.125 8.37248C3.63573 8.50408 3.12322 8.52457 2.625 8.43248C3.07495 9.79008 4.33014 10.718 5.76 10.75C4.56691 11.7104 3.08407 12.239 1.5525 12.25C1.28396 12.2422 1.01606 12.2197 0.75 12.1825C2.30022 13.1702 4.1019 13.6909 5.94 13.6825" fill="white"/>
</svg>
