<svg width="18" height="22" viewBox="0 0 18 22" fill="none" xmlns="http://www.w3.org/2000/svg">
<path fill-rule="evenodd" clip-rule="evenodd" d="M9.00002 12.5C6.92895 12.5 5.25002 10.8211 5.25002 8.75C5.25002 6.67893 6.92895 5 9.00002 5C11.0711 5 12.75 6.67893 12.75 8.75C12.7477 10.8201 11.0701 12.4976 9.00002 12.5ZM9.00002 6.5C7.75738 6.5 6.75002 7.50736 6.75002 8.75C6.75002 9.99264 7.75738 11 9.00002 11C10.2427 11 11.25 9.99264 11.25 8.75C11.2487 7.50793 10.2421 6.50136 9.00002 6.5ZM9.00002 21.5L2.67339 14.0385C2.63747 13.9957 2.41224 13.6999 2.41224 13.6999C1.33142 12.2763 0.747483 10.5374 0.750008 8.75C0.750008 4.19365 4.44367 0.5 9.00002 0.5C13.5564 0.5 17.25 4.19365 17.25 8.75C17.2527 10.5367 16.6692 12.2749 15.5889 13.698L15.5878 13.6999C15.5878 13.6999 15.3628 13.9957 15.3293 14.0354L9.00002 21.5ZM3.60939 12.7963C3.61014 12.7968 3.78444 13.0274 3.82434 13.0771L9.00002 19.1809L14.1825 13.0684C14.2154 13.027 14.3912 12.7948 14.3916 12.7942C15.2746 11.631 15.7517 10.2103 15.75 8.75C15.75 5.02208 12.7279 2 9.00002 2C5.27209 2 2.25001 5.02208 2.25001 8.75C2.24836 10.2111 2.72588 11.6325 3.60939 12.7963Z" fill="white"/>
</svg>
