<svg width="20" height="20" viewBox="0 0 20 20" fill="none" xmlns="http://www.w3.org/2000/svg">
<path d="M6.93343 1.01755e-08C6.82836 -1.65908e-05 6.72433 0.0206654 6.62726 0.0608633C6.53019 0.101061 6.44199 0.159988 6.3677 0.234278C6.29341 0.308568 6.23448 0.396767 6.19429 0.493835C6.15409 0.590903 6.13341 0.694939 6.13342 0.800002V19.2C6.13342 19.4122 6.21771 19.6157 6.36774 19.7657C6.51777 19.9157 6.72125 20 6.93343 20C7.1456 20 7.34908 19.9157 7.49911 19.7657C7.64914 19.6157 7.73343 19.4122 7.73343 19.2V0.8C7.73344 0.694937 7.71276 0.590901 7.67257 0.493833C7.63237 0.396765 7.57344 0.308568 7.49915 0.234278C7.42486 0.159988 7.33666 0.10106 7.23959 0.0608624C7.14252 0.0206646 7.03849 -1.67474e-05 6.93343 1.01755e-08Z" fill="white"/>
<path d="M3.86647 3.57776C3.76141 3.57774 3.65737 3.59842 3.5603 3.63862C3.46323 3.67882 3.37504 3.73775 3.30075 3.81204C3.22646 3.88633 3.16753 3.97452 3.12733 4.07159C3.08713 4.16866 3.06645 4.2727 3.06647 4.37776V15.6223C3.06647 15.8345 3.15075 16.0379 3.30078 16.188C3.45081 16.338 3.6543 16.4223 3.86647 16.4223C4.07864 16.4223 4.28213 16.338 4.43216 16.188C4.58218 16.0379 4.66647 15.8345 4.66647 15.6223V4.37776C4.66649 4.2727 4.64581 4.16866 4.60561 4.07159C4.56541 3.97452 4.50648 3.88633 4.43219 3.81204C4.3579 3.73775 4.2697 3.67882 4.17264 3.63862C4.07557 3.59842 3.97153 3.57774 3.86647 3.57776Z" fill="white"/>
<path d="M9.99989 3.57776C9.89483 3.57774 9.79079 3.59842 9.69372 3.63862C9.59666 3.67882 9.50846 3.73775 9.43417 3.81204C9.35988 3.88633 9.30095 3.97452 9.26075 4.07159C9.22055 4.16866 9.19987 4.2727 9.19989 4.37776V15.6223C9.19989 15.8345 9.28418 16.0379 9.43421 16.188C9.58423 16.338 9.78772 16.4223 9.99989 16.4223C10.2121 16.4223 10.4155 16.338 10.5656 16.188C10.7156 16.0379 10.7999 15.8345 10.7999 15.6223V4.37776C10.7999 4.2727 10.7792 4.16866 10.739 4.07159C10.6988 3.97452 10.6399 3.88633 10.5656 3.81204C10.4913 3.73775 10.4031 3.67882 10.3061 3.63862C10.209 3.59842 10.105 3.57774 9.99989 3.57776Z" fill="white"/>
<path d="M16.1333 3.57776C16.0283 3.57774 15.9242 3.59842 15.8271 3.63862C15.7301 3.67882 15.6419 3.73775 15.5676 3.81204C15.4933 3.88633 15.4344 3.97452 15.3942 4.07159C15.354 4.16866 15.3333 4.2727 15.3333 4.37776V15.6223C15.3333 15.8345 15.4176 16.0379 15.5676 16.188C15.7177 16.338 15.9211 16.4223 16.1333 16.4223C16.3455 16.4223 16.549 16.338 16.699 16.188C16.849 16.0379 16.9333 15.8345 16.9333 15.6223V4.37776C16.9333 4.2727 16.9126 4.16866 16.8725 4.07159C16.8323 3.97452 16.7733 3.88633 16.699 3.81204C16.6247 3.73775 16.5365 3.67882 16.4395 3.63862C16.3424 3.59842 16.2384 3.57774 16.1333 3.57776Z" fill="white"/>
<path d="M13.0664 6.64417C12.9614 6.64415 12.8573 6.66483 12.7603 6.70503C12.6632 6.74522 12.575 6.80415 12.5007 6.87844C12.4264 6.95273 12.3675 7.04093 12.3273 7.138C12.2871 7.23507 12.2664 7.3391 12.2664 7.44416V12.5554C12.2664 12.7675 12.3507 12.971 12.5007 13.1211C12.6508 13.2711 12.8542 13.3554 13.0664 13.3554C13.2786 13.3554 13.4821 13.2711 13.6321 13.1211C13.7821 12.971 13.8664 12.7675 13.8664 12.5554V7.44416C13.8664 7.3391 13.8458 7.23507 13.8056 7.138C13.7654 7.04093 13.7064 6.95273 13.6321 6.87844C13.5579 6.80415 13.4697 6.74523 13.3726 6.70503C13.2755 6.66483 13.1715 6.64415 13.0664 6.64417Z" fill="white"/>
<path d="M19.1998 6.64417C19.0947 6.64415 18.9907 6.66483 18.8936 6.70503C18.7965 6.74523 18.7083 6.80415 18.6341 6.87844C18.5598 6.95273 18.5008 7.04093 18.4606 7.138C18.4204 7.23507 18.3998 7.3391 18.3998 7.44416V12.5554C18.3998 12.7675 18.4841 12.971 18.6341 13.1211C18.7841 13.2711 18.9876 13.3554 19.1998 13.3554C19.412 13.3554 19.6154 13.2711 19.7655 13.1211C19.9155 12.971 19.9998 12.7675 19.9998 12.5554V7.44416C19.9998 7.3391 19.9791 7.23507 19.9389 7.138C19.8987 7.04093 19.8398 6.95273 19.7655 6.87844C19.6912 6.80415 19.603 6.74523 19.5059 6.70503C19.4089 6.66483 19.3048 6.64415 19.1998 6.64417Z" fill="white"/>
<path d="M0.8 6.64417C0.694938 6.64415 0.590902 6.66483 0.493834 6.70503C0.396766 6.74523 0.308568 6.80415 0.234278 6.87844C0.159988 6.95273 0.10106 7.04093 0.0608624 7.138C0.0206645 7.23507 -1.67474e-05 7.3391 1.01756e-08 7.44416V12.5554C5.74774e-09 12.6604 0.0206932 12.7645 0.0608969 12.8615C0.101101 12.9586 0.160028 13.0468 0.234315 13.1211C0.308602 13.1953 0.396793 13.2543 0.493854 13.2945C0.590914 13.3347 0.694943 13.3554 0.8 13.3554C0.905058 13.3554 1.00909 13.3347 1.10615 13.2945C1.20321 13.2543 1.2914 13.1953 1.36569 13.1211C1.43997 13.0468 1.4989 12.9586 1.5391 12.8615C1.57931 12.7645 1.6 12.6604 1.6 12.5554V7.44416C1.60002 7.3391 1.57934 7.23507 1.53914 7.138C1.49894 7.04093 1.44001 6.95273 1.36572 6.87844C1.29143 6.80415 1.20323 6.74523 1.10617 6.70503C1.0091 6.66483 0.905062 6.64415 0.8 6.64417Z" fill="white"/>
</svg>
