<svg width="19" height="18" viewBox="0 0 19 18" fill="none" xmlns="http://www.w3.org/2000/svg">
<mask id="mask0" mask-type="alpha" maskUnits="userSpaceOnUse" x="0" y="0" width="19" height="19">
<path d="M9.00424 4.38514C6.44967 4.38514 4.38915 6.44566 4.38915 9.00022C4.38915 11.5548 6.44967 13.6153 9.00424 13.6153C11.5588 13.6153 13.6193 11.5548 13.6193 9.00022C13.6193 6.44566 11.5588 4.38514 9.00424 4.38514ZM9.00424 12.0006C7.35341 12.0006 6.00383 10.6551 6.00383 9.00022C6.00383 7.34538 7.3494 5.99981 9.00424 5.99981C10.6591 5.99981 12.0046 7.34538 12.0046 9.00022C12.0046 10.6551 10.6551 12.0006 9.00424 12.0006ZM14.8846 4.19636C14.8846 4.79483 14.4026 5.27281 13.8081 5.27281C13.2096 5.27281 12.7317 4.79081 12.7317 4.19636C12.7317 3.6019 13.2136 3.1199 13.8081 3.1199C14.4026 3.1199 14.8846 3.6019 14.8846 4.19636ZM17.9412 5.28887C17.8729 3.84691 17.5436 2.56963 16.4872 1.51728C15.4348 0.464923 14.1576 0.135561 12.7156 0.0632616C11.2294 -0.0210872 6.77502 -0.0210872 5.28887 0.0632616C3.85093 0.131544 2.57364 0.460906 1.51728 1.51326C0.460906 2.56561 0.135561 3.84289 0.0632616 5.28486C-0.0210872 6.771 -0.0210872 11.2254 0.0632616 12.7116C0.131544 14.1535 0.460906 15.4308 1.51728 16.4832C2.57364 17.5355 3.84691 17.8649 5.28887 17.9372C6.77502 18.0215 11.2294 18.0215 12.7156 17.9372C14.1576 17.8689 15.4348 17.5395 16.4872 16.4832C17.5395 15.4308 17.8689 14.1535 17.9412 12.7116C18.0256 11.2254 18.0256 6.77502 17.9412 5.28887ZM16.0213 14.3062C15.708 15.0934 15.1015 15.6999 14.3102 16.0172C13.1253 16.4872 10.3137 16.3787 9.00424 16.3787C7.69482 16.3787 4.87918 16.4832 3.6983 16.0172C2.91104 15.7039 2.30453 15.0974 1.98722 14.3062C1.51728 13.1213 1.62572 10.3096 1.62572 9.00022C1.62572 7.69081 1.52129 4.87516 1.98722 3.69428C2.30051 2.90702 2.90702 2.30051 3.6983 1.9832C4.8832 1.51326 7.69482 1.62171 9.00424 1.62171C10.3137 1.62171 13.1293 1.51727 14.3102 1.9832C15.0974 2.2965 15.7039 2.90301 16.0213 3.69428C16.4912 4.87918 16.3828 7.69081 16.3828 9.00022C16.3828 10.3096 16.4912 13.1253 16.0213 14.3062Z" fill="white"/>
</mask>
<g mask="url(#mask0)">
<path d="M9.00424 4.38514C6.44967 4.38514 4.38915 6.44566 4.38915 9.00022C4.38915 11.5548 6.44967 13.6153 9.00424 13.6153C11.5588 13.6153 13.6193 11.5548 13.6193 9.00022C13.6193 6.44566 11.5588 4.38514 9.00424 4.38514ZM9.00424 12.0006C7.35341 12.0006 6.00383 10.6551 6.00383 9.00022C6.00383 7.34538 7.3494 5.99981 9.00424 5.99981C10.6591 5.99981 12.0046 7.34538 12.0046 9.00022C12.0046 10.6551 10.6551 12.0006 9.00424 12.0006ZM14.8846 4.19636C14.8846 4.79483 14.4026 5.27281 13.8081 5.27281C13.2096 5.27281 12.7317 4.79081 12.7317 4.19636C12.7317 3.6019 13.2136 3.1199 13.8081 3.1199C14.4026 3.1199 14.8846 3.6019 14.8846 4.19636ZM17.9412 5.28887C17.8729 3.84691 17.5436 2.56963 16.4872 1.51728C15.4348 0.464923 14.1576 0.135561 12.7156 0.0632616C11.2294 -0.0210872 6.77502 -0.0210872 5.28887 0.0632616C3.85093 0.131544 2.57364 0.460906 1.51728 1.51326C0.460906 2.56561 0.135561 3.84289 0.0632616 5.28486C-0.0210872 6.771 -0.0210872 11.2254 0.0632616 12.7116C0.131544 14.1535 0.460906 15.4308 1.51728 16.4832C2.57364 17.5355 3.84691 17.8649 5.28887 17.9372C6.77502 18.0215 11.2294 18.0215 12.7156 17.9372C14.1576 17.8689 15.4348 17.5395 16.4872 16.4832C17.5395 15.4308 17.8689 14.1535 17.9412 12.7116C18.0256 11.2254 18.0256 6.77502 17.9412 5.28887ZM16.0213 14.3062C15.708 15.0934 15.1015 15.6999 14.3102 16.0172C13.1253 16.4872 10.3137 16.3787 9.00424 16.3787C7.69482 16.3787 4.87918 16.4832 3.6983 16.0172C2.91104 15.7039 2.30453 15.0974 1.98722 14.3062C1.51728 13.1213 1.62572 10.3096 1.62572 9.00022C1.62572 7.69081 1.52129 4.87516 1.98722 3.69428C2.30051 2.90702 2.90702 2.30051 3.6983 1.9832C4.8832 1.51326 7.69482 1.62171 9.00424 1.62171C10.3137 1.62171 13.1293 1.51727 14.3102 1.9832C15.0974 2.2965 15.7039 2.90301 16.0213 3.69428C16.4912 4.87918 16.3828 7.69081 16.3828 9.00022C16.3828 10.3096 16.4912 13.1253 16.0213 14.3062Z" fill="#9FADAC"/>
</g>
</svg>
