<svg width="19" height="19" viewBox="0 0 19 19" fill="none" xmlns="http://www.w3.org/2000/svg">
<path d="M9.00424 4.80927C6.44967 4.80927 4.38915 6.86979 4.38915 9.42436C4.38915 11.9789 6.44967 14.0394 9.00424 14.0394C11.5588 14.0394 13.6193 11.9789 13.6193 9.42436C13.6193 6.86979 11.5588 4.80927 9.00424 4.80927ZM9.00424 12.4248C7.35341 12.4248 6.00383 11.0792 6.00383 9.42436C6.00383 7.76951 7.3494 6.42395 9.00424 6.42395C10.6591 6.42395 12.0046 7.76951 12.0046 9.42436C12.0046 11.0792 10.6551 12.4248 9.00424 12.4248ZM14.8846 4.62049C14.8846 5.21896 14.4026 5.69694 13.8081 5.69694C13.2096 5.69694 12.7317 5.21495 12.7317 4.62049C12.7317 4.02603 13.2136 3.54404 13.8081 3.54404C14.4026 3.54404 14.8846 4.02603 14.8846 4.62049ZM17.9412 5.71301C17.8729 4.27104 17.5436 2.99376 16.4872 1.94141C15.4348 0.889056 14.1576 0.559694 12.7156 0.487395C11.2294 0.403046 6.77502 0.403046 5.28887 0.487395C3.85093 0.555677 2.57364 0.885039 1.51728 1.93739C0.460906 2.98974 0.135561 4.26703 0.0632616 5.70899C-0.0210872 7.19514 -0.0210872 11.6496 0.0632616 13.1357C0.131544 14.5777 0.460906 15.855 1.51728 16.9073C2.57364 17.9597 3.84691 18.289 5.28887 18.3613C6.77502 18.4457 11.2294 18.4457 12.7156 18.3613C14.1576 18.293 15.4348 17.9637 16.4872 16.9073C17.5395 15.855 17.8689 14.5777 17.9412 13.1357C18.0256 11.6496 18.0256 7.19915 17.9412 5.71301ZM16.0213 14.7303C15.708 15.5176 15.1015 16.1241 14.3102 16.4414C13.1253 16.9113 10.3137 16.8029 9.00424 16.8029C7.69482 16.8029 4.87918 16.9073 3.6983 16.4414C2.91104 16.1281 2.30453 15.5216 1.98722 14.7303C1.51728 13.5454 1.62572 10.7338 1.62572 9.42436C1.62572 8.11494 1.52129 5.2993 1.98722 4.11841C2.30051 3.33116 2.90702 2.72465 3.6983 2.40734C4.8832 1.93739 7.69482 2.04584 9.00424 2.04584C10.3137 2.04584 13.1293 1.94141 14.3102 2.40734C15.0974 2.72063 15.7039 3.32714 16.0213 4.11841C16.4912 5.30331 16.3828 8.11494 16.3828 9.42436C16.3828 10.7338 16.4912 13.5494 16.0213 14.7303Z" fill="#ffffff"/>
</svg>
