<svg width="18" height="15" viewBox="0 0 18 15" fill="none" xmlns="http://www.w3.org/2000/svg">
<path fill-rule="evenodd" clip-rule="evenodd" d="M5.94 14.1291C8.49893 14.1452 10.9577 13.1358 12.7672 11.3263C14.5767 9.51687 15.5861 7.05808 15.57 4.49914V4.05664C16.2267 3.57551 16.7951 2.98427 17.25 2.30914C16.6316 2.57959 15.9773 2.75895 15.3075 2.84164C16.0177 2.41848 16.5506 1.75239 16.8075 0.966643C16.1456 1.36372 15.4199 1.64287 14.6625 1.79164C13.6139 0.674311 11.9461 0.399332 10.5943 1.12088C9.24249 1.84243 8.54278 3.38109 8.8875 4.87414C6.16635 4.74058 3.63036 3.45622 1.9125 1.34164C1.02372 2.88423 1.4828 4.8517 2.9625 5.84164C2.43646 5.82135 1.92259 5.67747 1.4625 5.42164V5.45914C1.45287 7.05998 2.56204 8.45035 4.125 8.79664C3.63573 8.92824 3.12322 8.94874 2.625 8.85664C3.07495 10.2142 4.33014 11.1421 5.76 11.1741C4.56691 12.1345 3.08407 12.6632 1.5525 12.6741C1.28396 12.6664 1.01606 12.6438 0.75 12.6066C2.30022 13.5943 4.1019 14.115 5.94 14.1066" fill="#233746"/>
</svg>
