<svg width="21" height="21" viewBox="0 0 21 21" fill="none" xmlns="http://www.w3.org/2000/svg">
<path fill-rule="evenodd" clip-rule="evenodd" d="M20.7499 19.6894L15.0859 14.0254C17.9133 10.6309 17.5707 5.61301 14.3082 2.63433C11.0458 -0.344348 6.01746 -0.230084 2.89366 2.89372C-0.230145 6.01752 -0.344409 11.0458 2.63427 14.3083C5.61295 17.5708 10.6309 17.9133 14.0253 15.0859L19.6894 20.75L20.7499 19.6894ZM1.99994 8.75C1.99994 5.02208 5.02202 2 8.74994 2C12.4779 2 15.4999 5.02208 15.4999 8.75C15.4999 12.4779 12.4779 15.5 8.74994 15.5C5.02373 15.4959 2.00408 12.4762 1.99994 8.75Z" fill="#233746"/>
</svg>
