<svg width="21" height="21" viewBox="0 0 21 21" fill="none" xmlns="http://www.w3.org/2000/svg">
<path fill-rule="evenodd" clip-rule="evenodd" d="M20.75 19.6894L15.0859 14.0254C17.9133 10.6309 17.5708 5.61301 14.3083 2.63433C11.0458 -0.344348 6.01752 -0.230084 2.89372 2.89372C-0.230084 6.01752 -0.344348 11.0458 2.63433 14.3083C5.61301 17.5708 10.6309 17.9133 14.0254 15.0859L19.6894 20.75L20.75 19.6894ZM2 8.75C2 5.02208 5.02208 2 8.75 2C12.4779 2 15.5 5.02208 15.5 8.75C15.5 12.4779 12.4779 15.5 8.75 15.5C5.0238 15.4959 2.00414 12.4762 2 8.75Z" fill="white"/>
</svg>
