<svg width="18" height="19" viewBox="0 0 18 19" fill="none" xmlns="http://www.w3.org/2000/svg">
<path fill-rule="evenodd" clip-rule="evenodd" d="M17.0025 0.424133H0.9975C0.448296 0.428217 0.00408347 0.87243 0 1.42163V17.4266C0.00408347 17.9758 0.448296 18.42 0.9975 18.4241H9.615V11.4641H7.275V8.74163H9.615V6.73913C9.615 4.41413 11.0325 3.14663 13.1175 3.14663C13.815 3.14663 14.5125 3.14663 15.21 3.25163V5.67413H13.7775C12.645 5.67413 12.4275 6.21413 12.4275 7.00163V8.73413H15.1275L14.775 11.4566H12.4275V18.4241H17.0025C17.5517 18.42 17.9959 17.9758 18 17.4266V1.42163C17.9959 0.87243 17.5517 0.428217 17.0025 0.424133Z" fill="#233746"/>
</svg>
