<svg width="18" height="14" viewBox="0 0 18 14" fill="none" xmlns="http://www.w3.org/2000/svg">
<path fill-rule="evenodd" clip-rule="evenodd" d="M5.94 13.7051C8.49893 13.7212 10.9577 12.7118 12.7672 10.9023C14.5767 9.09283 15.5861 6.63404 15.57 4.0751V3.6326C16.2267 3.15147 16.7951 2.56023 17.25 1.8851C16.6316 2.15555 15.9773 2.33491 15.3075 2.4176C16.0177 1.99444 16.5506 1.32835 16.8075 0.542601C16.1456 0.939682 15.4199 1.21883 14.6625 1.3676C13.6139 0.250269 11.9461 -0.0247097 10.5943 0.696842C9.24249 1.41839 8.54278 2.95705 8.8875 4.4501C6.16635 4.31653 3.63036 3.03218 1.9125 0.917601C1.02372 2.46019 1.4828 4.42766 2.9625 5.4176C2.43646 5.39731 1.92259 5.25343 1.4625 4.9976V5.0351C1.45287 6.63594 2.56204 8.02631 4.125 8.3726C3.63573 8.5042 3.12322 8.5247 2.625 8.4326C3.07495 9.7902 4.33014 10.7181 5.76 10.7501C4.56691 11.7105 3.08407 12.2391 1.5525 12.2501C1.28396 12.2423 1.01606 12.2198 0.75 12.1826C2.30022 13.1703 4.1019 13.691 5.94 13.6826" fill="#9FADAC"/>
</svg>
