<svg width="25" height="24" viewBox="0 0 25 24" fill="none" xmlns="http://www.w3.org/2000/svg">
<path fill-rule="evenodd" clip-rule="evenodd" d="M13.8386 17.1429V10.2857H10.41V12H12.1243V17.1429H9.55287V18.8571H16.41V17.1429H13.8386ZM12.9814 5.14286C12.2714 5.14286 11.6957 5.71849 11.6957 6.42857C11.6957 7.13865 12.2714 7.71429 12.9814 7.71429C13.6915 7.71429 14.2672 7.13865 14.2672 6.42857C14.2672 5.71849 13.6915 5.14286 12.9814 5.14286ZM12.9814 24C6.35403 24 0.981445 18.6274 0.981445 12C0.981445 5.37258 6.35403 0 12.9814 0C19.6089 0 24.9814 5.37258 24.9814 12C24.9814 15.1826 23.7172 18.2348 21.4667 20.4853C19.2163 22.7357 16.164 24 12.9814 24ZM12.9814 1.71429C7.3008 1.71429 2.69573 6.31936 2.69573 12C2.69573 17.6806 7.3008 22.2857 12.9814 22.2857C18.6621 22.2857 23.2672 17.6806 23.2672 12C23.2672 6.31936 18.6621 1.71429 12.9814 1.71429Z" fill="#B5BE00"/>
</svg>
