<svg width="56" height="56" viewBox="0 0 56 56" fill="none" xmlns="http://www.w3.org/2000/svg">
<path fill-rule="evenodd" clip-rule="evenodd" d="M27.9698 0.818176C42.9411 0.818176 55.1213 12.9984 55.1213 27.9697C55.1213 42.9404 42.9422 55.1201 27.9709 55.1212H27.9698C12.9984 55.1212 0.818237 42.941 0.818237 27.9697C0.818237 12.9984 12.9984 0.818176 27.9698 0.818176ZM32.1725 52.5062L32.1853 52.5336C42.5691 50.7566 50.7773 42.539 52.5398 32.1497C52.5249 32.1426 52.5097 32.1365 52.4945 32.1305C52.4694 32.1206 52.4444 32.1106 52.4208 32.0957C51.9032 31.766 51.7503 31.0788 52.0805 30.5606C52.6226 29.7094 52.8973 28.8382 52.8973 27.9691C52.8973 27.094 52.6182 26.2155 52.0677 25.3582C51.7364 24.8411 51.8854 24.1533 52.4025 23.8214C52.4369 23.7992 52.4732 23.7825 52.5092 23.766L52.5093 23.766L52.5337 23.7547C50.854 13.9336 43.4131 6.059 33.8216 3.74216C34.7679 4.76075 35.6481 6.02675 36.4509 7.54406C36.7384 8.08671 36.531 8.75947 35.9883 9.04692C35.8221 9.13421 35.6442 9.17591 35.469 9.17591C35.0698 9.17591 34.684 8.96074 34.4849 8.58378C33.3162 6.37536 31.9518 4.73628 30.5385 3.84446C30.2738 3.67822 30.1053 3.41801 30.0453 3.13501C29.3603 3.0783 28.6692 3.04216 27.9698 3.04216C27.2464 3.04216 26.5325 3.07997 25.8247 3.14113C25.7741 3.43636 25.6079 3.71047 25.3371 3.88616C23.9304 4.79689 22.5744 6.44764 21.4151 8.65995C21.2166 9.03914 20.8297 9.25597 20.4293 9.25597C20.2553 9.25597 20.0785 9.21483 19.9139 9.12865C19.3702 8.84343 19.16 8.17178 19.4452 7.62746C20.2586 6.07512 21.1527 4.78021 22.1151 3.74327C13.0641 5.93056 5.92895 13.0673 3.74222 22.1184C4.76081 21.1726 6.02737 20.2914 7.54524 19.4885C8.08678 19.2011 8.76064 19.4085 9.04809 19.9517C9.33499 20.4943 9.12816 21.1671 8.58495 21.4545C6.37709 22.6221 4.73745 23.9871 3.84508 25.4004C3.67884 25.6645 3.41863 25.8302 3.13563 25.8903C3.07836 26.5764 3.04222 27.2686 3.04222 27.9697C3.04222 28.693 3.08003 29.4069 3.14119 30.1147C3.43587 30.1659 3.70997 30.3316 3.88567 30.6023C4.79695 32.0096 6.4477 33.3651 8.65945 34.5243C9.20322 34.809 9.41338 35.4812 9.12816 36.0255C8.92967 36.4042 8.54269 36.621 8.14237 36.621C7.96835 36.621 7.79154 36.5798 7.62697 36.4937C6.07518 35.6802 4.78027 34.7862 3.74333 33.8238C6.06351 43.4236 13.9509 50.869 23.7853 52.5386L23.7931 52.5222L23.8009 52.5055C23.8139 52.4771 23.8271 52.4485 23.8443 52.4213C24.1745 51.9037 24.8617 51.7496 25.3794 52.081C27.0879 53.1691 28.8755 53.1641 30.5813 52.0671C31.0989 51.7358 31.7861 51.8848 32.118 52.4018C32.1397 52.4354 32.1561 52.4708 32.1725 52.5062ZM39.1895 22.2201C38.6357 22.2201 38.1559 21.8064 38.0875 21.2427C37.8078 18.9453 37.3852 16.7474 36.8292 14.7114C36.668 14.1187 37.0172 13.5076 37.6093 13.3459C38.2037 13.1835 38.813 13.5338 38.9748 14.1259C39.5581 16.2654 40.0023 18.5694 40.2948 20.9736C40.3693 21.5835 39.935 22.1378 39.3251 22.2118C39.2795 22.2173 39.2345 22.2201 39.1895 22.2201ZM19.1019 41.1997C18.9406 40.6075 18.3296 40.2573 17.7369 40.4185C17.1442 40.5792 16.7945 41.1908 16.9552 41.7829C17.6285 44.2604 18.4758 46.4755 19.4733 48.367C19.6723 48.7451 20.0582 48.9603 20.458 48.9603C20.6331 48.9603 20.8105 48.9191 20.9761 48.8324C21.5194 48.5455 21.7273 47.8727 21.441 47.3301C20.5197 45.5826 19.7329 43.5198 19.1019 41.1997ZM15.2278 28.0001C15.2278 27.3858 15.7249 26.8876 16.3398 26.8876C16.9537 26.8876 17.4513 27.3852 17.4518 27.9985C17.4535 30.2619 17.5864 32.5054 17.8483 34.6676C17.9222 35.2776 17.488 35.8313 16.878 35.9053C16.8325 35.9108 16.7874 35.9136 16.7429 35.9136C16.1881 35.9136 15.7088 35.5 15.6404 34.9351C15.368 32.6855 15.229 30.3526 15.2278 28.0001ZM40.7117 27.9104C40.7117 27.2966 40.2135 26.7985 39.5997 26.7985C38.9859 26.7985 38.4877 27.2966 38.4877 27.9104V27.9699C38.4877 30.2328 38.3554 32.4763 38.0946 34.6391C38.0207 35.249 38.4555 35.8028 39.0654 35.8762C39.1104 35.8818 39.1555 35.8845 39.1999 35.8845C39.7543 35.8845 40.2341 35.4703 40.3019 34.9054C40.5733 32.6553 40.7111 30.3218 40.7111 27.9699V27.9104H40.7117ZM36.8444 41.1723C37.0056 40.5802 37.6133 40.2316 38.2088 40.39C38.8015 40.5507 39.1517 41.1617 38.9916 41.7539C38.32 44.2297 37.4754 46.4454 36.4802 48.3391C36.2817 48.7172 35.8953 48.9335 35.4949 48.9335C35.3204 48.9335 35.1436 48.8929 34.9784 48.8061C34.4347 48.5209 34.2256 47.8487 34.5114 47.3044C35.431 45.5552 36.2155 43.4919 36.8444 41.1723ZM14.4184 19.1491C14.5151 19.1491 14.6135 19.1363 14.7114 19.1097C15.12 18.9979 15.5398 18.8961 15.9607 18.7955C15.8378 19.5417 15.7249 20.2956 15.6326 21.064C15.5598 21.6739 15.9946 22.2271 16.6045 22.3005C16.6496 22.3061 16.694 22.3083 16.7385 22.3083C17.2934 22.3083 17.7732 21.8935 17.8411 21.3286C17.9651 20.2973 18.1218 19.2892 18.302 18.3035C19.2611 18.1278 20.2402 17.9738 21.2432 17.8514C21.8531 17.7775 22.2868 17.2226 22.2129 16.6132C22.1389 16.0033 21.5868 15.5735 20.9747 15.6436C20.2369 15.7336 19.5129 15.8421 18.7968 15.9599L18.806 15.9216C18.8969 15.5419 18.9876 15.163 19.0876 14.794C19.2477 14.2013 18.8975 13.5908 18.3042 13.4302C17.7115 13.27 17.101 13.6203 16.9403 14.2136C16.7474 14.9275 16.5756 15.6658 16.4138 16.4142C15.6354 16.5821 14.8676 16.7617 14.1265 16.9635C13.5343 17.1253 13.1846 17.7363 13.3464 18.329C13.4809 18.8239 13.9296 19.1491 14.4184 19.1491ZM14.7942 36.853C16.8336 37.4034 19.032 37.8226 21.3288 38.0984C21.9382 38.1713 22.3735 38.725 22.3001 39.335C22.2323 39.8998 21.7525 40.3146 21.1976 40.3146C21.1531 40.3146 21.1086 40.3118 21.0636 40.3063C18.6611 40.0177 16.3565 39.5779 14.2143 38.9997C13.6216 38.8396 13.2708 38.2291 13.4309 37.6364C13.591 37.0437 14.2032 36.6951 14.7942 36.853ZM27.9111 17.4518H27.9705C30.2329 17.4518 32.4763 17.5841 34.6397 17.8449C34.6848 17.8504 34.7298 17.8526 34.7743 17.8526C35.3286 17.8526 35.8084 17.4384 35.8763 16.8735C35.9502 16.2636 35.5154 15.7098 34.9055 15.6364C32.6543 15.3651 30.3213 15.2278 27.97 15.2278H27.9105C27.2967 15.2278 26.7985 15.726 26.7985 16.3398C26.7985 16.9536 27.2967 17.4518 27.9111 17.4518ZM41.1992 36.8369C43.5199 36.2053 45.5827 35.4186 47.3291 34.4978C47.8739 34.2126 48.545 34.42 48.8319 34.9638C49.1183 35.507 48.9103 36.1792 48.3666 36.466C46.4762 37.4624 44.2611 38.3092 41.7836 38.983C41.6863 39.0097 41.5878 39.0225 41.4911 39.0225C41.0013 39.0225 40.5531 38.6967 40.4186 38.2013C40.2574 37.6092 40.6071 36.9981 41.1992 36.8369ZM41.1724 19.0952C43.4925 19.7246 45.5558 20.5096 47.3044 21.4292C47.4696 21.516 47.6464 21.5571 47.821 21.5571C48.2213 21.5571 48.6071 21.3408 48.8062 20.9622C49.092 20.4184 48.8829 19.7462 48.3391 19.4605C46.4465 18.4658 44.2303 17.6207 41.7539 16.949C41.1612 16.7867 40.5508 17.1386 40.3895 17.7313C40.2294 18.3234 40.5797 18.9345 41.1724 19.0952ZM34.6664 38.0915C35.268 38.0204 35.8301 38.4513 35.9041 39.0617C35.978 39.6711 35.5438 40.2254 34.9333 40.2994C32.6838 40.5718 30.3508 40.7108 27.9984 40.7119H27.9978C27.384 40.7119 26.8864 40.2149 26.8858 39.6005C26.8853 38.9861 27.3834 38.4885 27.9973 38.488C30.2607 38.4869 32.5047 38.3534 34.6664 38.0915Z" fill="white"/>
</svg>
