<svg width="12" height="12" viewBox="0 0 12 12" fill="none" xmlns="http://www.w3.org/2000/svg">
<path fill-rule="evenodd" clip-rule="evenodd" d="M6.375 8.25V5.25H4.875V6H5.625V8.25H4.5V9H7.5V8.25H6.375ZM6 3C5.68934 3 5.4375 3.25184 5.4375 3.5625C5.4375 3.87316 5.68934 4.125 6 4.125C6.31066 4.125 6.5625 3.87316 6.5625 3.5625C6.5625 3.25184 6.31066 3 6 3ZM6 11.25C3.10051 11.25 0.75 8.8995 0.75 6C0.75 3.10051 3.10051 0.75 6 0.75C8.8995 0.75 11.25 3.10051 11.25 6C11.25 7.39239 10.6969 8.72774 9.71231 9.71231C8.72774 10.6969 7.39239 11.25 6 11.25ZM6 1.5C3.51472 1.5 1.5 3.51472 1.5 6C1.5 8.48528 3.51472 10.5 6 10.5C8.48528 10.5 10.5 8.48528 10.5 6C10.5 3.51472 8.48528 1.5 6 1.5Z" fill="#233746"/>
</svg>
