<svg width="635" height="484" viewBox="0 0 635 484" fill="none" xmlns="http://www.w3.org/2000/svg">
<path d="M0 240.5H206.5C307.5 240.5 316 1 463 1C507.5 1 596.5 1.00004 635 1" stroke="#F97B42" stroke-width="2"/>
<path d="M0 241H206.5C307.5 241 316 482.5 463 482.5C507.5 482.5 596.5 482.5 635 482.5" stroke="#E4B029" stroke-width="2"/>
<path d="M0 240.5H301.5C396 240.5 388 161 465 161C509.5 161 596.5 161 635 161" stroke="#92DAD0" stroke-width="2"/>
<path d="M0 241H301.5C396 241 388 321.5 465 321.5C509.5 321.5 596.5 321.5 635 321.5" stroke="#92DAD0" stroke-width="2"/>
</svg>
