<svg width="272" height="32" viewBox="0 0 272 32" fill="none" xmlns="http://www.w3.org/2000/svg">
<path d="M46.3187 12.9272H41.9448V11.4119H52.4167V12.9272H48.0428V24.6167H46.3187V12.9272Z" fill="#9FADAC"/>
<path d="M53.2493 11.4119H54.8629V16.4811C55.2697 15.9291 55.7997 15.4793 56.4108 15.1672C56.9677 14.8968 57.5793 14.7576 58.1986 14.7603C59.2857 14.7603 60.0918 15.0563 60.6169 15.6482C61.1421 16.2402 61.4047 17.1098 61.4047 18.257V24.6146H59.774V18.5706C59.774 17.6827 59.6148 17.0575 59.3005 16.693C58.9863 16.3285 58.4937 16.1484 57.827 16.1484C57.4652 16.1496 57.1063 16.212 56.7654 16.3327C56.4088 16.4593 56.0837 16.661 55.812 16.924C55.527 17.1661 55.2882 17.4575 55.1071 17.7844C54.9339 18.1508 54.8516 18.5535 54.8672 18.9584V24.6188H53.2535L53.2493 11.4119Z" fill="#9FADAC"/>
<path d="M71.3562 21.938C71.2331 22.794 70.7929 23.5728 70.1226 24.1208C69.4616 24.6506 68.5132 24.9155 67.2774 24.9155C65.8209 24.9155 64.7034 24.4747 63.9248 23.5931C63.1463 22.7115 62.7571 21.4817 62.7571 19.9036C62.7445 19.1562 62.8571 18.412 63.0904 17.7017C63.2862 17.106 63.6052 16.558 64.0268 16.0932C64.4261 15.6617 64.9163 15.3237 65.4621 15.1036C66.66 14.64 67.9883 14.64 69.1863 15.1036C69.6933 15.3217 70.1409 15.6574 70.4921 16.0827C70.842 16.5169 71.1005 17.0171 71.2522 17.5534C71.4232 18.1615 71.5069 18.7909 71.5006 19.4225V20.2363H64.3877C64.3831 20.6908 64.449 21.1433 64.583 21.5777C64.7 21.9662 64.8879 22.3297 65.1372 22.6501C65.38 22.9518 65.6877 23.1952 66.0375 23.3621C66.4259 23.5408 66.8498 23.6292 67.2774 23.6207C68.0822 23.6207 68.6682 23.4702 69.0397 23.1671C69.4188 22.8496 69.6854 22.4186 69.7999 21.938H71.3562ZM69.8912 19.0326C69.8963 18.6153 69.8463 18.1992 69.7425 17.795C69.6564 17.4484 69.4988 17.1236 69.2797 16.8413C69.0626 16.5717 68.7826 16.3593 68.4644 16.2225C68.0823 16.0686 67.6722 15.9964 67.2605 16.0106C66.4112 16.0106 65.7473 16.2698 65.2689 16.7883C64.7904 17.3068 64.5073 18.0585 64.4196 19.0432L69.8912 19.0326Z" fill="#9FADAC"/>
<path d="M77.8236 21.8088C77.9467 22.4361 78.1937 22.8889 78.5646 23.1672C78.9354 23.4455 79.479 23.5868 80.1952 23.591C80.6459 23.6006 81.0928 23.5063 81.501 23.3155C81.8962 23.1123 82.2221 22.7966 82.4374 22.4085C82.7134 21.9042 82.9015 21.3567 82.9937 20.7894C83.1284 19.9857 83.1902 19.1714 83.1784 18.3566C82.3999 19.4868 81.288 20.0519 79.8428 20.0519C79.2365 20.0688 78.6333 19.9591 78.072 19.7298C77.6063 19.5284 77.1924 19.2241 76.8617 18.8398C76.5324 18.4487 76.2919 17.991 76.1568 17.4983C76.0048 16.9562 75.9297 16.3955 75.9339 15.8326C75.9274 15.2296 76.0347 14.6307 76.2502 14.0673C76.4451 13.5488 76.7494 13.0781 77.1425 12.6873C77.5356 12.2964 78.0082 11.9944 78.5285 11.8019C79.1095 11.585 79.7258 11.4779 80.346 11.4861C81.0572 11.4444 81.7656 11.6049 82.3891 11.9488C83.0126 12.2928 83.5256 12.8062 83.8685 13.4294C84.212 14.0387 84.4503 14.7014 84.5734 15.3897C84.7114 16.1092 84.7825 16.8399 84.7857 17.5725C84.7891 18.5342 84.7266 19.495 84.5989 20.4482C84.4992 21.2585 84.2645 22.0464 83.9046 22.7794C83.5882 23.4191 83.1085 23.9644 82.5138 24.3603C81.9278 24.7502 81.1712 24.9445 80.2441 24.9431C79.0466 24.9431 78.1109 24.6902 77.4371 24.1844C76.7633 23.6786 76.3713 22.8839 76.2609 21.8003L77.8236 21.8088ZM80.1761 18.6999C80.5366 18.7022 80.8951 18.6463 81.2378 18.5346C81.5646 18.4258 81.8664 18.2529 82.1253 18.026C82.396 17.783 82.6086 17.4825 82.7474 17.1465C82.9104 16.7428 82.9892 16.3101 82.9788 15.875C82.9783 15.5028 82.9254 15.1326 82.8217 14.7751C82.7216 14.4218 82.5583 14.0894 82.3397 13.7939C82.124 13.5043 81.8452 13.2674 81.5244 13.101C81.1596 12.9194 80.7556 12.8305 80.3481 12.8424C79.4988 12.8424 78.8222 13.101 78.3183 13.618C77.8144 14.1351 77.5624 14.8549 77.5624 15.7775C77.5603 16.1635 77.6045 16.5485 77.694 16.924C77.7713 17.2613 77.9221 17.5775 78.1357 17.8501C78.3502 18.1179 78.6262 18.3302 78.9404 18.4689C79.3308 18.6338 79.7524 18.7126 80.1761 18.6999Z" fill="#9FADAC"/>
<path d="M87.8112 24.6188H86.1423L90.3506 11.0432H92.0174L87.8112 24.6188Z" fill="#9FADAC"/>
<path d="M96.5212 13.6328L93.5741 15.4087L92.8713 14.1986L96.6932 11.8315H98.1943V24.6124H96.5255L96.5212 13.6328Z" fill="#9FADAC"/>
<path d="M105.638 13.6328L102.693 15.4087L101.988 14.1986L105.81 11.8315H107.311V24.6124H105.642L105.638 13.6328Z" fill="#9FADAC"/>
<path d="M115.127 11.4119H119.853C120.703 11.3884 121.551 11.5044 122.363 11.7552C122.948 11.9391 123.486 12.2487 123.938 12.6622C124.318 13.0231 124.598 13.4746 124.754 13.974C124.909 14.4807 124.987 15.008 124.985 15.538C124.988 16.1007 124.91 16.6609 124.754 17.2016C124.602 17.7273 124.322 18.2071 123.938 18.5981C123.499 19.0299 122.967 19.3561 122.382 19.5518C121.589 19.8074 120.758 19.9264 119.926 19.9036H117.851V24.6188H115.127V11.4119ZM119.834 17.6085C120.236 17.6181 120.638 17.5688 121.025 17.4622C121.303 17.3836 121.559 17.2439 121.775 17.0532C121.961 16.8826 122.093 16.6617 122.155 16.4175C122.225 16.1491 122.259 15.8726 122.257 15.5952C122.262 15.3199 122.225 15.0455 122.146 14.7814C122.075 14.555 121.941 14.3531 121.76 14.1987C121.541 14.0208 121.285 13.8941 121.011 13.8278C120.619 13.7325 120.218 13.689 119.815 13.6985H117.851V17.6191L119.834 17.6085Z" fill="#233746"/>
<path d="M134.345 21.6159C134.171 22.701 133.735 23.5239 133.039 24.0848C132.343 24.6457 131.326 24.9282 129.99 24.9325C128.382 24.9325 127.174 24.4882 126.366 23.5995C125.557 22.7108 125.153 21.4535 125.153 19.8273C125.141 19.0874 125.26 18.3512 125.506 17.653C125.72 17.051 126.057 16.5002 126.497 16.0361C126.925 15.5898 127.447 15.2451 128.026 15.0273C128.654 14.7928 129.32 14.6771 129.99 14.6861C131.472 14.6861 132.587 15.11 133.334 15.9577C134.082 16.8053 134.455 17.9518 134.455 19.3971V20.4334H127.748C127.771 21.2112 127.96 21.8172 128.34 22.2559C128.72 22.6946 129.266 22.9129 130.007 22.9129C131.033 22.9129 131.639 22.4813 131.825 21.618L134.345 21.6159ZM131.954 18.719C131.954 18.0535 131.791 17.5343 131.464 17.1656C131.137 16.7969 130.625 16.6104 129.935 16.6104C129.624 16.6033 129.314 16.6603 129.026 16.7778C128.777 16.8803 128.553 17.0341 128.368 17.2292C128.185 17.4223 128.04 17.6489 127.943 17.8967C127.842 18.1595 127.785 18.4374 127.775 18.719H131.954Z" fill="#233746"/>
<path d="M135.661 14.9637H138.181V16.2967C138.517 15.7708 138.987 15.343 139.542 15.057C140.051 14.8023 140.612 14.6695 141.182 14.6692C142.281 14.6692 143.097 14.9517 143.63 15.5168C144.162 16.082 144.427 16.9855 144.426 18.2273V24.6082H141.833V18.5897C141.833 17.9115 141.704 17.4488 141.445 17.2016C141.161 16.9469 140.788 16.8144 140.407 16.8329C140.112 16.8256 139.819 16.876 139.545 16.9812C139.297 17.0836 139.068 17.2269 138.867 17.4051C138.693 17.5877 138.55 17.7974 138.443 18.026C138.324 18.2711 138.264 18.5401 138.266 18.8122V24.6188H135.661V14.9637Z" fill="#233746"/>
<path d="M146.483 16.9812H144.963V14.9637H146.483V12.3931H149.078V14.9637H151.301V16.9812H149.078V21.4315C149.078 21.9387 149.183 22.2806 149.392 22.4572C149.622 22.6437 149.912 22.7395 150.208 22.7263C150.384 22.7265 150.561 22.7173 150.736 22.6988C150.915 22.6796 151.092 22.6456 151.265 22.5971L151.634 24.5044C151.293 24.6106 150.942 24.6878 150.588 24.7353C150.265 24.7773 149.94 24.7992 149.615 24.801C148.552 24.801 147.764 24.5482 147.252 24.0424C146.74 23.5366 146.483 22.6889 146.483 21.4993V16.9812Z" fill="#233746"/>
<path d="M157.917 23.3981C157.549 23.8197 157.113 24.1777 156.628 24.4577C156.06 24.7507 155.425 24.891 154.785 24.8646C154.368 24.8671 153.953 24.8107 153.552 24.6972C153.18 24.5952 152.834 24.4193 152.533 24.1801C152.236 23.9372 151.999 23.6308 151.838 23.2837C151.655 22.8733 151.567 22.4273 151.579 21.9783C151.553 21.4005 151.709 20.8292 152.025 20.3444C152.324 19.9232 152.726 19.5855 153.193 19.3632C153.706 19.1184 154.251 18.9492 154.813 18.8609C155.417 18.7608 156.027 18.6992 156.639 18.6765L157.879 18.6193V18.1446C157.879 17.5527 157.715 17.1458 157.388 16.924C157.045 16.6983 156.642 16.5822 156.231 16.5912C155.206 16.5912 154.619 16.9798 154.469 17.7568L152.097 17.5343C152.271 16.5241 152.717 15.7937 153.433 15.343C154.149 14.8923 155.112 14.6677 156.323 14.6691C156.964 14.6544 157.603 14.7446 158.214 14.9361C158.684 15.0889 159.11 15.352 159.456 15.7033C159.778 16.0478 160.013 16.4631 160.142 16.9155C160.289 17.436 160.361 17.9748 160.355 18.5155V24.6188H157.917V23.3981ZM157.862 20.3105L156.713 20.3656C156.27 20.3766 155.829 20.4319 155.397 20.5308C155.123 20.5917 154.863 20.7016 154.628 20.8551C154.463 20.9653 154.336 21.1237 154.265 21.3086C154.202 21.4927 154.171 21.6862 154.174 21.8808C154.167 22.0244 154.193 22.1676 154.251 22.2992C154.309 22.4308 154.397 22.5473 154.507 22.6395C154.773 22.839 155.101 22.9374 155.433 22.9171C156.012 22.9434 156.584 22.7813 157.064 22.4551C157.301 22.2804 157.497 22.0562 157.639 21.7981C157.794 21.4919 157.867 21.1511 157.851 20.8085L157.862 20.3105Z" fill="#233746"/>
<path d="M164.533 25.2292C164.567 25.4381 164.639 25.6391 164.745 25.8225C164.837 25.9693 164.965 26.0898 165.117 26.1722C165.289 26.2656 165.477 26.3253 165.671 26.3481C165.932 26.3823 166.195 26.3979 166.459 26.3947C166.854 26.4165 167.247 26.3238 167.591 26.1277C167.856 25.9542 168.065 25.7066 168.191 25.4156C168.328 25.0924 168.41 24.7486 168.433 24.3984C168.463 24.0149 168.48 23.6207 168.48 23.2138V22.9171C168.171 23.3734 167.745 23.7391 167.247 23.9767C166.715 24.2247 166.134 24.348 165.548 24.337C164.189 24.337 163.173 23.8997 162.499 23.0252C161.825 22.1507 161.49 20.9745 161.493 19.4967C161.486 18.838 161.582 18.1822 161.779 17.5534C161.953 16.9963 162.234 16.4781 162.605 16.0276C162.966 15.5999 163.419 15.2588 163.93 15.0294C164.486 14.782 165.09 14.6591 165.699 14.6692C166.217 14.6685 166.73 14.7686 167.21 14.9637C167.748 15.2006 168.213 15.5776 168.554 16.0551V14.9637H171.075V23.2689C171.084 24.0013 171 24.7319 170.824 25.4432C170.679 26.0336 170.406 26.5853 170.026 27.0602C169.647 27.5156 169.155 27.8635 168.599 28.0689C167.914 28.3133 167.19 28.4289 166.463 28.4101C165.794 28.4214 165.126 28.3567 164.471 28.2172C163.982 28.1149 163.519 27.9137 163.11 27.626C162.757 27.3658 162.473 27.0221 162.284 26.6257C162.082 26.1842 161.953 25.7124 161.904 25.2292H164.533ZM168.497 19.4586C168.513 18.9827 168.447 18.5077 168.304 18.0535C168.203 17.7418 168.028 17.4589 167.794 17.2292C167.598 17.0468 167.36 16.9164 167.1 16.8498C166.845 16.7891 166.583 16.7585 166.321 16.7587C166.046 16.7569 165.773 16.8072 165.516 16.907C165.257 17.0092 165.028 17.1746 164.849 17.3881C164.641 17.6366 164.487 17.9251 164.395 18.2358C164.275 18.6378 164.218 19.0561 164.227 19.4755C164.227 20.4998 164.422 21.2239 164.811 21.6477C164.993 21.8528 165.217 22.0158 165.468 22.1256C165.719 22.2354 165.991 22.2893 166.266 22.2835C166.571 22.2868 166.875 22.2402 167.166 22.1457C167.436 22.0576 167.681 21.9056 167.879 21.7028C168.092 21.4752 168.25 21.2029 168.342 20.906C168.461 20.5198 168.517 20.1169 168.508 19.7129L168.497 19.4586Z" fill="#233746"/>
<path d="M177.19 24.9155C175.633 24.9155 174.43 24.4712 173.58 23.5825C172.731 22.6939 172.306 21.4224 172.306 19.768C172.295 19.0408 172.411 18.3173 172.648 17.6297C172.857 17.0294 173.192 16.4809 173.631 16.0212C174.065 15.5804 174.59 15.2385 175.169 15.0188C176.481 14.5526 177.915 14.5526 179.228 15.0188C179.819 15.2374 180.352 15.5863 180.789 16.0395C181.226 16.4927 181.555 17.0384 181.751 17.636C181.982 18.3249 182.094 19.0479 182.084 19.7743C182.095 20.5065 181.979 21.2351 181.74 21.9274C181.533 22.5309 181.198 23.083 180.759 23.5465C180.325 23.9955 179.796 24.3429 179.211 24.5637C178.565 24.806 177.88 24.9254 177.19 24.9155ZM177.19 22.8429C177.932 22.8429 178.484 22.578 178.848 22.0482C179.212 21.5184 179.394 20.7605 179.394 19.7743C179.394 18.7854 179.212 18.033 178.848 17.5174C178.484 17.0017 177.932 16.7432 177.19 16.7417C176.449 16.7417 175.895 17.0003 175.532 17.5195C175.169 18.0387 174.984 18.791 174.984 19.7764C174.984 20.7619 175.162 21.5354 175.521 22.0588C175.88 22.5823 176.442 22.8429 177.19 22.8429Z" fill="#233746"/>
<path d="M183.305 14.9637H185.825V16.2967C186.161 15.7702 186.632 15.3423 187.188 15.057C187.697 14.802 188.258 14.6692 188.827 14.6692C189.927 14.6692 190.742 14.9517 191.273 15.5168C191.804 16.082 192.069 16.9855 192.069 18.2273V24.6082H189.475V18.5897C189.475 17.9115 189.345 17.4488 189.086 17.2016C188.803 16.9465 188.429 16.8139 188.048 16.8329C187.758 16.8268 187.469 16.8772 187.199 16.9812C186.951 17.0831 186.721 17.2264 186.521 17.4051C186.346 17.5867 186.202 17.7967 186.097 18.026C185.978 18.2711 185.918 18.5401 185.921 18.8122V24.6188H183.305V14.9637Z" fill="#233746"/>
<path d="M197.129 11.4119H200.446L203.745 21.2705L207.142 11.4119H210.368V24.6188H207.82V15.8156L204.798 24.6188H202.652L199.613 15.8326V24.6188H197.129V11.4119Z" fill="#233746"/>
<path d="M220.98 21.6159C220.806 22.701 220.37 23.5239 219.672 24.0848C218.974 24.6457 217.958 24.9282 216.625 24.9325C215.017 24.9325 213.809 24.4882 213.001 23.5995C212.192 22.7108 211.788 21.4535 211.788 19.8273C211.776 19.0874 211.895 18.3512 212.141 17.653C212.355 17.0515 212.692 16.5008 213.13 16.0361C213.559 15.5902 214.082 15.2456 214.661 15.0273C215.289 14.7928 215.955 14.6771 216.625 14.6861C218.107 14.6861 219.222 15.11 219.969 15.9577C220.717 16.8053 221.09 17.9518 221.09 19.3971V20.4334H214.383C214.406 21.2112 214.595 21.8172 214.975 22.2559C215.355 22.6946 215.901 22.9129 216.642 22.9129C217.668 22.9129 218.274 22.4813 218.46 21.618L220.98 21.6159ZM218.589 18.719C218.589 18.0535 218.426 17.5343 218.099 17.1656C217.772 16.7969 217.249 16.6104 216.568 16.6104C216.257 16.6036 215.949 16.6605 215.661 16.7778C215.412 16.8803 215.188 17.0341 215.003 17.2292C214.82 17.4223 214.675 17.6489 214.578 17.8967C214.477 18.1595 214.42 18.4374 214.41 18.719H218.589Z" fill="#233746"/>
<path d="M222.305 14.9637H224.825V16.2585C225.138 15.7591 225.572 15.346 226.086 15.057C226.588 14.7957 227.146 14.6623 227.712 14.6686C228.278 14.6749 228.833 14.8207 229.328 15.093C229.779 15.3833 230.113 15.8219 230.273 16.3327C230.643 15.8102 231.125 15.376 231.683 15.0612C232.187 14.8003 232.747 14.6671 233.314 14.6734C234.315 14.6734 235.065 14.9475 235.564 15.4956C236.064 16.0438 236.315 16.9346 236.316 18.1679V24.623H233.721V18.5155C233.729 18.23 233.697 17.9448 233.628 17.6678C233.582 17.4822 233.497 17.3087 233.377 17.1592C233.278 17.0396 233.147 16.9501 233 16.9007C232.849 16.8514 232.692 16.8264 232.535 16.8265C232.291 16.8234 232.048 16.8673 231.821 16.9558C231.581 17.059 231.364 17.2097 231.184 17.3987C231.009 17.5705 230.866 17.7713 230.759 17.9921C230.654 18.211 230.601 18.4508 230.602 18.6935V24.6124H228.008V18.5155C228.015 18.23 227.984 17.9448 227.914 17.6678C227.869 17.4822 227.783 17.3087 227.664 17.1592C227.564 17.039 227.432 16.9494 227.284 16.9007C227.134 16.8512 226.978 16.8261 226.821 16.8265C226.577 16.8234 226.335 16.8673 226.107 16.9558C225.867 17.059 225.651 17.2097 225.47 17.3987C225.29 17.5763 225.146 17.7872 225.046 18.0196C224.938 18.2676 224.884 18.5355 224.887 18.8058V24.6124H222.305V14.9637Z" fill="#233746"/>
<path d="M242.327 24.9155C240.77 24.9155 239.567 24.4711 238.717 23.5825C237.868 22.6938 237.444 21.4223 237.444 19.7679C237.433 19.0407 237.55 18.3171 237.787 17.6296C237.995 17.0295 238.33 16.481 238.768 16.0212C239.205 15.5775 239.733 15.2334 240.316 15.0124C240.962 14.7722 241.646 14.6536 242.335 14.6628C243.031 14.6527 243.723 14.7713 244.376 15.0124C244.966 15.2318 245.498 15.5811 245.934 16.0342C246.37 16.4873 246.698 17.0326 246.894 17.6296C247.126 18.3184 247.239 19.0414 247.23 19.7679C247.241 20.5001 247.124 21.2287 246.886 21.921C246.677 22.5237 246.342 23.0755 245.905 23.5401C245.47 23.9891 244.942 24.3365 244.357 24.5573C243.709 24.8029 243.02 24.9244 242.327 24.9155ZM242.327 22.8429C243.07 22.8429 243.622 22.578 243.987 22.0482C244.353 21.5184 244.533 20.7597 244.533 19.7743C244.533 18.7888 244.35 18.0344 243.987 17.5173C243.624 17.0002 243.07 16.7417 242.327 16.7417C241.584 16.7417 241.034 17.0002 240.669 17.5194C240.304 18.0387 240.123 18.791 240.123 19.7764C240.123 20.7618 240.301 21.5353 240.66 22.0588C241.019 22.5822 241.573 22.8429 242.327 22.8429Z" fill="#233746"/>
<path d="M248.444 14.9637H250.969V16.3179C251.255 15.8462 251.657 15.4552 252.136 15.182C252.577 14.9328 253.074 14.802 253.58 14.8026C253.784 14.8002 253.989 14.8094 254.192 14.8302C254.353 14.8471 254.495 14.8705 254.616 14.8938L254.302 17.244C253.943 17.1628 253.576 17.1251 253.209 17.1316C252.934 17.1305 252.66 17.1647 252.393 17.2334C252.132 17.3027 251.89 17.4327 251.688 17.6127C251.476 17.7951 251.308 18.0234 251.198 18.2803C251.094 18.519 251.04 18.7765 251.041 19.0368V24.623H248.446L248.444 14.9637Z" fill="#233746"/>
<path d="M255.448 11.4119H258.117V13.7431H255.448V11.4119ZM255.485 14.9637H258.079V24.6188H255.485V14.9637Z" fill="#233746"/>
<path d="M265.407 23.3981C265.038 23.8197 264.603 24.1777 264.118 24.4577C263.549 24.7505 262.914 24.8908 262.275 24.8646C261.858 24.8671 261.443 24.8107 261.041 24.6972C260.67 24.5952 260.323 24.4193 260.022 24.1801C259.726 23.9377 259.488 23.6312 259.328 23.2837C259.145 22.8733 259.056 22.4273 259.069 21.9783C259.044 21.4029 259.199 20.834 259.513 20.3507C259.812 19.9296 260.214 19.5918 260.68 19.3695C261.194 19.126 261.74 18.9582 262.302 18.8715C262.906 18.7714 263.515 18.7098 264.126 18.6871L265.368 18.6299V18.1446C265.368 17.5527 265.205 17.1458 264.878 16.924C264.534 16.698 264.13 16.5819 263.719 16.5912C262.694 16.5912 262.107 16.9798 261.959 17.7568L259.587 17.5343C259.758 16.5241 260.203 15.7937 260.922 15.343C261.641 14.8923 262.605 14.6677 263.812 14.6691C264.452 14.6542 265.091 14.7444 265.702 14.9361C266.175 15.0866 266.604 15.3499 266.952 15.7033C267.274 16.0474 267.509 16.4629 267.638 16.9155C267.786 17.4357 267.858 17.9747 267.851 18.5155V24.6188H265.407V23.3981ZM265.351 20.3104L264.201 20.3655C263.758 20.3767 263.318 20.4321 262.886 20.5308C262.613 20.5917 262.352 20.7016 262.118 20.8551C261.953 20.9653 261.826 21.1237 261.755 21.3086C261.692 21.4927 261.661 21.6862 261.663 21.8808C261.656 22.0243 261.683 22.1676 261.741 22.2992C261.799 22.4308 261.886 22.5473 261.997 22.6395C262.262 22.839 262.591 22.9374 262.922 22.9171C263.502 22.9468 264.076 22.7877 264.557 22.4636C264.795 22.2889 264.991 22.0647 265.133 21.8066C265.287 21.5004 265.361 21.1596 265.345 20.8169L265.351 20.3104Z" fill="#233746"/>
<path d="M269.328 11.4119H271.923V24.6188H269.328V11.4119Z" fill="#233746"/>
<path d="M33.5476 12.1642L27.1417 31.8453H8.4762L12.4339 26.3629L12.9308 25.6742L12.6675 24.8668L9.1429 14.044L8.8775 13.226L8.05792 12.9674L1.68604 10.9415L16.7739 0L33.5476 12.1642Z" fill="#233746"/>
<path d="M11.0728 25.386L6.40798 31.8453L0 12.1642L7.54817 14.5611L11.0728 25.386Z" fill="#B5BE00"/>
</svg>
