<svg width="272" height="32" viewBox="0 0 272 32" fill="none" xmlns="http://www.w3.org/2000/svg">
<path d="M46.2305 12.9272H41.8649V11.4119H52.3169V12.9272H47.9513V24.6167H46.2305V12.9272Z" fill="#EFF7F6"/>
<path d="M53.1476 11.4119H54.7582V16.4811C55.1642 15.9291 55.6931 15.4793 56.3031 15.1672C56.8589 14.8968 57.4694 14.7576 58.0874 14.7603C59.1725 14.7603 59.9771 15.0563 60.5012 15.6482C61.0254 16.2402 61.2874 17.1098 61.2874 18.257V24.6146H59.6599V18.5706C59.6599 17.6827 59.5009 17.0575 59.1873 16.693C58.8737 16.3285 58.382 16.1484 57.7166 16.1484C57.3555 16.1496 56.9973 16.212 56.657 16.3327C56.3011 16.4593 55.9766 16.661 55.7055 16.924C55.421 17.1661 55.1827 17.4575 55.0019 17.7844C54.829 18.1508 54.7468 18.5535 54.7624 18.9584V24.6188H53.1518L53.1476 11.4119Z" fill="#EFF7F6"/>
<path d="M71.2201 21.938C71.0972 22.794 70.6579 23.5728 69.9889 24.1208C69.3291 24.6506 68.3825 24.9155 67.1491 24.9155C65.6954 24.9155 64.58 24.4747 63.8029 23.5931C63.0259 22.7115 62.6374 21.4817 62.6374 19.9036C62.6248 19.1562 62.7373 18.412 62.9701 17.7017C63.1655 17.106 63.4839 16.558 63.9046 16.0932C64.3033 15.6617 64.7925 15.3237 65.3372 15.1036C66.5329 14.64 67.8586 14.64 69.0543 15.1036C69.5604 15.3217 70.0072 15.6574 70.3576 16.0827C70.7069 16.5169 70.9649 17.0171 71.1163 17.5534C71.287 18.1615 71.3705 18.7909 71.3642 19.4225V20.2363H64.2649C64.2603 20.6908 64.3261 21.1433 64.4599 21.5777C64.5766 21.9662 64.7641 22.3297 65.013 22.6501C65.2553 22.9518 65.5624 23.1952 65.9115 23.3621C66.2992 23.5408 66.7223 23.6292 67.1491 23.6207C67.9523 23.6207 68.5372 23.4702 68.9081 23.1672C69.2864 22.8496 69.5524 22.4186 69.6667 21.938H71.2201ZM69.7579 19.0326C69.763 18.6153 69.7131 18.1992 69.6095 17.795C69.5236 17.4484 69.3662 17.1236 69.1475 16.8413C68.9308 16.5717 68.6515 16.3593 68.3338 16.2225C67.9525 16.0686 67.5431 15.9964 67.1322 16.0106C66.2845 16.0106 65.6219 16.2698 65.1444 16.7883C64.6668 17.3068 64.3843 18.0585 64.2967 19.0432L69.7579 19.0326Z" fill="#EFF7F6"/>
<path d="M77.6752 21.8088C77.7981 22.4361 78.0446 22.8889 78.4148 23.1672C78.7849 23.4455 79.3275 23.5868 80.0423 23.591C80.4922 23.6006 80.9382 23.5063 81.3457 23.3155C81.7401 23.1123 82.0653 22.7967 82.2802 22.4085C82.5557 21.9042 82.7435 21.3567 82.8355 20.7894C82.9699 19.9857 83.0316 19.1714 83.0198 18.3566C82.2428 19.4868 81.133 20.0519 79.6906 20.0519C79.0854 20.0688 78.4834 19.9591 77.9231 19.7298C77.4583 19.5284 77.0453 19.2241 76.7152 18.8398C76.3865 18.4487 76.1464 17.991 76.0116 17.4983C75.8599 16.9562 75.785 16.3955 75.7891 15.8326C75.7827 15.2296 75.8898 14.6307 76.1049 14.0673C76.2994 13.5488 76.6031 13.0781 76.9954 12.6873C77.3877 12.2964 77.8595 11.9944 78.3788 11.8019C78.9586 11.585 79.5738 11.4779 80.1928 11.4861C80.9026 11.4444 81.6097 11.6049 82.232 11.9488C82.8543 12.2928 83.3663 12.8062 83.7086 13.4294C84.0515 14.0387 84.2893 14.7014 84.4122 15.3897C84.5499 16.1092 84.6208 16.8399 84.6241 17.5725C84.6274 18.5342 84.5651 19.495 84.4376 20.4482C84.3381 21.2585 84.1039 22.0464 83.7446 22.7794C83.4288 23.4191 82.9501 23.9644 82.3565 24.3603C81.7716 24.7502 81.0165 24.9445 80.0911 24.9431C78.8958 24.9431 77.962 24.6902 77.2895 24.1844C76.617 23.6786 76.2256 22.8839 76.1155 21.8003L77.6752 21.8088ZM80.0233 18.6999C80.3831 18.7022 80.7409 18.6463 81.0829 18.5346C81.4091 18.4258 81.7103 18.2529 81.9687 18.026C82.2389 17.783 82.4511 17.4825 82.5896 17.1465C82.7524 16.7428 82.831 16.3101 82.8206 15.875C82.8201 15.5028 82.7673 15.1326 82.6638 14.7751C82.5638 14.4218 82.4009 14.0894 82.1827 13.7939C81.9674 13.5043 81.6892 13.2674 81.369 13.101C81.0049 12.9194 80.6016 12.8305 80.1949 12.8424C79.3472 12.8424 78.6719 13.101 78.169 13.618C77.666 14.1351 77.4145 14.8549 77.4145 15.7775C77.4124 16.1635 77.4565 16.5485 77.5459 16.924C77.623 17.2613 77.7735 17.5775 77.9867 17.8501C78.2008 18.1179 78.4763 18.3302 78.7899 18.4689C79.1796 18.6338 79.6003 18.7126 80.0233 18.6999Z" fill="#EFF7F6"/>
<path d="M87.6439 24.6188H85.9782L90.1785 11.0432H91.842L87.6439 24.6188Z" fill="#EFF7F6"/>
<path d="M96.3371 13.6328L93.3956 15.4087L92.6942 14.1987L96.5087 11.8315H98.007V24.6124H96.3413L96.3371 13.6328Z" fill="#EFF7F6"/>
<path d="M105.437 13.6328L102.497 15.4087L101.794 14.1987L105.608 11.8315H107.107V24.6124H105.441L105.437 13.6328Z" fill="#EFF7F6"/>
<path d="M114.908 11.4119H119.625C120.473 11.3884 121.319 11.5044 122.13 11.7552C122.714 11.9391 123.251 12.2487 123.702 12.6622C124.081 13.0231 124.361 13.4746 124.516 13.974C124.671 14.4808 124.749 15.008 124.747 15.538C124.75 16.1007 124.672 16.6609 124.516 17.2016C124.365 17.7273 124.085 18.2071 123.702 18.5981C123.264 19.0299 122.732 19.3561 122.149 19.5518C121.357 19.8074 120.528 19.9264 119.697 19.9036H117.626V24.6188H114.908V11.4119ZM119.606 17.6085C120.007 17.6181 120.408 17.5688 120.795 17.4622C121.072 17.3836 121.327 17.2439 121.543 17.0532C121.728 16.8826 121.86 16.6617 121.922 16.4175C121.992 16.1491 122.026 15.8726 122.024 15.5952C122.029 15.3199 121.992 15.0455 121.914 14.7814C121.842 14.555 121.708 14.3531 121.528 14.1987C121.309 14.0208 121.054 13.8941 120.78 13.8278C120.39 13.7325 119.988 13.689 119.587 13.6985H117.626V17.6191L119.606 17.6085Z" fill="white"/>
<path d="M134.089 21.6159C133.915 22.7009 133.48 23.5239 132.785 24.0848C132.09 24.6457 131.076 24.9282 129.742 24.9325C128.137 24.9325 126.931 24.4881 126.125 23.5995C125.318 22.7108 124.914 21.4534 124.914 19.8273C124.902 19.0874 125.021 18.3512 125.266 17.653C125.48 17.0509 125.817 16.5002 126.256 16.036C126.683 15.5898 127.204 15.2451 127.782 15.0273C128.408 14.7928 129.073 14.6771 129.742 14.6861C131.221 14.6861 132.334 15.1099 133.08 15.9576C133.826 16.8053 134.199 17.9518 134.199 19.3971V20.4334H127.504C127.527 21.2111 127.716 21.8172 128.095 22.2559C128.475 22.6946 129.019 22.9129 129.759 22.9129C130.783 22.9129 131.388 22.4812 131.573 21.618L134.089 21.6159ZM131.702 18.7189C131.702 18.0535 131.539 17.5343 131.213 17.1656C130.886 16.7968 130.376 16.6103 129.687 16.6103C129.376 16.6033 129.068 16.6603 128.78 16.7778C128.532 16.8803 128.308 17.0341 128.123 17.2291C127.94 17.4222 127.796 17.6489 127.699 17.8967C127.598 18.1595 127.541 18.4374 127.532 18.7189H131.702Z" fill="white"/>
<path d="M135.402 14.9637H137.918V16.2967C138.253 15.7708 138.722 15.343 139.276 15.057C139.784 14.8023 140.344 14.6695 140.912 14.6692C142.01 14.6692 142.825 14.9517 143.356 15.5168C143.887 16.082 144.152 16.9855 144.151 18.2273V24.6082H141.563V18.5897C141.563 17.9115 141.434 17.4488 141.175 17.2016C140.892 16.9469 140.519 16.8144 140.139 16.8329C139.845 16.8256 139.553 16.876 139.278 16.9812C139.031 17.0836 138.802 17.2269 138.602 17.4051C138.429 17.5877 138.285 17.7974 138.179 18.026C138.061 18.2711 138 18.5401 138.003 18.8122V24.6188H135.402V14.9637Z" fill="white"/>
<path d="M146.204 16.9812H144.687V14.9637H146.204V12.3931H148.794V14.9637H151.013V16.9812H148.794V21.4315C148.794 21.9387 148.898 22.2806 149.107 22.4572C149.336 22.6438 149.626 22.7395 149.921 22.7264C150.097 22.7265 150.274 22.7173 150.449 22.6988C150.627 22.6797 150.804 22.6456 150.977 22.5971L151.345 24.5044C151.004 24.6106 150.655 24.6879 150.3 24.7354C149.979 24.7773 149.654 24.7992 149.33 24.8011C148.269 24.8011 147.483 24.5482 146.971 24.0424C146.46 23.5366 146.204 22.6889 146.204 21.4993V16.9812Z" fill="white"/>
<path d="M157.616 23.3982C157.248 23.8197 156.814 24.1777 156.33 24.4578C155.762 24.7508 155.128 24.891 154.49 24.8647C154.074 24.8671 153.659 24.8108 153.259 24.6972C152.888 24.5952 152.542 24.4193 152.242 24.1802C151.946 23.9373 151.709 23.6308 151.549 23.2837C151.366 22.8734 151.278 22.4273 151.29 21.9783C151.264 21.4006 151.42 20.8293 151.735 20.3444C152.034 19.9233 152.435 19.5855 152.901 19.3632C153.413 19.1184 153.957 18.9492 154.518 18.8609C155.121 18.7608 155.729 18.6993 156.34 18.6766L157.578 18.6194V18.1447C157.578 17.5527 157.415 17.1458 157.088 16.924C156.746 16.6983 156.343 16.5823 155.933 16.5913C154.91 16.5913 154.324 16.9798 154.174 17.7568L151.807 17.5343C151.981 16.5242 152.425 15.7937 153.14 15.3431C153.855 14.8924 154.816 14.6677 156.024 14.6692C156.664 14.6544 157.302 14.7446 157.913 14.9362C158.381 15.0889 158.807 15.352 159.152 15.7033C159.473 16.0478 159.707 16.4632 159.837 16.9155C159.984 17.436 160.055 17.9748 160.049 18.5155V24.6188H157.616V23.3982ZM157.561 20.3105L156.414 20.3656C155.972 20.3766 155.532 20.432 155.1 20.5309C154.827 20.5918 154.567 20.7016 154.333 20.8551C154.169 20.9654 154.042 21.1238 153.971 21.3086C153.908 21.4927 153.877 21.6863 153.88 21.8808C153.873 22.0244 153.899 22.1676 153.957 22.2992C154.015 22.4309 154.102 22.5473 154.212 22.6395C154.478 22.839 154.805 22.9375 155.136 22.9171C155.715 22.9434 156.286 22.7813 156.764 22.4551C157.001 22.2804 157.197 22.0563 157.338 21.7982C157.493 21.4919 157.566 21.1511 157.55 20.8085L157.561 20.3105Z" fill="white"/>
<path d="M164.219 25.2292C164.254 25.4381 164.325 25.6391 164.431 25.8225C164.522 25.9693 164.65 26.0898 164.802 26.1722C164.974 26.2656 165.161 26.3253 165.355 26.3481C165.616 26.3823 165.879 26.3979 166.141 26.3947C166.536 26.4165 166.928 26.3238 167.271 26.1277C167.536 25.9542 167.745 25.7066 167.871 25.4156C168.007 25.0924 168.089 24.7486 168.112 24.3984C168.142 24.0149 168.159 23.6207 168.159 23.2138V22.9171C167.85 23.3734 167.425 23.7391 166.928 23.9767C166.398 24.2247 165.818 24.348 165.232 24.337C163.876 24.337 162.862 23.8997 162.189 23.0252C161.517 22.1507 161.182 20.9745 161.185 19.4967C161.178 18.838 161.274 18.1822 161.471 17.5534C161.644 16.9963 161.924 16.4781 162.295 16.0276C162.656 15.5999 163.107 15.2588 163.618 15.0294C164.173 14.782 164.775 14.6591 165.383 14.6692C165.9 14.6685 166.413 14.7686 166.892 14.9637C167.429 15.2006 167.892 15.5776 168.233 16.0551V14.9637H170.749V23.2689C170.758 24.0013 170.674 24.7319 170.499 25.4432C170.353 26.0336 170.081 26.5853 169.702 27.0602C169.324 27.5156 168.833 27.8635 168.278 28.0689C167.594 28.3133 166.871 28.4289 166.146 28.4101C165.478 28.4214 164.811 28.3567 164.158 28.2172C163.67 28.1149 163.207 27.9137 162.799 27.626C162.446 27.3658 162.163 27.0221 161.975 26.6257C161.773 26.1842 161.645 25.7124 161.596 25.2292H164.219ZM168.176 19.4586C168.191 18.9827 168.126 18.5077 167.983 18.0535C167.882 17.7418 167.708 17.4589 167.474 17.2292C167.279 17.0468 167.041 16.9164 166.781 16.8498C166.527 16.7891 166.266 16.7585 166.004 16.7587C165.729 16.7569 165.456 16.8072 165.201 16.907C164.942 17.0092 164.713 17.1746 164.535 17.3881C164.328 17.6366 164.173 17.9251 164.082 18.2358C163.962 18.6378 163.905 19.0561 163.914 19.4755C163.914 20.4998 164.108 21.2239 164.497 21.6477C164.678 21.8528 164.902 22.0158 165.153 22.1256C165.403 22.2354 165.675 22.2893 165.949 22.2835C166.254 22.2868 166.557 22.2402 166.847 22.1457C167.117 22.0576 167.361 21.9056 167.559 21.7028C167.771 21.4752 167.929 21.2029 168.021 20.906C168.14 20.5198 168.196 20.1169 168.187 19.7129L168.176 19.4586Z" fill="white"/>
<path d="M176.852 24.9155C175.298 24.9155 174.097 24.4712 173.249 23.5825C172.402 22.6939 171.978 21.4224 171.978 19.768C171.967 19.0408 172.082 18.3173 172.319 17.6297C172.527 17.0294 172.862 16.4809 173.3 16.0212C173.733 15.5804 174.257 15.2385 174.834 15.0188C176.145 14.5526 177.576 14.5526 178.886 15.0188C179.476 15.2374 180.009 15.5863 180.445 16.0395C180.88 16.4927 181.208 17.0384 181.404 17.636C181.635 18.3249 181.747 19.0479 181.737 19.7743C181.748 20.5065 181.632 21.2351 181.393 21.9274C181.187 22.5309 180.853 23.083 180.414 23.5465C179.981 23.9955 179.453 24.3429 178.869 24.5637C178.225 24.806 177.541 24.9254 176.852 24.9155ZM176.852 22.8429C177.592 22.8429 178.144 22.578 178.507 22.0482C178.87 21.5184 179.052 20.7605 179.052 19.7743C179.052 18.7854 178.87 18.033 178.507 17.5174C178.144 17.0017 177.592 16.7432 176.852 16.7417C176.112 16.7417 175.559 17.0003 175.197 17.5195C174.834 18.0387 174.65 18.791 174.65 19.7764C174.65 20.7619 174.828 21.5354 175.186 22.0588C175.544 22.5823 176.106 22.8429 176.852 22.8429Z" fill="white"/>
<path d="M182.955 14.9637H185.471V16.2967C185.806 15.7702 186.276 15.3423 186.831 15.057C187.339 14.802 187.899 14.6692 188.467 14.6692C189.565 14.6692 190.379 14.9517 190.909 15.5168C191.438 16.082 191.703 16.9855 191.703 18.2273V24.6082H189.114V18.5897C189.114 17.9115 188.984 17.4488 188.726 17.2016C188.443 16.9465 188.07 16.8139 187.69 16.8329C187.4 16.8268 187.112 16.8772 186.842 16.9812C186.594 17.0831 186.365 17.2264 186.166 17.4051C185.991 17.5867 185.847 17.7967 185.742 18.026C185.624 18.2711 185.564 18.5401 185.566 18.8122V24.6188H182.955V14.9637Z" fill="white"/>
<path d="M196.753 11.4119H200.064L203.357 21.2705L206.748 11.4119H209.967V24.6188H207.424V15.8156L204.408 24.6188H202.265L199.233 15.8326V24.6188H196.753V11.4119Z" fill="white"/>
<path d="M220.558 21.6159C220.385 22.7009 219.949 23.5239 219.253 24.0848C218.556 24.6457 217.543 24.9282 216.212 24.9325C214.607 24.9325 213.401 24.4881 212.594 23.5995C211.788 22.7108 211.384 21.4534 211.384 19.8273C211.372 19.0874 211.491 18.3512 211.736 17.653C211.95 17.0514 212.286 16.5008 212.724 16.036C213.152 15.5902 213.674 15.2456 214.252 15.0273C214.878 14.7928 215.543 14.6771 216.212 14.6861C217.691 14.6861 218.804 15.1099 219.55 15.9576C220.296 16.8053 220.669 17.9518 220.669 19.3971V20.4334H213.974C213.997 21.2111 214.186 21.8172 214.565 22.2559C214.945 22.6946 215.489 22.9129 216.229 22.9129C217.253 22.9129 217.858 22.4812 218.043 21.618L220.558 21.6159ZM218.172 18.7189C218.172 18.0535 218.009 17.5343 217.683 17.1656C217.356 16.7968 216.835 16.6103 216.155 16.6103C215.845 16.6035 215.537 16.6605 215.25 16.7778C215.001 16.8803 214.778 17.0341 214.593 17.2291C214.41 17.4222 214.266 17.6489 214.169 17.8967C214.067 18.1595 214.011 18.4374 214.002 18.7189H218.172Z" fill="white"/>
<path d="M221.881 14.9637H224.396V16.2585C224.709 15.7591 225.142 15.346 225.655 15.057C226.156 14.7957 226.713 14.6623 227.278 14.6686C227.842 14.6749 228.396 14.8207 228.891 15.093C229.341 15.3833 229.674 15.8219 229.834 16.3327C230.204 15.8102 230.684 15.376 231.241 15.0612C231.744 14.8003 232.303 14.6671 232.869 14.6734C233.868 14.6734 234.616 14.9475 235.115 15.4956C235.614 16.0438 235.864 16.9346 235.865 18.1679V24.623H233.276V18.5155C233.283 18.23 233.252 17.9448 233.182 17.6678C233.137 17.4822 233.051 17.3088 232.932 17.1592C232.833 17.0396 232.703 16.9501 232.555 16.9007C232.405 16.8514 232.249 16.8264 232.091 16.8265C231.848 16.8234 231.606 16.8673 231.379 16.9558C231.139 17.059 230.923 17.2097 230.743 17.3987C230.569 17.5705 230.425 17.7713 230.319 17.9921C230.215 18.211 230.161 18.4508 230.163 18.6935V24.6125H227.573V18.5155C227.58 18.23 227.549 17.9448 227.48 17.6678C227.434 17.4822 227.349 17.3088 227.23 17.1592C227.13 17.039 226.999 16.9494 226.85 16.9007C226.701 16.8512 226.545 16.8261 226.388 16.8265C226.145 16.8234 225.903 16.8673 225.676 16.9558C225.437 17.059 225.22 17.2097 225.04 17.3987C224.86 17.5763 224.716 17.7872 224.617 18.0196C224.509 18.2676 224.455 18.5355 224.458 18.8058V24.6125H221.881V14.9637Z" fill="white"/>
<path d="M241.865 24.9155C240.311 24.9155 239.11 24.4711 238.262 23.5825C237.415 22.6938 236.991 21.4223 236.991 19.7679C236.98 19.0407 237.097 18.3171 237.334 17.6296C237.541 17.0295 237.875 16.481 238.313 16.0212C238.749 15.5775 239.276 15.2334 239.858 15.0124C240.502 14.7722 241.186 14.6536 241.873 14.6628C242.568 14.6527 243.258 14.7713 243.91 15.0124C244.499 15.2318 245.03 15.5811 245.465 16.0342C245.9 16.4873 246.228 17.0326 246.423 17.6296C246.655 18.3184 246.768 19.0414 246.758 19.7679C246.769 20.5001 246.653 21.2287 246.415 21.921C246.206 22.5237 245.873 23.0755 245.436 23.5401C245.002 23.9891 244.475 24.3365 243.891 24.5573C243.244 24.8028 242.557 24.9243 241.865 24.9155ZM241.865 22.8429C242.607 22.8429 243.158 22.578 243.522 22.0482C243.887 21.5184 244.067 20.7597 244.067 19.7743C244.067 18.7888 243.884 18.0344 243.522 17.5173C243.16 17.0002 242.607 16.7417 241.865 16.7417C241.123 16.7417 240.574 17.0002 240.21 17.5194C239.845 18.0387 239.665 18.791 239.665 19.7764C239.665 20.7618 239.843 21.5353 240.201 22.0588C240.559 22.5822 241.113 22.8429 241.865 22.8429Z" fill="white"/>
<path d="M247.97 14.9637H250.49V16.3179C250.776 15.8462 251.177 15.4552 251.656 15.182C252.095 14.9328 252.592 14.802 253.097 14.8026C253.301 14.8002 253.504 14.8094 253.707 14.8302C253.868 14.8471 254.01 14.8705 254.131 14.8938L253.817 17.244C253.459 17.1628 253.093 17.1251 252.726 17.1316C252.451 17.1305 252.178 17.1647 251.912 17.2334C251.651 17.3027 251.41 17.4327 251.209 17.6127C250.997 17.7951 250.829 18.0234 250.719 18.2803C250.615 18.519 250.562 18.7765 250.562 19.0368V24.623H247.973L247.97 14.9637Z" fill="white"/>
<path d="M254.961 11.4119H257.625V13.7431H254.961V11.4119ZM254.998 14.9637H257.587V24.6188H254.998V14.9637Z" fill="white"/>
<path d="M264.901 23.3981C264.533 23.8197 264.098 24.1777 263.614 24.4577C263.047 24.7505 262.413 24.8908 261.775 24.8646C261.359 24.8671 260.944 24.8107 260.544 24.6972C260.173 24.5952 259.827 24.4193 259.526 24.1801C259.23 23.9377 258.993 23.6312 258.833 23.2837C258.651 22.8733 258.562 22.4273 258.575 21.9783C258.55 21.4029 258.705 20.834 259.018 20.3507C259.316 19.9296 259.718 19.5918 260.183 19.3695C260.696 19.126 261.241 18.9582 261.802 18.8715C262.405 18.7714 263.013 18.7098 263.623 18.6871L264.863 18.6299V18.1446C264.863 17.5527 264.699 17.1458 264.373 16.924C264.03 16.698 263.626 16.5819 263.216 16.5912C262.193 16.5912 261.607 16.9798 261.459 17.7568L259.092 17.5343C259.263 16.5241 259.707 15.7937 260.425 15.343C261.143 14.8923 262.104 14.6677 263.309 14.6691C263.948 14.6542 264.585 14.7444 265.195 14.9361C265.667 15.0866 266.096 15.3499 266.443 15.7033C266.765 16.0474 266.999 16.4629 267.128 16.9155C267.276 17.4357 267.347 17.9747 267.34 18.5155V24.6188H264.901V23.3981ZM264.846 20.3104L263.697 20.3655C263.255 20.3767 262.816 20.4321 262.385 20.5308C262.112 20.5917 261.852 20.7016 261.618 20.8551C261.453 20.9653 261.327 21.1237 261.256 21.3086C261.193 21.4927 261.162 21.6862 261.165 21.8808C261.158 22.0243 261.184 22.1676 261.242 22.2992C261.3 22.4308 261.387 22.5473 261.497 22.6395C261.762 22.839 262.09 22.9374 262.421 22.9171C263 22.9468 263.573 22.7877 264.053 22.4636C264.29 22.2889 264.486 22.0647 264.627 21.8066C264.782 21.5004 264.855 21.1596 264.839 20.8169L264.846 20.3104Z" fill="white"/>
<path d="M268.815 11.4119H271.405V24.6188H268.815V11.4119Z" fill="white"/>
<path d="M33.4835 12.1642L27.0898 31.8453H8.4599L12.4101 26.3629L12.906 25.6742L12.6432 24.8668L9.12533 14.044L8.86043 13.226L8.04241 12.9674L1.68268 10.9415L16.7418 0L33.4835 12.1642Z" fill="white"/>
<path d="M11.0517 25.386L6.39576 31.8453L0 12.1642L7.53378 14.5611L11.0517 25.386Z" fill="#EFF7F6"/>
</svg>
