<svg width="126" height="126" viewBox="0 0 126 126" fill="none" xmlns="http://www.w3.org/2000/svg">
<g filter="url(#filter0_d)">
<ellipse cx="63.0002" cy="59" rx="52.1481" ry="52.1143" fill="black"/>
<path d="M82.5555 57.9144L52.1357 42.7144L53.2222 75.2858L82.5555 57.9144Z" fill="white"/>
<path fill-rule="evenodd" clip-rule="evenodd" d="M51.5925 78.5431C50.6925 78.5431 49.9629 77.814 49.9629 76.9145V41.086C49.9629 40.5102 50.2671 39.9771 50.763 39.684C51.259 39.3909 51.873 39.3814 52.3778 39.6589L84.9704 57.5731C85.4912 57.8593 85.8148 58.4062 85.8148 59.0002C85.8148 59.5941 85.4912 60.141 84.9704 60.4272L52.3778 78.3415C52.1372 78.4737 51.8671 78.5431 51.5925 78.5431ZM53.2222 43.8397V74.1603L80.8033 59.0003L53.2222 43.8397Z" fill="white"/>
</g>
<defs>
<filter id="filter0_d" x="0.852051" y="0.885742" width="124.296" height="124.229" filterUnits="userSpaceOnUse" color-interpolation-filters="sRGB">
<feFlood flood-opacity="0" result="BackgroundImageFix"/>
<feColorMatrix in="SourceAlpha" type="matrix" values="0 0 0 0 0 0 0 0 0 0 0 0 0 0 0 0 0 0 127 0"/>
<feOffset dy="4"/>
<feGaussianBlur stdDeviation="5"/>
<feColorMatrix type="matrix" values="0 0 0 0 0 0 0 0 0 0 0 0 0 0 0 0 0 0 0.5 0"/>
<feBlend mode="normal" in2="BackgroundImageFix" result="effect1_dropShadow"/>
<feBlend mode="normal" in="SourceGraphic" in2="effect1_dropShadow" result="shape"/>
</filter>
</defs>
</svg>
