<svg width="12" height="11" viewBox="0 0 12 11" fill="none" xmlns="http://www.w3.org/2000/svg">
<path d="M2.22047 10.8C3.40158 10.8 4.44095 9.97276 4.44095 8.68596C4.44095 7.30723 3.44882 6.48 1.65354 6.48C1.88976 4.22809 2.74016 2.57362 4.3937 0.459574L3.77953 0C1.84252 1.79234 0 5.37702 0 8.13447C0 9.97277 1.03937 10.8 2.22047 10.8ZM9.77953 10.8C10.9606 10.8 12 9.97276 12 8.68596C12 7.30723 11.0079 6.48 9.2126 6.48C9.44882 4.22809 10.2992 2.57362 11.9528 0.459574L11.3386 0C9.40158 1.79234 7.55906 5.37702 7.55906 8.13447C7.55906 9.97277 8.59843 10.8 9.77953 10.8Z" fill="white"/>
</svg>
