<svg width="11" height="9" viewBox="0 0 11 9" fill="none" xmlns="http://www.w3.org/2000/svg">
<path d="M2.30849 9C3.34369 9 4.25467 8.31064 4.25467 7.2383C4.25467 6.08936 3.3851 5.4 1.81159 5.4C2.01863 3.5234 2.76398 2.14468 4.21327 0.382978L3.67496 0C1.97722 1.49362 0.362305 4.48085 0.362305 6.77872C0.362305 8.31064 1.27328 9 2.30849 9ZM8.9338 9C9.969 9 10.88 8.31064 10.88 7.2383C10.88 6.08936 10.0104 5.4 8.4369 5.4C8.64394 3.5234 9.38929 2.14468 10.8386 0.382978L10.3003 0C8.60253 1.49362 6.98761 4.48085 6.98761 6.77872C6.98761 8.31064 7.89859 9 8.9338 9Z" fill="#233746"/>
</svg>
